{
.appVersion = "3343";
.formatVersion = 3;
DisplayStrings = (
Arrest,
Arrest,
r
);
axes = (
{
name = Weight;
tag = wght;
},
{
name = Width;
tag = wdth;
},
{
name = "Optical size";
tag = opsz;
}
);
classes = (
{
code = "";
name = NewEmptyClass;
}
);
date = "2024-10-08 15:07:43 +0000";
familyName = COSMA_REWORK_POST_ECAL;
featurePrefixes = (
{
automatic = 1;
code = "languagesystem DFLT dflt;
";
name = Languagesystems;
}
);
features = (
{
automatic = 1;
code = "feature ss01;
";
tag = aalt;
}
);
fontMaster = (
{
axesValues = (
100,
50,
0
);
customParameters = (
{
name = "Master Icon Glyph Name";
value = n;
}
);
iconName = Light;
id = "53F0F7F5-7E63-41B5-8940-5CAB53A0CB52";
metricValues = (
{
over = 10;
pos = 700;
},
{
over = 10;
pos = 700;
},
{
over = 10;
pos = 500;
},
{
over = -10;
},
{
over = -10;
pos = -220;
},
{
}
);
name = THIN;
userData = {
GSCornerRadius = 90;
};
},
{
axesValues = (
500,
50,
0
);
customParameters = (
{
name = "Master Icon Glyph Name";
value = n;
}
);
id = "EC5FEA86-72D2-42C8-BC19-2BD75AB225BC";
metricValues = (
{
over = 10;
pos = 700;
},
{
over = 10;
pos = 700;
},
{
over = 10;
pos = 500;
},
{
over = -10;
},
{
over = -10;
pos = -220;
},
{
}
);
name = REGULAR;
userData = {
GSCornerRadius = 15;
};
},
{
axesValues = (
800,
50,
0
);
customParameters = (
{
name = "Master Icon Glyph Name";
value = n;
}
);
id = m003;
metricValues = (
{
over = 10;
pos = 700;
},
{
over = 10;
pos = 700;
},
{
over = 10;
pos = 500;
},
{
over = -10;
},
{
over = -10;
pos = -220;
},
{
}
);
name = "EXTRA-BOLD";
userData = {
GSCornerRadius = 25;
};
},
{
axesValues = (
100,
50,
100
);
customParameters = (
{
name = "Master Icon Glyph Name";
value = n;
}
);
iconName = Light;
id = m004;
metricValues = (
{
over = 10;
pos = 700;
},
{
over = 10;
pos = 700;
},
{
over = 10;
pos = 500;
},
{
over = -10;
},
{
over = -10;
pos = -220;
},
{
}
);
name = "THIN CONTRAST";
userData = {
GSCornerRadius = 90;
};
},
{
axesValues = (
500,
50,
100
);
customParameters = (
{

glyphs = (
{
glyphname = A;
kernLeft = A;
kernRight = A;
lastChange = "2026-02-26 14:27:45 +0000";
layers = (
{
associatedMasterId = "EC5FEA86-72D2-42C8-BC19-2BD75AB225BC";
layerId = "BC5CE697-1075-4B49-B862-3E4281323DD1";
name = A.ss01;
shapes = (
{
closed = 1;
nodes = (
(191,429,l),
(191,509,o),
(240,564,o),
(311,564,c),
(311,564,ls),
(382,564,o),
(431,509,o),
(431,429,c),
(430,0,l),
(579,0,l),
(581,427,ls),
(581,595,o),
(471,710,o),
(311,710,cs),
(311,710,ls),
(150,710,o),
(40,595,o),
(40,427,cs),
(40,0,l),
(189,0,l)
);
},
{
closed = 1;
nodes = (
(357,147,o),
(396,185,o),
(396,232,cs),
(396,278,o),
(357,317,o),
(311,317,cs),
(264,317,o),
(226,278,o),
(226,232,cs),
(226,185,o),
(264,147,o),
(311,147,cs)
);
}
);
userData = {
com.hugojourdan.ColorFlow = {
"0" = 0;
"1" = 0;
"10" = 0;
"11" = 0;
"2" = 0;
"3" = 0;
"4" = 0;
"5" = 0;
"6" = 0;
"7" = 0;
"8" = 0;
"9" = 0;
};
};
width = 621;
},
{
associatedMasterId = "EC5FEA86-72D2-42C8-BC19-2BD75AB225BC";
layerId = "E404F0F3-7FCB-4A5E-BA5A-D2EA2009DE58";
name = A.ss02;
shapes = (
{
alignment = -1;
pos = (0,700);
ref = V;
scale = (1,-1);
}
);
userData = {
com.hugojourdan.ColorFlow = {
"0" = 0;
"1" = 0;
"10" = 0;
"11" = 0;
"2" = 0;
"3" = 0;
"4" = 0;
"5" = 0;
"6" = 0;
"7" = 0;
"8" = 0;
"9" = 0;
};
};
width = 685;
},
{
associatedMasterId = "EC5FEA86-72D2-42C8-BC19-2BD75AB225BC";
layerId = "71C70E1F-B95E-48B3-BBB2-E7028FCD2701";
name = A.ss03;
shapes = (
{
pos = (35,700);
ref = V;
scale = (1,-1);
},
{
closed = 1;
nodes = (
(412,77,o),
(451,115,o),
(451,162,cs),
(451,208,o),
(412,247,o),
(366,247,cs),
(319,247,o),
(281,208,o),
(281,162,cs),
(281,115,o),
(319,77,o),
(366,77,cs)
);
}
);
userData = {
com.hugojourdan.ColorFlow = {
"0" = 0;
"1" = 0;
"10" = 0;
"11" = 0;
"2" = 0;
"3" = 0;
"4" = 0;
"5" = 0;
"6" = 0;
"7" = 0;
"8" = 0;
"9" = 0;
};
};
width = 729;
},
{
associatedMasterId = "EC5FEA86-72D2-42C8-BC19-2BD75AB225BC";
layerId = "56605E37-13B5-419F-A114-806B2AD10273";
name = A.ss04;
shapes = (
{
pos = (35,700);
ref = V;
scale = (1,-1);
},
{
closed = 1;
nodes = (
(206,146,l),
(550,146,l),
(550,282,l),
(206,282,l)
);
}
);
userData = {
com.hugojourdan.ColorFlow = {
"0" = 0;
"1" = 0;
"10" = 0;
"11" = 0;
"2" = 0;
"3" = 0;
"4" = 0;
"5" = 0;
"6" = 0;
"7" = 0;
"8" = 0;
"9" = 0;
};
};
width = 729;
},
{
associatedMasterId = "EC5FEA86-72D2-42C8-BC19-2BD75AB225BC";
layerId = "44A2F6C4-3B6F-444B-A15D-400716242011";
name = A.ss05;
shapes = (
{
closed = 1;
nodes = (
(201,0,l),
(378,556,l),
(508,144,l),
(306,144,l),
(306,0,l),
(710,0,l),
(533,548,ls),
(505,637,o),
(479,712,o),
(378,712,cs),
(278,712,o),
(252,636,o),
(224,548,cs),
(45,0,l)
);
}
);
width = 755;
},
{
associatedMasterId = "EC5FEA86-72D2-42C8-BC19-2BD75AB225BC";
layerId = "AD5E94D4-F5C7-4E8D-8AC7-CC4B749C833D";
name = A.ss06;
shapes = (
{
closed = 1;
nodes = (
(370,700,cs),
(316,700,o),
(281,677,o),
(260,626,cs),
(56,130,ls),
(26,56,o),
(61,0,o),
(144,0,cs),
(586,0,ls),
(669,0,o),
(705,52,o),
(674,130,cs),
(479,625,ls),
(459,676,o),
(424,700,o)
);
},
{
closed = 1;
nodes = (
(369,500,l),
(508,144,l),
(224,144,l)
);
}
);
width = 730;
},
{
associatedMasterId = "EC5FEA86-72D2-42C8-BC19-2BD75AB225BC";
layerId = "B1F5A905-5E99-4E17-B1CC-5D4461BD91A5";
name = A.ss07;
shapes = (
{
closed = 1;
nodes = (
(194,0,l),
(195,173,l),
(436,173,l),
(435,0,l),
(584,0,l),
(586,700,l),
(45,700,l),
(45,0,l)
);
},
{
closed = 1;
nodes = (
(196,429,ls),
(197,509,o),
(246,564,o),
(316,564,c),
(316,564,ls),
(387,564,o),
(436,509,o),
(436,429,cs),
(436,317,l),
(195,317,l)
);
}
);
width = 631;
},
{
associatedMasterId = "EC5FEA86-72D2-42C8-BC19-2BD75AB225BC";
layerId = "E0E2CB92-659C-410E-94F9-22882F5FFDCD";
name = A.ss08;
shapes = (
{
closed = 1;
nodes = (
(247,439,ls),
(256,509,o),
(283,564,o),
(356,564,c),
(356,564,ls),
(430,564,o),
(457,509,o),
(465,439,cs),
(515,0,l),
(664,0,l),
(615,437,ls),
(597,595,o),
(506,710,o),
(356,710,cs),
(356,710,ls),
(205,710,o),
(115,595,o),
(96,437,cs),
(45,0,l),
(194,0,l)
);
},
{
closed = 1;
nodes = (
(402,147,o),
(441,185,o),
(441,232,cs),
(441,278,o),
(402,317,o),
(356,317,cs),
(309,317,o),
(271,278,o),
(271,232,cs),
(271,185,o),
(309,147,o),
(356,147,cs)
);
}
);
width = 709;
},
{
associatedMasterId = "EC5FEA86-72D2-42C8-BC19-2BD75AB225BC";
layerId = "B00C0FB5-82BD-4355-A756-0FC42C59C8DD";
name = A.ss09;
shapes = (
{
closed = 1;
nodes = (
(247,439,ls),
(256,509,o),
(283,564,o),
(356,564,c),
(356,564,ls),
(430,564,o),
(457,509,o),
(465,439,cs),
(515,0,l),
(664,0,l),
(615,437,ls),
(597,595,o),
(506,710,o),
(356,710,cs),
(356,710,ls),
(205,710,o),
(115,595,o),
(96,437,cs),
(45,0,l),
(194,0,l)
);
},
{
closed = 1;
nodes = (
(184,155,l),
(528,155,l),
(528,299,l),
(184,299,l)
);
}
);
width = 709;
},
{
associatedMasterId = "EC5FEA86-72D2-42C8-BC19-2BD75AB225BC";
layerId = "C4909E7B-4794-4C0C-881C-0970E7330CDA";
name = A.ss10;
shapes = (
{
closed = 1;
nodes = (
(133,269,l),
(45,0,l),
(201,0,l),
(241,125,l),
(514,125,l),
(554,0,l),
(710,0,l),
(623,269,l)
);
},
{
closed = 1;
nodes = (
(597,352,l),
(533,548,ls),
(505,637,o),
(479,712,o),
(378,712,cs),
(278,712,o),
(252,636,o),
(224,548,cs),
(160,352,l),
(314,352,l),
(378,548,l),
(442,352,l)
);
}
);
width = 755;
},
{
associatedMasterId = m003;
layerId = "B2B91891-FB39-40C3-A9CC-19840C076347";
name = V2;
shapes = (
{
angle = 180;
pos = (699,700);
ref = V;
},
{
closed = 1;
nodes = (
(99,104,l),
(550,104,l),
(550,308,l),
(99,308,l)
);
}
);
width = 699;
},
{
layerId = m003;
name = "EXTRA-BOLD";
shapes = (
{
closed = 1;
nodes = (
(275,0,l),
(275,134,l),
(397,134,l),
(397,0,l),
(637,0,l),
(637,417,ls),
(637,595,o),
(514,710,o),
(336,710,cs),
(336,710,ls),
(158,710,o),
(35,595,o),
(35,417,cs),
(35,0,l)
);
},
{
closed = 1;
nodes = (
(275,433,ls),
(275,483,o),
(300,506,o),
(336,506,cs),
(336,506,ls),
(372,506,o),
(397,483,o),
(397,433,cs),
(397,338,l),
(275,338,l)
);
}
);
userData = {
com.hugojourdan.ColorFlow = {
"0" = 0;
"1" = 0;
"10" = 0;
"11" = 0;
"2" = 0;
"3" = 0;
"4" = 0;
"5" = 0;
"6" = 0;
"7" = 0;
"8" = 0;
"9" = 0;
};
};
width = 672;
},
{
associatedMasterId = "EC5FEA86-72D2-42C8-BC19-2BD75AB225BC";
layerId = "53FD54AE-69A1-406E-8FCB-E98C1B20D748";
name = "19 Jan 25 at 18:25";
shapes = (
{
angle = 180;
pos = (659,700);
ref = V;
},
{
closed = 1;
nodes = (
(99,172,l),
(550,172,l),
(550,308,l),
(99,308,l)
);
}
);
width = 659;
},
{
layerId = "EC5FEA86-72D2-42C8-BC19-2BD75AB225BC";
name = REGULAR;
shapes = (
{
closed = 1;
nodes = (
(194,0,l),
(195,173,l),
(456,173,l),
(456,0,l),
(606,0,l),
(606,427,ls),
(606,595,o),
(496,710,o),
(336,710,cs),
(316,710,ls),
(155,710,o),
(45,595,o),
(45,427,cs),
(45,0,l)
);
},
{
closed = 1;
nodes = (
(196,429,ls),
(197,509,o),
(246,564,o),
(316,564,c),
(336,564,ls),
(406,564,o),
(456,509,o),
(456,429,cs),
(456,317,l),
(195,317,l)
);
}
);
userData = {
com.hugojourdan.ColorFlow = {
"0" = 0;
"1" = 0;
"10" = 0;
"11" = 0;
"2" = 0;
"3" = 0;
"4" = 0;
"5" = 0;
"6" = 0;
"7" = 0;
"8" = 0;
"9" = 0;
};
};
width = 651;
},
{
associatedMasterId = "53F0F7F5-7E63-41B5-8940-5CAB53A0CB52";
layerId = "D3182D59-43AB-4259-AE16-0CC03D74E4C7";
name = "19 Jan 25 at 18:25";
shapes = (
{
angle = 180;
pos = (646,700);
ref = V;
},
{
closed = 1;
nodes = (
(99,245,l),
(550,245,l),
(550,255,l),
(99,255,l)
);
}
);
width = 646;
},
{
layerId = "53F0F7F5-7E63-41B5-8940-5CAB53A0CB52";
name = THIN;
shapes = (
{
closed = 1;
nodes = (
(45,0,l),
(45,238,l),
(540,238,l),
(539,0,l),
(549,0,l),
(551,427,ls),
(551,603,o),
(456,710,o),
(298,710,c),
(288,710,ls),
(130,710,o),
(35,603,o),
(35,427,cs),
(35,0,l)
);
},
{
closed = 1;
nodes = (
(45,426,ls),
(45,596,o),
(136,700,o),
(288,700,c),
(298,700,ls),
(451,700,o),
(542,596,o),
(541,426,cs),
(540,248,l),
(45,248,l)
);
}
);
userData = {
com.hugojourdan.ColorFlow = {
"0" = 0;
"1" = 0;
"10" = 0;
"11" = 0;
"2" = 0;
"3" = 0;
"4" = 0;
"5" = 0;
"6" = 0;
"7" = 0;
"8" = 0;
"9" = 0;
};
};
width = 586;
},
{
associatedMasterId = m004;
layerId = "3B731888-7F8F-42A5-B1E0-EA65023AA829";
name = "19 Jan 25 at 18:25";
shapes = (
{
angle = 180;
pos = (646,700);
ref = V;
},
{
closed = 1;
nodes = (
(99,245,l),
(550,245,l),
(550,255,l),
(99,255,l)
);
}
);
width = 646;
},
{
layerId = m004;
name = THIN;
shapes = (
{
closed = 1;
nodes = (
(45,0,l),
(45,238,l),
(540,238,l),
(539,0,l),
(549,0,l),
(551,427,ls),
(551,603,o),
(456,710,o),
(298,710,c),
(288,710,ls),
(130,710,o),
(35,603,o),
(35,427,cs),
(35,0,l)
);
},
{
closed = 1;
nodes = (
(45,426,ls),
(45,596,o),
(136,700,o),
(288,700,c),
(298,700,ls),
(451,700,o),
(542,596,o),
(541,426,cs),
(540,248,l),
(45,248,l)
);
}
);
userData = {
com.hugojourdan.ColorFlow = {
"0" = 0;
"1" = 0;
"10" = 0;
"11" = 0;
"2" = 0;
"3" = 0;
"4" = 0;
"5" = 0;
"6" = 0;
"7" = 0;
"8" = 0;
"9" = 0;
};
};
width = 586;
},
{
layerId = m005;
name = REGULAR;
shapes = (
{
closed = 1;
nodes = (
(184,0,l),
(185,216,l),
(426,216,l),
(426,0,l),
(576,0,l),
(576,427,ls),
(576,595,o),
(466,710,o),
(306,710,cs),
(306,710,ls),
(145,710,o),
(35,595,o),
(35,427,cs),
(35,0,l)
);
},
{
closed = 1;
nodes = (
(186,525,ls),
(186,605,o),
(236,660,o),
(306,660,c),
(306,660,ls),
(376,660,o),
(426,605,o),
(426,525,cs),
(426,266,l),
(185,266,l)
);
}
);
userData = {
com.hugojourdan.ColorFlow = {
"0" = 0;
"1" = 0;
"10" = 0;
"11" = 0;
"2" = 0;
"3" = 0;
"4" = 0;
"5" = 0;
"6" = 0;
"7" = 0;
"8" = 0;
"9" = 0;
};
};
width = 611;
},
{
associatedMasterId = m006;
layerId = "C25D7899-8804-480D-86A2-E6D0CF5D53FD";
name = V2;
shapes = (
{
angle = 180;
pos = (699,700);
ref = V;
},
{
closed = 1;
nodes = (
(56,124,l),
(550,124,l),
(550,308,l),
(99,308,l)
);
}
);
userData = {
com.hugojourdan.ColorFlow = {
"0" = 0;
"1" = 0;
"10" = 0;
"11" = 0;
"2" = 0;
"3" = 0;
"4" = 0;
"5" = 0;
"6" = 0;
"7" = 0;
"8" = 0;
"9" = 0;
};
};
width = 699;
},
{
layerId = m006;
name = "EXTRA-BOLD";
shapes = (
{
closed = 1;
nodes = (
(275,0,l),
(275,216,l),
(397,216,l),
(397,0,l),
(637,0,l),
(637,417,ls),
(637,595,o),
(514,710,o),
(336,710,cs),
(336,710,ls),
(158,710,o),
(35,595,o),
(35,417,cs),
(35,0,l)
);
},
{
closed = 1;
nodes = (
(275,587,ls),
(275,637,o),
(300,660,o),
(336,660,cs),
(336,660,ls),
(372,660,o),
(397,637,o),
(397,587,cs),
(397,266,l),
(275,266,l)
);
}
);
userData = {
com.hugojourdan.ColorFlow = {
"0" = 0;
"1" = 0;
"10" = 0;
"11" = 0;
"2" = 0;
"3" = 0;
"4" = 0;
"5" = 0;
"6" = 0;
"7" = 0;
"8" = 0;
"9" = 0;
};
};
width = 672;
},
{
layerId = m007;
name = THIN;
shapes = (
{
closed = 1;
nodes = (
(55,0,l),
(55,238,l),
(1523,238,l),
(1522,0,l),
(1532,0,l),
(1534,417,ls),
(1535,593,o),
(1439,700,o),
(1281,700,c),
(298,700,ls),
(140,700,o),
(45,593,o),
(45,417,cs),
(45,0,l)
);
},
{
closed = 1;
nodes = (
(55,416,ls),
(55,586,o),
(146,690,o),
(298,690,c),
(1281,690,ls),
(1434,690,o),
(1525,586,o),
(1524,416,cs),
(1523,248,l),
(55,248,l)
);
}
);
userData = {
com.hugojourdan.ColorFlow = {
"0" = 0;
"1" = 0;
"10" = 0;
"11" = 0;
"2" = 0;
"3" = 0;
"4" = 0;
"5" = 0;
"6" = 0;
"7" = 0;
"8" = 0;
"9" = 0;
};
};
width = 1579;
},
{
layerId = m008;
name = REGULAR;
shapes = (
{
closed = 1;
nodes = (
(194,0,l),
(195,173,l),
(1405,173,l),
(1405,0,l),
(1555,0,l),
(1555,417,ls),
(1555,585,o),
(1445,700,o),
(1285,700,cs),
(316,700,ls),
(155,700,o),
(45,585,o),
(45,417,cs),
(45,0,l)
);
},
{
closed = 1;
nodes = (
(196,419,ls),
(197,499,o),
(246,554,o),
(316,554,c),
(1285,554,ls),
(1355,554,o),
(1405,499,o),
(1405,419,cs),
(1405,317,l),
(195,317,l)
);
}
);
userData = {
com.hugojourdan.ColorFlow = {
"0" = 0;
"1" = 0;
"10" = 0;
"11" = 0;
"2" = 0;
"3" = 0;
"4" = 0;
"5" = 0;
"6" = 0;
"7" = 0;
"8" = 0;
"9" = 0;
};
};
width = 1600;
},
{
layerId = m009;
name = "EXTRA-BOLD";
shapes = (
{
closed = 1;
nodes = (
(285,0,l),
(285,134,l),
(1345,134,l),
(1345,0,l),
(1585,0,l),
(1585,407,ls),
(1585,585,o),
(1462,700,o),
(1284,700,cs),
(346,700,ls),
(168,700,o),
(45,585,o),
(45,407,cs),
(45,0,l)
);
},
{
closed = 1;
nodes = (
(285,423,ls),
(285,473,o),
(310,496,o),
(346,496,cs),
(1284,496,ls),
(1320,496,o),
(1345,473,o),
(1345,423,cs),
(1345,338,l),
(285,338,l)
);
}
);
userData = {
com.hugojourdan.ColorFlow = {
"0" = 0;
"1" = 0;
"10" = 0;
"11" = 0;
"2" = 0;
"3" = 0;
"4" = 0;
"5" = 0;
"6" = 0;
"7" = 0;
"8" = 0;
"9" = 0;
};
};
width = 1630;
},
{
layerId = m011;
name = REGULAR;
shapes = (
{
closed = 1;
nodes = (
(184,0,l),
(185,216,l),
(1395,216,l),
(1395,0,l),
(1545,0,l),
(1545,457,ls),
(1545,625,o),
(1435,710,o),
(1275,710,cs),
(306,710,ls),
(145,710,o),
(35,625,o),
(35,457,cs),
(35,0,l)
);
},
{
closed = 1;
nodes = (
(186,525,ls),
(186,605,o),
(236,660,o),
(306,660,c),
(1275,660,ls),
(1345,660,o),
(1395,605,o),
(1395,525,cs),
(1395,266,l),
(185,266,l)
);
}
);
userData = {
com.hugojourdan.ColorFlow = {
"0" = 0;
"1" = 0;
"10" = 0;
"11" = 0;
"2" = 0;
"3" = 0;
"4" = 0;
"5" = 0;
"6" = 0;
"7" = 0;
"8" = 0;
"9" = 0;
};
};
width = 1580;
},
{
layerId = m012;
name = "EXTRA-BOLD";
shapes = (
{
closed = 1;
nodes = (
(275,0,l),
(275,216,l),
(1335,216,l),
(1335,0,l),
(1575,0,l),
(1575,427,ls),
(1575,605,o),
(1452,700,o),
(1274,700,cs),
(336,700,ls),
(158,700,o),
(35,605,o),
(35,427,cs),
(35,0,l)
);
},
{
closed = 1;
nodes = (
(275,577,ls),
(275,627,o),
(300,650,o),
(336,650,cs),
(1274,650,ls),
(1310,650,o),
(1335,627,o),
(1335,577,cs),
(1335,266,l),
(275,266,l)
);
}
);
userData = {
com.hugojourdan.ColorFlow = {
"0" = 0;
"1" = 0;
"10" = 0;
"11" = 0;
"2" = 0;
"3" = 0;
"4" = 0;
"5" = 0;
"6" = 0;
"7" = 0;
"8" = 0;
"9" = 0;
};
};
width = 1610;
},
{
layerId = "1A3F9239-4760-4FF7-8D33-C20C038CC734";
name = THIN;
shapes = (
{
closed = 1;
nodes = (
(55,0,l),
(55,238,l),
(1523,238,l),
(1522,0,l),
(1532,0,l),
(1534,417,ls),
(1535,593,o),
(1439,700,o),
(1281,700,c),
(298,700,ls),
(140,700,o),
(45,593,o),
(45,417,cs),
(45,0,l)
);
},
{
closed = 1;
nodes = (
(55,416,ls),
(55,586,o),
(146,690,o),
(298,690,c),
(1281,690,ls),
(1434,690,o),
(1525,586,o),
(1524,416,cs),
(1523,248,l),
(55,248,l)
);
}
);
userData = {
com.hugojourdan.ColorFlow = {
"0" = 0;
"1" = 0;
"10" = 0;
"11" = 0;
"2" = 0;
"3" = 0;
"4" = 0;
"5" = 0;
"6" = 0;
"7" = 0;
"8" = 0;
"9" = 0;
};
};
width = 1579;
}
);
unicode = 65;
},
{
glyphname = B;
kernLeft = H;
kernRight = B;
lastChange = "2026-02-21 00:36:25 +0000";
layers = (
{
layerId = "53F0F7F5-7E63-41B5-8940-5CAB53A0CB52";
shapes = (
{
closed = 1;
nodes = (
(335,0,ls),
(485,0,o),
(554,70,o),
(554,176,cs),
(554,269,o),
(500,341,o),
(412,350,c),
(500,361,o),
(544,434,o),
(544,524,cs),
(544,630,o),
(465,700,o),
(325,700,cs),
(50,700,l),
(50,0,l)
);
},
{
closed = 1;
nodes = (
(60,345,l),
(365,345,ls),
(485,345,o),
(544,275,o),
(544,176,cs),
(544,76,o),
(479,10,o),
(335,10,cs),
(60,10,l)
);
},
{
closed = 1;
nodes = (
(60,690,l),
(325,690,ls),
(459,690,o),
(534,624,o),
(534,524,cs),
(534,425,o),
(485,355,o),
(365,355,cs),
(60,355,l)
);
}
);
userData = {
com.hugojourdan.ColorFlow = {
"0" = 0;
"1" = 0;
"10" = 0;
"11" = 0;
"2" = 0;
"3" = 0;
"4" = 0;
"5" = 0;
"6" = 0;
"7" = 0;
"8" = 0;
"9" = 0;
};
};
width = 584;
},
{
layerId = "EC5FEA86-72D2-42C8-BC19-2BD75AB225BC";
name = REGULAR;
shapes = (
{
closed = 1;
nodes = (
(365,0,ls),
(514,0,o),
(604,72,o),
(604,191,cs),
(604,257,o),
(585,315,o),
(522,350,c),
(582,388,o),
(600,443,o),
(600,509,cs),
(600,628,o),
(510,700,o),
(361,700,cs),
(50,700,l),
(50,0,l)
);
},
{
closed = 1;
nodes = (
(200,278,l),
(375,278,ls),
(419,278,o),
(454,257,o),
(454,211,cs),
(454,165,o),
(419,144,o),
(375,144,cs),
(200,144,l)
);
},
{
closed = 1;
nodes = (
(200,556,l),
(371,556,ls),
(415,556,o),
(450,535,o),
(450,489,cs),
(450,443,o),
(415,422,o),
(371,422,cs),
(200,422,l)
);
}
);
userData = {
com.hugojourdan.ColorFlow = {
"0" = 0;
"1" = 0;
"10" = 0;
"11" = 0;
"2" = 0;
"3" = 0;
"4" = 0;
"5" = 0;
"6" = 0;
"7" = 0;
"8" = 0;
"9" = 0;
};
};
width = 619;
},
{
layerId = m003;
name = REGULAR;
shapes = (
{
closed = 1;
nodes = (
(440,0,ls),
(579,0,o),
(679,72,o),
(679,201,cs),
(679,257,o),
(660,315,o),
(597,350,c),
(660,385,o),
(675,443,o),
(675,499,cs),
(675,628,o),
(575,700,o),
(436,700,cs),
(50,700,l),
(50,0,l)
);
},
{
closed = 1;
nodes = (
(290,269,l),
(404,269,ls),
(428,269,o),
(439,253,o),
(439,237,cs),
(439,221,o),
(428,204,o),
(404,204,cs),
(290,204,l)
);
},
{
closed = 1;
nodes = (
(290,496,l),
(400,496,ls),
(424,496,o),
(435,480,o),
(435,464,cs),
(435,448,o),
(424,431,o),
(400,431,cs),
(290,431,l)
);
}
);
userData = {
com.hugojourdan.ColorFlow = {
"0" = 0;
"1" = 0;
"10" = 0;
"11" = 0;
"2" = 0;
"3" = 0;
"4" = 0;
"5" = 0;
"6" = 0;
"7" = 0;
"8" = 0;
"9" = 0;
};
};
width = 694;
},
{
layerId = m004;
shapes = (
{
closed = 1;
nodes = (
(335,0,ls),
(485,0,o),
(554,70,o),
(554,176,cs),
(554,269,o),
(500,341,o),
(412,350,c),
(500,361,o),
(544,434,o),
(544,524,cs),
(544,630,o),
(465,700,o),
(325,700,cs),
(50,700,l),
(50,0,l)
);
},
{
closed = 1;
nodes = (
(60,345,l),
(365,345,ls),
(485,345,o),
(544,275,o),
(544,176,cs),
(544,76,o),
(479,10,o),
(335,10,cs),
(60,10,l)
);
},
{
closed = 1;
nodes = (
(60,690,l),
(325,690,ls),
(459,690,o),
(534,624,o),
(534,524,cs),
(534,425,o),
(485,355,o),
(365,355,cs),
(60,355,l)
);
}
);
userData = {
com.hugojourdan.ColorFlow = {
"0" = 0;
"1" = 0;
"10" = 0;
"11" = 0;
"2" = 0;
"3" = 0;
"4" = 0;
"5" = 0;
"6" = 0;
"7" = 0;
"8" = 0;
"9" = 0;
};
};
width = 584;
},
{
layerId = m005;
name = REGULAR;
shapes = (
{
closed = 1;
nodes = (
(365,0,ls),
(514,0,o),
(604,72,o),
(604,191,cs),
(604,257,o),
(585,315,o),
(522,350,c),
(582,388,o),
(600,443,o),
(600,509,cs),
(600,628,o),
(510,700,o),
(361,700,cs),
(50,700,l),
(50,0,l)
);
},
{
closed = 1;
nodes = (
(200,325,l),
(325,325,ls),
(389,325,o),
(454,303,o),
(454,188,cs),
(454,73,o),
(389,50,o),
(325,50,cs),
(200,50,l)
);
},
{
closed = 1;
nodes = (
(200,650,l),
(321,650,ls),
(385,650,o),
(450,627,o),
(450,512,cs),
(450,397,o),
(385,375,o),
(321,375,cs),
(200,375,l)
);
}
);
userData = {
com.hugojourdan.ColorFlow = {
"0" = 0;
"1" = 0;
"10" = 0;
"11" = 0;
"2" = 0;
"3" = 0;
"4" = 0;
"5" = 0;
"6" = 0;
"7" = 0;
"8" = 0;
"9" = 0;
};
};
width = 619;
},
{
layerId = m006;
name = REGULAR;
shapes = (
{
closed = 1;
nodes = (
(440,0,ls),
(579,0,o),
(679,72,o),
(679,201,cs),
(679,257,o),
(660,315,o),
(557,350,c),
(660,385,o),
(675,443,o),
(675,499,cs),
(675,628,o),
(575,700,o),
(436,700,cs),
(50,700,l),
(50,0,l)
);
},
{
closed = 1;
nodes = (
(290,325,l),
(340,325,ls),
(384,325,o),
(439,303,o),
(439,188,cs),
(439,73,o),
(384,50,o),
(340,50,cs),
(290,50,l)
);
},
{
closed = 1;
nodes = (
(290,650,l),
(340,650,ls),
(384,650,o),
(435,627,o),
(435,512,cs),
(435,397,o),
(384,375,o),
(340,375,cs),
(290,375,l)
);
}
);
userData = {
com.hugojourdan.ColorFlow = {
"0" = 0;
"1" = 0;
"10" = 0;
"11" = 0;
"2" = 0;
"3" = 0;
"4" = 0;
"5" = 0;
"6" = 0;
"7" = 0;
"8" = 0;
"9" = 0;
};
};
width = 694;
},
{
layerId = m007;
shapes = (
{
closed = 1;
nodes = (
(1341,0,ls),
(1491,0,o),
(1560,70,o),
(1560,176,cs),
(1560,269,o),
(1506,341,o),
(1418,350,c),
(1506,361,o),
(1550,434,o),
(1550,524,cs),
(1550,630,o),
(1471,700,o),
(1331,700,cs),
(50,700,l),
(50,0,l)
);
},
{
closed = 1;
nodes = (
(60,345,l),
(1371,345,ls),
(1491,345,o),
(1550,275,o),
(1550,176,cs),
(1550,76,o),
(1485,10,o),
(1341,10,cs),
(60,10,l)
);
},
{
closed = 1;
nodes = (
(60,690,l),
(1331,690,ls),
(1465,690,o),
(1540,624,o),
(1540,524,cs),
(1540,425,o),
(1491,355,o),
(1371,355,cs),
(60,355,l)
);
}
);
userData = {
com.hugojourdan.ColorFlow = {
"0" = 0;
"1" = 0;
"10" = 0;
"11" = 0;
"2" = 0;
"3" = 0;
"4" = 0;
"5" = 0;
"6" = 0;
"7" = 0;
"8" = 0;
"9" = 0;
};
};
width = 1630;
},
{
layerId = m008;
name = REGULAR;
shapes = (
{
closed = 1;
nodes = (
(1446,0,ls),
(1595,0,o),
(1685,72,o),
(1685,191,cs),
(1685,257,o),
(1666,315,o),
(1603,350,c),
(1663,388,o),
(1681,443,o),
(1681,509,cs),
(1681,628,o),
(1591,700,o),
(1442,700,cs),
(50,700,l),
(50,0,l)
);
},
{
closed = 1;
nodes = (
(200,278,l),
(1456,278,ls),
(1500,278,o),
(1535,257,o),
(1535,211,cs),
(1535,165,o),
(1500,144,o),
(1456,144,cs),
(200,144,l)
);
},
{
closed = 1;
nodes = (
(200,556,l),
(1452,556,ls),
(1496,556,o),
(1531,535,o),
(1531,489,cs),
(1531,443,o),
(1496,422,o),
(1452,422,cs),
(200,422,l)
);
}
);
userData = {
com.hugojourdan.ColorFlow = {
"0" = 0;
"1" = 0;
"10" = 0;
"11" = 0;
"2" = 0;
"3" = 0;
"4" = 0;
"5" = 0;
"6" = 0;
"7" = 0;
"8" = 0;
"9" = 0;
};
};
width = 1720;
},
{
layerId = m009;
name = REGULAR;
shapes = (
{
closed = 1;
nodes = (
(1361,0,ls),
(1500,0,o),
(1600,72,o),
(1600,201,cs),
(1600,257,o),
(1581,315,o),
(1518,350,c),
(1581,385,o),
(1596,443,o),
(1596,499,cs),
(1596,628,o),
(1496,700,o),
(1357,700,cs),
(50,700,l),
(50,0,l)
);
},
{
closed = 1;
nodes = (
(290,269,l),
(1325,269,ls),
(1349,269,o),
(1360,253,o),
(1360,237,cs),
(1360,221,o),
(1349,204,o),
(1325,204,cs),
(290,204,l)
);
},
{
closed = 1;
nodes = (
(290,496,l),
(1321,496,ls),
(1345,496,o),
(1356,480,o),
(1356,464,cs),
(1356,448,o),
(1345,431,o),
(1321,431,cs),
(290,431,l)
);
}
);
userData = {
com.hugojourdan.ColorFlow = {
"0" = 0;
"1" = 0;
"10" = 0;
"11" = 0;
"2" = 0;
"3" = 0;
"4" = 0;
"5" = 0;
"6" = 0;
"7" = 0;
"8" = 0;
"9" = 0;
};
};
width = 1630;
},
{
layerId = m011;
name = REGULAR;
shapes = (
{
closed = 1;
nodes = (
(1445,0,ls),
(1594,0,o),
(1684,72,o),
(1684,191,cs),
(1684,257,o),
(1665,315,o),
(1602,350,c),
(1662,388,o),
(1680,443,o),
(1680,509,cs),
(1680,628,o),
(1590,700,o),
(1441,700,cs),
(50,700,l),
(50,0,l)
);
},
{
closed = 1;
nodes = (
(200,325,l),
(1365,325,ls),
(1456,325,o),
(1534,303,o),
(1534,188,cs),
(1534,73,o),
(1456,50,o),
(1365,50,cs),
(200,50,l)
);
},
{
closed = 1;
nodes = (
(200,650,l),
(1361,650,ls),
(1452,650,o),
(1530,627,o),
(1530,512,cs),
(1530,397,o),
(1452,375,o),
(1361,375,cs),
(200,375,l)
);
}
);
userData = {
com.hugojourdan.ColorFlow = {
"0" = 0;
"1" = 0;
"10" = 0;
"11" = 0;
"2" = 0;
"3" = 0;
"4" = 0;
"5" = 0;
"6" = 0;
"7" = 0;
"8" = 0;
"9" = 0;
};
};
width = 1719;
},
{
layerId = m012;
name = REGULAR;
shapes = (
{
closed = 1;
nodes = (
(1446,0,ls),
(1585,0,o),
(1685,72,o),
(1685,181,cs),
(1685,257,o),
(1666,315,o),
(1563,350,c),
(1666,385,o),
(1681,443,o),
(1681,519,cs),
(1681,628,o),
(1581,700,o),
(1442,700,cs),
(50,700,l),
(50,0,l)
);
},
{
closed = 1;
nodes = (
(290,325,l),
(1296,325,ls),
(1388,325,o),
(1445,272,o),
(1445,188,cs),
(1445,103,o),
(1388,50,o),
(1296,50,cs),
(290,50,l)
);
},
{
closed = 1;
nodes = (
(290,650,l),
(1296,650,ls),
(1385,650,o),
(1441,597,o),
(1441,512,cs),
(1441,428,o),
(1385,375,o),
(1296,375,cs),
(290,375,l)
);
}
);
userData = {
com.hugojourdan.ColorFlow = {
"0" = 0;
"1" = 0;
"10" = 0;
"11" = 0;
"2" = 0;
"3" = 0;
"4" = 0;
"5" = 0;
"6" = 0;
"7" = 0;
"8" = 0;
"9" = 0;
};
};
width = 1705;
},
{
layerId = "1A3F9239-4760-4FF7-8D33-C20C038CC734";
shapes = (
{
closed = 1;
nodes = (
(1341,0,ls),
(1491,0,o),
(1560,70,o),
(1560,176,cs),
(1560,269,o),
(1506,341,o),
(1418,350,c),
(1506,361,o),
(1550,434,o),
(1550,524,cs),
(1550,630,o),
(1471,700,o),
(1331,700,cs),
(50,700,l),
(50,0,l)
);
},
{
closed = 1;
nodes = (
(60,345,l),
(1371,345,ls),
(1491,345,o),
(1550,275,o),
(1550,176,cs),
(1550,76,o),
(1485,10,o),
(1341,10,cs),
(60,10,l)
);
},
{
closed = 1;
nodes = (
(60,690,l),
(1331,690,ls),
(1465,690,o),
(1540,624,o),
(1540,524,cs),
(1540,425,o),
(1491,355,o),
(1371,355,cs),
(60,355,l)
);
}
);
userData = {
com.hugojourdan.ColorFlow = {
"0" = 0;
"1" = 0;
"10" = 0;
"11" = 0;
"2" = 0;
"3" = 0;
"4" = 0;
"5" = 0;
"6" = 0;
"7" = 0;
"8" = 0;
"9" = 0;
};
};
width = 1630;
},
{
associatedMasterId = "EC5FEA86-72D2-42C8-BC19-2BD75AB225BC";
layerId = "75F534E8-9356-4A9D-A607-2D842EEE1457";
name = B.ss01;
shapes = (
{
closed = 1;
nodes = (
(371,556,ls),
(415,556,o),
(450,535,o),
(450,489,cs),
(450,443,o),
(415,422,o),
(371,422,cs),
(50,422,l),
(50,278,l),
(375,278,ls),
(419,278,o),
(454,257,o),
(454,211,cs),
(454,165,o),
(419,144,o),
(375,144,cs),
(50,144,l),
(50,0,l),
(365,0,ls),
(514,0,o),
(604,72,o),
(604,191,cs),
(604,257,o),
(585,315,o),
(522,350,c),
(582,388,o),
(600,443,o),
(600,509,cs),
(600,628,o),
(510,700,o),
(361,700,cs),
(50,700,l),
(50,556,l)
);
}
);
userData = {
com.hugojourdan.ColorFlow = {
"0" = 0;
"1" = 0;
"10" = 0;
"11" = 0;
"2" = 0;
"3" = 0;
"4" = 0;
"5" = 0;
"6" = 0;
"7" = 0;
"8" = 0;
"9" = 0;
};
};
width = 619;
}
);
metricLeft = H;
unicode = 66;
},
{
glyphname = C;
kernLeft = O;
kernRight = C;
lastChange = "2026-02-21 02:13:28 +0000";
layers = (
{
layerId = "53F0F7F5-7E63-41B5-8940-5CAB53A0CB52";
name = Thin;
shapes = (
{
closed = 1;
nodes = (
(163,690,o),
(30,547,o),
(30,350,cs),
(30,153,o),
(163,10,o),
(370,10,cs),
(512,10,l),
(512,0,l),
(370,0,ls),
(157,0,o),
(20,147,o),
(20,350,cs),
(20,553,o),
(157,700,o),
(370,700,cs),
(512,700,l),
(512,690,l),
(370,690,l)
);
}
);
userData = {
com.hugojourdan.ColorFlow = {
"0" = 0;
"1" = 0;
"10" = 0;
"11" = 0;
"2" = 0;
"3" = 0;
"4" = 0;
"5" = 0;
"6" = 0;
"7" = 0;
"8" = 0;
"9" = 0;
};
};
width = 542;
},
{
layerId = "EC5FEA86-72D2-42C8-BC19-2BD75AB225BC";
name = Bold_CONDENSED;
shapes = (
{
closed = 1;
nodes = (
(253,556,o),
(170,472,o),
(170,350,cs),
(170,228,o),
(253,144,o),
(372,144,cs),
(531,144,l),
(531,0,l),
(370,0,ls),
(162,0,o),
(20,143,o),
(20,350,cs),
(20,557,o),
(162,700,o),
(370,700,cs),
(531,700,l),
(531,556,l),
(372,556,l)
);
}
);
userData = {
com.hugojourdan.ColorFlow = {
"0" = 0;
"1" = 0;
"10" = 0;
"11" = 0;
"2" = 0;
"3" = 0;
"4" = 0;
"5" = 0;
"6" = 0;
"7" = 0;
"8" = 0;
"9" = 0;
};
};
width = 561;
},
{
associatedMasterId = "EC5FEA86-72D2-42C8-BC19-2BD75AB225BC";
layerId = "FA376623-C37A-439C-B884-4A4FF4A6C030";
name = C.ss01;
shapes = (
{
closed = 1;
nodes = (
(40,170,ls),
(40,60,o),
(100,0,o),
(210,0,cs),
(552,0,l),
(552,144,l),
(190,144,l),
(190,556,l),
(552,556,l),
(552,700,l),
(210,700,ls),
(100,700,o),
(40,640,o),
(40,530,cs)
);
}
);
width = 592;
},
{
associatedMasterId = "EC5FEA86-72D2-42C8-BC19-2BD75AB225BC";
layerId = "E47CA471-7746-4738-943A-B79E23B787DA";
name = C.ss02;
shapes = (
{
closed = 1;
nodes = (
(249,556,o),
(167,472,o),
(167,350,cs),
(167,228,o),
(249,144,o),
(368,144,cs),
(547,144,l),
(547,0,l),
(15,0,l),
(15,350,l),
(15,700,l),
(547,700,l),
(547,556,l),
(368,556,l)
);
}
);
width = 562;
},
{
associatedMasterId = "EC5FEA86-72D2-42C8-BC19-2BD75AB225BC";
layerId = "7C06BE58-7EEC-44D5-89C8-D93A540212D5";
name = C.ss06;
shapes = (
{
closed = 1;
nodes = (
(424,255,o),
(467,297,o),
(467,350,cs),
(467,402,o),
(424,445,o),
(372,445,cs),
(319,445,o),
(277,402,o),
(277,350,cs),
(277,297,o),
(319,255,o),
(372,255,cs)
);
},
{
closed = 1;
nodes = (
(244,556,o),
(162,472,o),
(162,350,cs),
(162,228,o),
(244,144,o),
(363,144,cs),
(522,144,l),
(522,0,l),
(361,0,ls),
(153,0,o),
(10,143,o),
(10,350,cs),
(10,557,o),
(153,700,o),
(361,700,cs),
(522,700,l),
(522,556,l),
(363,556,l)
);
}
);
width = 664;
},
{
associatedMasterId = "EC5FEA86-72D2-42C8-BC19-2BD75AB225BC";
layerId = "C0B5FF34-2341-4A0C-B12F-F61CCB2E13F9";
name = C.ss04;
shapes = (
{
closed = 1;
nodes = (
(277,255,l),
(467,255,l),
(467,445,l),
(277,445,l)
);
},
{
closed = 1;
nodes = (
(244,556,o),
(162,472,o),
(162,350,cs),
(162,228,o),
(244,144,o),
(363,144,cs),
(522,144,l),
(522,0,l),
(361,0,ls),
(153,0,o),
(10,143,o),
(10,350,cs),
(10,557,o),
(153,700,o),
(361,700,cs),
(522,700,l),
(522,556,l),
(363,556,l)
);
}
);
width = 664;
},
{
associatedMasterId = "EC5FEA86-72D2-42C8-BC19-2BD75AB225BC";
layerId = "AD0A882F-5C94-44A4-8120-B84C20D8EC5B";
name = C.ss05;
shapes = (
{
closed = 1;
nodes = (
(247,260,l),
(497,260,l),
(372,483,l)
);
},
{
closed = 1;
nodes = (
(244,556,o),
(162,472,o),
(162,350,cs),
(162,228,o),
(244,144,o),
(363,144,cs),
(522,144,l),
(522,0,l),
(361,0,ls),
(153,0,o),
(10,143,o),
(10,350,cs),
(10,557,o),
(153,700,o),
(361,700,cs),
(522,700,l),
(522,556,l),
(363,556,l)
);
}
);
width = 664;
},
{
layerId = m003;
name = "EXTRA-BOLD";
shapes = (
{
closed = 1;
nodes = (
(316,496,o),
(262,431,o),
(262,350,cs),
(262,269,o),
(316,204,o),
(414,204,cs),
(562,204,l),
(562,0,l),
(371,0,ls),
(164,0,o),
(20,143,o),
(20,350,cs),
(20,557,o),
(164,700,o),
(371,700,cs),
(562,700,l),
(562,496,l),
(414,496,ls)
);
}
);
userData = {
com.hugojourdan.ColorFlow = {
"0" = 0;
"1" = 0;
"10" = 0;
"11" = 0;
"2" = 0;
"3" = 0;
"4" = 0;
"5" = 0;
"6" = 0;
"7" = 0;
"8" = 0;
"9" = 0;
};
};
width = 592;
},
{
layerId = m004;
name = Thin;
shapes = (
{
closed = 1;
nodes = (
(163,690,o),
(30,547,o),
(30,350,cs),
(30,153,o),
(163,10,o),
(370,10,cs),
(512,10,l),
(512,0,l),
(370,0,ls),
(157,0,o),
(20,147,o),
(20,350,cs),
(20,553,o),
(157,700,o),
(370,700,cs),
(512,700,l),
(512,690,l),
(370,690,l)
);
}
);
userData = {
com.hugojourdan.ColorFlow = {
"0" = 0;
"1" = 0;
"10" = 0;
"11" = 0;
"2" = 0;
"3" = 0;
"4" = 0;
"5" = 0;
"6" = 0;
"7" = 0;
"8" = 0;
"9" = 0;
};
};
width = 542;
},
{
associatedMasterId = m004;
layerId = "9D61801D-89A0-4F50-9AAE-183FAE72463A";
name = SAME_PROP;
shapes = (
{
closed = 1;
nodes = (
(153,690,o),
(20,547,o),
(20,350,cs),
(20,153,o),
(153,10,o),
(360,10,cs),
(526,10,l),
(526,0,l),
(360,0,ls),
(147,0,o),
(10,147,o),
(10,350,cs),
(10,553,o),
(147,700,o),
(360,700,cs),
(526,700,l),
(526,690,l),
(360,690,l)
);
}
);
width = 560;
},
{
layerId = m005;
name = Bold_CONDENSED;
shapes = (
{
closed = 1;
nodes = (
(271,660,o),
(170,557,o),
(170,350,cs),
(170,143,o),
(271,40,o),
(402,40,cs),
(531,40,l),
(531,0,l),
(370,0,ls),
(162,0,o),
(20,143,o),
(20,350,cs),
(20,557,o),
(162,700,o),
(370,700,cs),
(531,700,l),
(531,660,l),
(402,660,l)
);
}
);
userData = {
com.hugojourdan.ColorFlow = {
"0" = 0;
"1" = 0;
"10" = 0;
"11" = 0;
"2" = 0;
"3" = 0;
"4" = 0;
"5" = 0;
"6" = 0;
"7" = 0;
"8" = 0;
"9" = 0;
};
};
width = 561;
},
{
layerId = m006;
name = "EXTRA-BOLD CONTRAST";
shapes = (
{
closed = 1;
nodes = (
(358,650,o),
(262,557,o),
(262,350,cs),
(262,143,o),
(358,50,o),
(484,50,cs),
(562,50,l),
(562,0,l),
(371,0,ls),
(164,0,o),
(20,143,o),
(20,350,cs),
(20,557,o),
(164,700,o),
(371,700,cs),
(562,700,l),
(562,650,l),
(484,650,ls)
);
}
);
userData = {
com.hugojourdan.ColorFlow = {
"0" = 0;
"1" = 0;
"10" = 0;
"11" = 0;
"2" = 0;
"3" = 0;
"4" = 0;
"5" = 0;
"6" = 0;
"7" = 0;
"8" = 0;
"9" = 0;
};
};
width = 572;
},
{
layerId = m007;
name = Thin;
shapes = (
{
closed = 1;
nodes = (
(173,690,o),
(40,547,o),
(40,350,cs),
(40,153,o),
(173,10,o),
(380,10,cs),
(1470,10,l),
(1470,0,l),
(380,0,ls),
(167,0,o),
(30,147,o),
(30,350,cs),
(30,553,o),
(167,700,o),
(380,700,cs),
(1470,700,l),
(1470,690,l),
(380,690,l)
);
}
);
userData = {
com.hugojourdan.ColorFlow = {
"0" = 0;
"1" = 0;
"10" = 0;
"11" = 0;
"2" = 0;
"3" = 0;
"4" = 0;
"5" = 0;
"6" = 0;
"7" = 0;
"8" = 0;
"9" = 0;
};
};
width = 1500;
},
{
layerId = m008;
name = Bold_CONDENSED;
shapes = (
{
closed = 1;
nodes = (
(263,556,o),
(180,472,o),
(180,350,cs),
(180,228,o),
(263,144,o),
(382,144,cs),
(1490,144,l),
(1490,0,l),
(380,0,ls),
(172,0,o),
(30,143,o),
(30,350,cs),
(30,557,o),
(172,700,o),
(380,700,cs),
(1490,700,l),
(1490,556,l),
(382,556,l)
);
}
);
userData = {
com.hugojourdan.ColorFlow = {
"0" = 0;
"1" = 0;
"10" = 0;
"11" = 0;
"2" = 0;
"3" = 0;
"4" = 0;
"5" = 0;
"6" = 0;
"7" = 0;
"8" = 0;
"9" = 0;
};
};
width = 1520;
},
{
layerId = m009;
name = "EXTRA-BOLD";
shapes = (
{
closed = 1;
nodes = (
(326,496,o),
(272,431,o),
(272,350,cs),
(272,269,o),
(326,204,o),
(424,204,cs),
(1580,204,l),
(1580,0,l),
(381,0,ls),
(174,0,o),
(30,143,o),
(30,350,cs),
(30,557,o),
(174,700,o),
(381,700,cs),
(1580,700,l),
(1580,496,l),
(424,496,ls)
);
}
);
userData = {
com.hugojourdan.ColorFlow = {
"0" = 0;
"1" = 0;
"10" = 0;
"11" = 0;
"2" = 0;
"3" = 0;
"4" = 0;
"5" = 0;
"6" = 0;
"7" = 0;
"8" = 0;
"9" = 0;
};
};
width = 1610;
},
{
layerId = m012;
name = "EXTRA-BOLD CONTRAST";
shapes = (
{
closed = 1;
nodes = (
(388,650,o),
(262,534,o),
(262,350,cs),
(262,166,o),
(388,50,o),
(574,50,cs),
(1568,50,l),
(1568,0,l),
(421,0,ls),
(184,0,o),
(20,143,o),
(20,350,cs),
(20,557,o),
(184,700,o),
(421,700,cs),
(1568,700,l),
(1568,650,l),
(574,650,ls)
);
}
);
userData = {
com.hugojourdan.ColorFlow = {
"0" = 0;
"1" = 0;
"10" = 0;
"11" = 0;
"2" = 0;
"3" = 0;
"4" = 0;
"5" = 0;
"6" = 0;
"7" = 0;
"8" = 0;
"9" = 0;
};
};
width = 1588;
},
{
layerId = "1A3F9239-4760-4FF7-8D33-C20C038CC734";
name = Thin;
shapes = (
{
closed = 1;
nodes = (
(173,690,o),
(40,547,o),
(40,350,cs),
(40,153,o),
(173,10,o),
(380,10,cs),
(1470,10,l),
(1470,0,l),
(380,0,ls),
(167,0,o),
(30,147,o),
(30,350,cs),
(30,553,o),
(167,700,o),
(380,700,cs),
(1470,700,l),
(1470,690,l),
(380,690,l)
);
}
);
userData = {
com.hugojourdan.ColorFlow = {
"0" = 0;
"1" = 0;
"10" = 0;
"11" = 0;
"2" = 0;
"3" = 0;
"4" = 0;
"5" = 0;
"6" = 0;
"7" = 0;
"8" = 0;
"9" = 0;
};
};
width = 1500;
},
{
layerId = m011;
name = "REGULAR CONTRAST EXTENDED";
shapes = (
{
closed = 1;
nodes = (
(311,660,o),
(170,567,o),
(170,350,cs),
(170,143,o),
(311,40,o),
(542,40,cs),
(1476,40,l),
(1476,0,l),
(460,0,ls),
(202,0,o),
(20,143,o),
(20,350,cs),
(20,557,o),
(202,700,o),
(460,700,cs),
(1476,700,l),
(1476,660,l),
(542,660,l)
);
}
);
userData = {
com.hugojourdan.ColorFlow = {
"0" = 0;
"1" = 0;
"10" = 0;
"11" = 0;
"2" = 0;
"3" = 0;
"4" = 0;
"5" = 0;
"6" = 0;
"7" = 0;
"8" = 0;
"9" = 0;
};
};
width = 1496;
}
);
metricLeft = O;
unicode = 67;
},
{
glyphname = D;
kernLeft = H;
kernRight = O;
lastChange = "2026-02-21 02:06:10 +0000";
layers = (
{
layerId = "53F0F7F5-7E63-41B5-8940-5CAB53A0CB52";
shapes = (
{
closed = 1;
nodes = (
(230,0,ls),
(433,0,o),
(580,147,o),
(580,350,cs),
(580,553,o),
(433,700,o),
(230,700,cs),
(50,700,l),
(50,0,l)
);
},
{
closed = 1;
nodes = (
(60,690,l),
(230,690,ls),
(427,690,o),
(570,547,o),
(570,350,cs),
(570,153,o),
(427,10,o),
(230,10,cs),
(60,10,l)
);
}
);
userData = {
com.hugojourdan.ColorFlow = {
"0" = 0;
"1" = 0;
"10" = 0;
"11" = 0;
"2" = 0;
"3" = 0;
"4" = 0;
"5" = 0;
"6" = 0;
"7" = 0;
"8" = 0;
"9" = 0;
};
};
width = 600;
},
{
layerId = "EC5FEA86-72D2-42C8-BC19-2BD75AB225BC";
shapes = (
{
closed = 1;
nodes = (
(255,0,ls),
(481,0,o),
(628,138,o),
(628,350,cs),
(628,562,o),
(481,700,o),
(255,700,cs),
(50,700,l),
(50,0,l)
);
},
{
closed = 1;
nodes = (
(200,556,l),
(260,556,ls),
(391,556,o),
(476,475,o),
(476,350,cs),
(476,225,o),
(391,144,o),
(260,144,cs),
(200,144,l)
);
}
);
userData = {
com.hugojourdan.ColorFlow = {
"0" = 0;
"1" = 0;
"10" = 0;
"11" = 0;
"2" = 0;
"3" = 0;
"4" = 0;
"5" = 0;
"6" = 0;
"7" = 0;
"8" = 0;
"9" = 0;
};
};
width = 648;
},
{
associatedMasterId = "EC5FEA86-72D2-42C8-BC19-2BD75AB225BC";
layerId = "82814E12-66EF-4C6C-BF03-949E7F8B0251";
name = D.ss01;
shapes = (
{
closed = 1;
nodes = (
(50,144,l),
(50,0,l),
(255,0,ls),
(481,0,o),
(628,138,o),
(628,350,cs),
(628,562,o),
(481,700,o),
(255,700,cs),
(50,700,l),
(50,276,l),
(200,276,l),
(200,556,l),
(260,556,ls),
(391,556,o),
(476,475,o),
(476,350,cs),
(476,225,o),
(391,144,o),
(260,144,cs),
(200,144,l)
);
}
);
width = 638;
},
{
associatedMasterId = "EC5FEA86-72D2-42C8-BC19-2BD75AB225BC";
layerId = "D676BDC1-CDF2-46FB-ADB5-759DB116A177";
name = D.ss02;
shapes = (
{
closed = 1;
nodes = (
(50,700,l),
(200,700,l),
(200,0,l),
(50,0,l)
);
},
{
closed = 1;
nodes = (
(396,556,o),
(476,475,o),
(476,350,cs),
(476,225,o),
(396,144,o),
(255,144,c),
(255,0,l),
(481,0,o),
(628,138,o),
(628,350,cs),
(628,562,o),
(481,700,o),
(255,700,c),
(255,556,l)
);
}
);
width = 638;
},
{
layerId = m003;
shapes = (
{
closed = 1;
nodes = (
(340,0,ls),
(547,0,o),
(691,143,o),
(691,350,cs),
(691,557,o),
(547,700,o),
(340,700,cs),
(50,700,l),
(50,0,l)
);
},
{
closed = 1;
nodes = (
(290,468,l),
(318,468,ls),
(396,468,o),
(449,421,o),
(449,350,cs),
(449,279,o),
(396,232,o),
(318,232,cs),
(290,232,l)
);
}
);
userData = {
com.hugojourdan.ColorFlow = {
"0" = 0;
"1" = 0;
"10" = 0;
"11" = 0;
"2" = 0;
"3" = 0;
"4" = 0;
"5" = 0;
"6" = 0;
"7" = 0;
"8" = 0;
"9" = 0;
};
};
width = 711;
},
{
layerId = m004;
shapes = (
{
closed = 1;
nodes = (
(230,0,ls),
(433,0,o),
(580,147,o),
(580,350,cs),
(580,553,o),
(433,700,o),
(230,700,cs),
(50,700,l),
(50,0,l)
);
},
{
closed = 1;
nodes = (
(60,690,l),
(230,690,ls),
(427,690,o),
(570,547,o),
(570,350,cs),
(570,153,o),
(427,10,o),
(230,10,cs),
(60,10,l)
);
}
);
userData = {
com.hugojourdan.ColorFlow = {
"0" = 0;
"1" = 0;
"10" = 0;
"11" = 0;
"2" = 0;
"3" = 0;
"4" = 0;
"5" = 0;
"6" = 0;
"7" = 0;
"8" = 0;
"9" = 0;
};
};
width = 600;
},
{
layerId = m005;
shapes = (
{
closed = 1;
nodes = (
(255,0,ls),
(481,0,o),
(628,138,o),
(628,350,cs),
(628,562,o),
(481,700,o),
(255,700,cs),
(50,700,l),
(50,0,l)
);
},
{
closed = 1;
nodes = (
(200,660,l),
(260,660,ls),
(412,660,o),
(476,557,o),
(476,350,cs),
(476,143,o),
(412,40,o),
(260,40,cs),
(200,40,l)
);
}
);
userData = {
com.hugojourdan.ColorFlow = {
"0" = 0;
"1" = 0;
"10" = 0;
"11" = 0;
"2" = 0;
"3" = 0;
"4" = 0;
"5" = 0;
"6" = 0;
"7" = 0;
"8" = 0;
"9" = 0;
};
};
width = 648;
},
{
layerId = m006;
shapes = (
{
closed = 1;
nodes = (
(340,0,ls),
(547,0,o),
(691,143,o),
(691,350,cs),
(691,557,o),
(547,700,o),
(340,700,cs),
(50,700,l),
(50,0,l)
);
},
{
closed = 1;
nodes = (
(290,650,l),
(318,650,ls),
(396,650,o),
(449,600,o),
(449,350,cs),
(449,100,o),
(396,50,o),
(318,50,cs),
(290,50,l)
);
}
);
userData = {
com.hugojourdan.ColorFlow = {
"0" = 0;
"1" = 0;
"10" = 0;
"11" = 0;
"2" = 0;
"3" = 0;
"4" = 0;
"5" = 0;
"6" = 0;
"7" = 0;
"8" = 0;
"9" = 0;
};
};
width = 711;
},
{
layerId = m007;
shapes = (
{
closed = 1;
nodes = (
(1190,0,ls),
(1393,0,o),
(1540,147,o),
(1540,350,cs),
(1540,553,o),
(1393,700,o),
(1190,700,cs),
(50,700,l),
(50,0,l)
);
},
{
closed = 1;
nodes = (
(60,690,l),
(1190,690,ls),
(1387,690,o),
(1530,547,o),
(1530,350,cs),
(1530,153,o),
(1387,10,o),
(1190,10,cs),
(60,10,l)
);
}
);
userData = {
com.hugojourdan.ColorFlow = {
"0" = 0;
"1" = 0;
"10" = 0;
"11" = 0;
"2" = 0;
"3" = 0;
"4" = 0;
"5" = 0;
"6" = 0;
"7" = 0;
"8" = 0;
"9" = 0;
};
};
width = 1570;
},
{
layerId = m008;
shapes = (
{
closed = 1;
nodes = (
(1187,0,ls),
(1413,0,o),
(1560,138,o),
(1560,350,cs),
(1560,562,o),
(1413,700,o),
(1187,700,cs),
(50,700,l),
(50,0,l)
);
},
{
closed = 1;
nodes = (
(200,556,l),
(1192,556,ls),
(1323,556,o),
(1408,475,o),
(1408,350,cs),
(1408,225,o),
(1323,144,o),
(1192,144,cs),
(200,144,l)
);
}
);
userData = {
com.hugojourdan.ColorFlow = {
"0" = 0;
"1" = 0;
"10" = 0;
"11" = 0;
"2" = 0;
"3" = 0;
"4" = 0;
"5" = 0;
"6" = 0;
"7" = 0;
"8" = 0;
"9" = 0;
};
};
width = 1590;
},
{
layerId = m009;
shapes = (
{
closed = 1;
nodes = (
(1249,0,ls),
(1456,0,o),
(1600,143,o),
(1600,350,cs),
(1600,557,o),
(1456,700,o),
(1249,700,cs),
(50,700,l),
(50,0,l)
);
},
{
closed = 1;
nodes = (
(290,488,l),
(1227,488,ls),
(1305,488,o),
(1358,421,o),
(1358,350,cs),
(1358,279,o),
(1305,212,o),
(1227,212,cs),
(290,212,l)
);
}
);
userData = {
com.hugojourdan.ColorFlow = {
"0" = 0;
"1" = 0;
"10" = 0;
"11" = 0;
"2" = 0;
"3" = 0;
"4" = 0;
"5" = 0;
"6" = 0;
"7" = 0;
"8" = 0;
"9" = 0;
};
};
width = 1640;
},
{
layerId = m011;
shapes = (
{
closed = 1;
nodes = (
(1137,0,ls),
(1405,0,o),
(1607,143,o),
(1607,350,cs),
(1607,557,o),
(1405,700,o),
(1137,700,cs),
(50,700,l),
(50,0,l)
);
},
{
closed = 1;
nodes = (
(200,650,l),
(1092,650,ls),
(1307,650,o),
(1458,557,o),
(1458,350,cs),
(1458,143,o),
(1307,50,o),
(1092,50,cs),
(200,50,l)
);
}
);
userData = {
com.hugojourdan.ColorFlow = {
"0" = 0;
"1" = 0;
"10" = 0;
"11" = 0;
"2" = 0;
"3" = 0;
"4" = 0;
"5" = 0;
"6" = 0;
"7" = 0;
"8" = 0;
"9" = 0;
};
};
width = 1627;
},
{
layerId = m012;
shapes = (
{
closed = 1;
nodes = (
(1180,0,ls),
(1427,0,o),
(1601,143,o),
(1601,350,cs),
(1601,557,o),
(1427,700,o),
(1180,700,cs),
(50,700,l),
(50,0,l)
);
},
{
closed = 1;
nodes = (
(290,650,l),
(1088,650,ls),
(1216,650,o),
(1359,600,o),
(1359,350,cs),
(1359,100,o),
(1216,50,o),
(1088,50,cs),
(290,50,l)
);
}
);
userData = {
com.hugojourdan.ColorFlow = {
"0" = 0;
"1" = 0;
"10" = 0;
"11" = 0;
"2" = 0;
"3" = 0;
"4" = 0;
"5" = 0;
"6" = 0;
"7" = 0;
"8" = 0;
"9" = 0;
};
};
width = 1621;
},
{
layerId = "1A3F9239-4760-4FF7-8D33-C20C038CC734";
shapes = (
{
closed = 1;
nodes = (
(1190,0,ls),
(1393,0,o),
(1540,147,o),
(1540,350,cs),
(1540,553,o),
(1393,700,o),
(1190,700,cs),
(50,700,l),
(50,0,l)
);
},
{
closed = 1;
nodes = (
(60,690,l),
(1190,690,ls),
(1387,690,o),
(1530,547,o),
(1530,350,cs),
(1530,153,o),
(1387,10,o),
(1190,10,cs),
(60,10,l)
);
}
);
userData = {
com.hugojourdan.ColorFlow = {
"0" = 0;
"1" = 0;
"10" = 0;
"11" = 0;
"2" = 0;
"3" = 0;
"4" = 0;
"5" = 0;
"6" = 0;
"7" = 0;
"8" = 0;
"9" = 0;
};
};
width = 1570;
},
{
associatedMasterId = "EC5FEA86-72D2-42C8-BC19-2BD75AB225BC";
layerId = "A2ED069D-CA58-4625-B851-33651A5076E1";
name = D.ss03;
shapes = (
{
closed = 1;
nodes = (
(255,700,ls),
(481,700,o),
(628,562,o),
(628,350,cs),
(628,138,o),
(481,0,o),
(255,0,cs),
(50,0,l),
(50,144,l),
(260,144,ls),
(391,144,o),
(476,225,o),
(476,350,cs),
(476,475,o),
(391,556,o),
(260,556,cs),
(50,556,l),
(50,700,l)
);
}
);
width = 648;
}
);
metricLeft = H;
metricRight = O;
unicode = 68;
},
{
glyphname = E;
kernLeft = O;
kernRight = H;
lastChange = "2026-02-21 02:13:32 +0000";
layers = (
{
layerId = "53F0F7F5-7E63-41B5-8940-5CAB53A0CB52";
shapes = (
{
closed = 1;
nodes = (
(20,355,l),
(468,355,l),
(468,345,l),
(20,345,l)
);
},
{
pos = (2,0);
ref = C;
}
);
userData = {
com.hugojourdan.ColorFlow = {
"0" = 0;
"1" = 0;
"10" = 0;
"11" = 0;
"2" = 0;
"3" = 0;
"4" = 0;
"5" = 0;
"6" = 0;
"7" = 0;
"8" = 0;
"9" = 0;
};
};
width = 544;
},
{
layerId = "EC5FEA86-72D2-42C8-BC19-2BD75AB225BC";
shapes = (
{
closed = 1;
nodes = (
(120,422,l),
(501,422,l),
(501,278,l),
(120,278,l)
);
},
{
ref = C;
}
);
userData = {
com.hugojourdan.ColorFlow = {
"0" = 0;
"1" = 0;
"10" = 0;
"11" = 0;
"2" = 0;
"3" = 0;
"4" = 0;
"5" = 0;
"6" = 0;
"7" = 0;
"8" = 0;
"9" = 0;
};
};
width = 561;
},
{
associatedMasterId = "EC5FEA86-72D2-42C8-BC19-2BD75AB225BC";
layerId = "7C60D116-C843-4786-B0ED-AF0FD6405C08";
name = E.ss01;
shapes = (
{
closed = 1;
nodes = (
(40,170,ls),
(40,60,o),
(100,0,o),
(210,0,cs),
(502,0,l),
(502,144,l),
(190,144,l),
(190,278,l),
(490,278,l),
(490,422,l),
(190,422,l),
(190,556,l),
(502,556,l),
(502,700,l),
(210,700,ls),
(100,700,o),
(40,640,o),
(40,530,cs)
);
},
{
closed = 0;
nodes = (
(210,0,l),
(502,0,l),
(502,144,l),
(190,144,l)
);
},
{
closed = 0;
nodes = (
(502,556,l),
(190,556,l)
);
}
);
width = 542;
},
{
associatedMasterId = "EC5FEA86-72D2-42C8-BC19-2BD75AB225BC";
layerId = "AA62EC4F-4278-41DC-8E32-DC39C37F87A9";
name = E.ss02;
shapes = (
{
closed = 1;
nodes = (
(491,0,l),
(491,144,l),
(319,144,ls),
(224,144,o),
(180,179,o),
(180,320,c),
(180,381,ls),
(180,522,o),
(224,557,o),
(319,557,cs),
(491,557,l),
(491,701,l),
(323,701,ls),
(135,701,o),
(30,614,o),
(30,381,cs),
(30,320,l),
(30,87,o),
(135,0,o),
(323,0,cs)
);
},
{
closed = 1;
nodes = (
(480,278,l),
(480,422,l),
(125,422,l),
(125,278,l)
);
}
);
width = 531;
},
{
associatedMasterId = "EC5FEA86-72D2-42C8-BC19-2BD75AB225BC";
layerId = "84682A38-BF53-4D66-AF2B-E28D695B3FB8";
name = E.ss03;
shapes = (
{
closed = 1;
nodes = (
(580,278,l),
(580,422,l),
(50,422,l),
(50,278,l)
);
},
{
closed = 1;
nodes = (
(580,556,l),
(580,700,l),
(50,700,l),
(50,556,l)
);
},
{
closed = 1;
nodes = (
(580,0,l),
(580,144,l),
(50,144,l),
(50,0,l)
);
}
);
width = 630;
},
{
associatedMasterId = "EC5FEA86-72D2-42C8-BC19-2BD75AB225BC";
layerId = "1087102A-F044-4072-9CBC-88CA30B1D3C3";
name = E.ss04;
shapes = (
{
closed = 1;
nodes = (
(40,150,ls),
(40,53,o),
(93,0,o),
(190,0,cs),
(570,0,l),
(570,144,l),
(190,144,l),
(190,278,l),
(570,278,l),
(570,422,l),
(190,422,ls),
(93,422,o),
(40,369,o),
(40,272,cs)
);
},
{
closed = 1;
nodes = (
(570,556,l),
(570,700,l),
(40,700,l),
(40,556,l)
);
}
);
width = 610;
},
{
associatedMasterId = "EC5FEA86-72D2-42C8-BC19-2BD75AB225BC";
layerId = "1DDF6014-B500-4497-AAC3-8C91BE5C7264";
name = E.ss05;
shapes = (
{
closed = 1;
nodes = (
(539,556,l),
(254,556,ls),
(210,556,o),
(175,535,o),
(175,489,cs),
(175,443,o),
(210,422,o),
(254,422,cs),
(527,422,l),
(527,278,l),
(254,278,ls),
(210,278,o),
(175,257,o),
(175,211,cs),
(175,165,o),
(210,144,o),
(254,144,cs),
(539,144,l),
(539,0,l),
(264,0,ls),
(125,0,o),
(25,82,o),
(25,211,cs),
(25,267,o),
(44,315,o),
(107,350,c),
(44,385,o),
(25,433,o),
(25,489,cs),
(25,618,o),
(125,700,o),
(264,700,cs),
(539,700,l)
);
}
);
width = 579;
},
{
associatedMasterId = "EC5FEA86-72D2-42C8-BC19-2BD75AB225BC";
layerId = "1E0FE2A1-8AA3-4DBA-90AC-877E86FCD421";
name = E.ss06;
shapes = (
{
closed = 1;
nodes = (
(546,556,l),
(546,700,l),
(36,700,l),
(36,556,l)
);
},
{
closed = 1;
nodes = (
(547,427,l),
(238,427,ls),
(106,427,o),
(15,340,o),
(15,214,cs),
(15,87,o),
(106,0,o),
(238,0,cs),
(546,0,l),
(546,144,l),
(237,144,ls),
(196,144,o),
(167,173,o),
(167,214,cs),
(167,255,o),
(196,283,o),
(237,283,cs),
(546,283,l)
);
}
);
width = 562;
},
{
layerId = m003;
shapes = (
{
closed = 1;
nodes = (
(191,422,l),
(552,422,l),
(552,278,l),
(191,278,l)
);
},
{
ref = C;
}
);
userData = {
com.hugojourdan.ColorFlow = {
"0" = 0;
"1" = 0;
"10" = 0;
"11" = 0;
"2" = 0;
"3" = 0;
"4" = 0;
"5" = 0;
"6" = 0;
"7" = 0;
"8" = 0;
"9" = 0;
};
};
width = 592;
},
{
layerId = m004;
shapes = (
{
closed = 1;
nodes = (
(28,355,l),
(476,355,l),
(476,345,l),
(28,345,l)
);
},
{
pos = (2,0);
ref = C;
}
);
userData = {
com.hugojourdan.ColorFlow = {
"0" = 0;
"1" = 0;
"10" = 0;
"11" = 0;
"2" = 0;
"3" = 0;
"4" = 0;
"5" = 0;
"6" = 0;
"7" = 0;
"8" = 0;
"9" = 0;
};
};
width = 544;
},
{
layerId = m005;
shapes = (
{
closed = 1;
nodes = (
(120,375,l),
(501,375,l),
(501,325,l),
(120,325,l)
);
},
{
ref = C;
}
);
userData = {
com.hugojourdan.ColorFlow = {
"0" = 0;
"1" = 0;
"10" = 0;
"11" = 0;
"2" = 0;
"3" = 0;
"4" = 0;
"5" = 0;
"6" = 0;
"7" = 0;
"8" = 0;
"9" = 0;
};
};
width = 561;
},
{
layerId = m006;
shapes = (
{
closed = 1;
nodes = (
(191,375,l),
(552,375,l),
(552,325,l),
(191,325,l)
);
},
{
ref = C;
}
);
userData = {
com.hugojourdan.ColorFlow = {
"0" = 0;
"1" = 0;
"10" = 0;
"11" = 0;
"2" = 0;
"3" = 0;
"4" = 0;
"5" = 0;
"6" = 0;
"7" = 0;
"8" = 0;
"9" = 0;
};
};
width = 572;
},
{
layerId = m007;
shapes = (
{
closed = 1;
nodes = (
(38,355,l),
(1470,355,l),
(1470,345,l),
(38,345,l)
);
},
{
pos = (10,0);
ref = C;
}
);
userData = {
com.hugojourdan.ColorFlow = {
"0" = 0;
"1" = 0;
"10" = 0;
"11" = 0;
"2" = 0;
"3" = 0;
"4" = 0;
"5" = 0;
"6" = 0;
"7" = 0;
"8" = 0;
"9" = 0;
};
};
width = 1500;
},
{
layerId = m008;
shapes = (
{
closed = 1;
nodes = (
(130,422,l),
(1490,422,l),
(1490,278,l),
(130,278,l)
);
},
{
pos = (10,0);
ref = C;
}
);
userData = {
com.hugojourdan.ColorFlow = {
"0" = 0;
"1" = 0;
"10" = 0;
"11" = 0;
"2" = 0;
"3" = 0;
"4" = 0;
"5" = 0;
"6" = 0;
"7" = 0;
"8" = 0;
"9" = 0;
};
};
width = 1520;
},
{
layerId = m009;
shapes = (
{
closed = 1;
nodes = (
(191,422,l),
(1500,422,l),
(1500,278,l),
(191,278,l)
);
},
{
ref = C;
}
);
userData = {
com.hugojourdan.ColorFlow = {
"0" = 0;
"1" = 0;
"10" = 0;
"11" = 0;
"2" = 0;
"3" = 0;
"4" = 0;
"5" = 0;
"6" = 0;
"7" = 0;
"8" = 0;
"9" = 0;
};
};
width = 1610;
},
{
layerId = m011;
shapes = (
{
closed = 1;
nodes = (
(106,375,l),
(1465,375,l),
(1465,325,l),
(106,325,l)
);
},
{
ref = C;
}
);
userData = {
com.hugojourdan.ColorFlow = {
"0" = 0;
"1" = 0;
"10" = 0;
"11" = 0;
"2" = 0;
"3" = 0;
"4" = 0;
"5" = 0;
"6" = 0;
"7" = 0;
"8" = 0;
"9" = 0;
};
};
width = 1496;
},
{
layerId = m012;
shapes = (
{
closed = 1;
nodes = (
(171,375,l),
(1526,375,l),
(1526,325,l),
(171,325,l)
);
},
{
ref = C;
}
);
userData = {
com.hugojourdan.ColorFlow = {
"0" = 0;
"1" = 0;
"10" = 0;
"11" = 0;
"2" = 0;
"3" = 0;
"4" = 0;
"5" = 0;
"6" = 0;
"7" = 0;
"8" = 0;
"9" = 0;
};
};
width = 1588;
},
{
layerId = "1A3F9239-4760-4FF7-8D33-C20C038CC734";
shapes = (
{
closed = 1;
nodes = (
(38,355,l),
(1470,355,l),
(1470,345,l),
(38,345,l)
);
},
{
pos = (10,0);
ref = C;
}
);
userData = {
com.hugojourdan.ColorFlow = {
"0" = 0;
"1" = 0;
"10" = 0;
"11" = 0;
"2" = 0;
"3" = 0;
"4" = 0;
"5" = 0;
"6" = 0;
"7" = 0;
"8" = 0;
"9" = 0;
};
};
width = 1500;
}
);
metricLeft = O;
metricRight = C;
unicode = 69;
},
{
glyphname = F;
kernLeft = H;
kernRight = F;
lastChange = "2026-02-21 02:06:33 +0000";
layers = (
{
associatedMasterId = "EC5FEA86-72D2-42C8-BC19-2BD75AB225BC";
layerId = "7C170066-22AE-4A10-8812-A7FC1B6231CE";
name = F.ss01;
shapes = (
{
closed = 1;
nodes = (
(60,0,l),
(210,0,l),
(210,381,ls),
(210,522,o),
(296,557,o),
(391,557,cs),
(511,557,l),
(511,701,l),
(395,701,ls),
(207,701,o),
(60,614,o),
(60,366,c)
);
},
{
closed = 1;
nodes = (
(500,258,l),
(500,402,l),
(155,402,l),
(155,258,l)
);
}
);
width = 521;
},
{
associatedMasterId = "EC5FEA86-72D2-42C8-BC19-2BD75AB225BC";
layerId = "354AEBBF-ED1A-4857-8237-7CA7DA6E39C3";
name = F.ss02;
shapes = (
{
closed = 1;
nodes = (
(60,0,l),
(210,0,l),
(210,381,ls),
(210,522,o),
(254,557,o),
(349,557,cs),
(511,557,l),
(511,701,l),
(353,701,ls),
(165,701,o),
(60,614,o),
(60,381,c)
);
},
{
closed = 1;
nodes = (
(500,258,l),
(500,402,l),
(155,402,l),
(155,258,l)
);
}
);
width = 521;
},
{
associatedMasterId = "EC5FEA86-72D2-42C8-BC19-2BD75AB225BC";
layerId = "CD069E94-0114-416B-B349-D53DE1E7F525";
name = "V1(ANGLE)";
shapes = (
{
closed = 1;
nodes = (
(200,0,l),
(200,258,l),
(490,258,l),
(490,402,l),
(200,402,l),
(200,556,l),
(512,556,l),
(512,700,l),
(220,700,ls),
(110,700,o),
(50,640,o),
(50,530,cs),
(50,0,l)
);
}
);
width = 532;
},
{
layerId = "EC5FEA86-72D2-42C8-BC19-2BD75AB225BC";
name = REGULAR;
shapes = (
{
closed = 1;
nodes = (
(200,0,l),
(200,258,l),
(490,258,l),
(490,402,l),
(200,402,l),
(200,556,ls),
(200,557,o),
(200,556,o),
(200,556,cs),
(512,556,l),
(512,700,l),
(220,700,ls),
(110,700,o),
(50,640,o),
(50,530,cs),
(50,0,l)
);
}
);
userData = {
com.hugojourdan.ColorFlow = {
"0" = 0;
"1" = 0;
"10" = 0;
"11" = 0;
"2" = 0;
"3" = 0;
"4" = 0;
"5" = 0;
"6" = 0;
"7" = 0;
"8" = 0;
"9" = 0;
};
};
width = 542;
},
{
associatedMasterId = "53F0F7F5-7E63-41B5-8940-5CAB53A0CB52";
layerId = "3B4A2950-6C9A-4452-A555-91E818A793B8";
name = "8 Jan 25 at 21:51";
shapes = (
{
closed = 1;
nodes = (
(490,325,l),
(490,335,l),
(60,335,l),
(60,325,l)
);
},
{
closed = 1;
nodes = (
(60,0,l),
(60,690,l),
(512,690,l),
(512,700,l),
(63,700,ls),
(53,700,o),
(50,696,o),
(50,687,cs),
(50,0,l)
);
}
);
width = 532;
},
{
layerId = "53F0F7F5-7E63-41B5-8940-5CAB53A0CB52";
name = Thin;
shapes = (
{
closed = 1;
nodes = (
(60,0,l),
(60,325,l),
(450,325,l),
(450,335,l),
(60,335,l),
(60,526,ls),
(60,636,o),
(114,690,o),
(224,690,cs),
(472,690,l),
(472,700,l),
(220,700,ls),
(110,700,o),
(50,640,o),
(50,530,cs),
(50,0,l)
);
}
);
userData = {
com.hugojourdan.ColorFlow = {
"0" = 0;
"1" = 0;
"10" = 0;
"11" = 0;
"2" = 0;
"3" = 0;
"4" = 0;
"5" = 0;
"6" = 0;
"7" = 0;
"8" = 0;
"9" = 0;
};
};
width = 502;
},
{
layerId = m003;
name = REGULAR;
shapes = (
{
closed = 1;
nodes = (
(290,0,l),
(290,198,l),
(542,198,l),
(542,402,l),
(290,402,l),
(290,496,ls),
(290,496,o),
(290,496,o),
(290,496,cs),
(552,496,l),
(552,700,l),
(230,700,ls),
(110,700,o),
(50,640,o),
(50,520,cs),
(50,0,l)
);
}
);
userData = {
com.hugojourdan.ColorFlow = {
"0" = 0;
"1" = 0;
"10" = 0;
"11" = 0;
"2" = 0;
"3" = 0;
"4" = 0;
"5" = 0;
"6" = 0;
"7" = 0;
"8" = 0;
"9" = 0;
};
};
width = 582;
},
{
associatedMasterId = m004;
layerId = "88052FF1-101C-45C5-9002-1F528A659856";
name = "8 Jan 25 at 21:51";
shapes = (
{
closed = 1;
nodes = (
(490,325,l),
(490,335,l),
(60,335,l),
(60,325,l)
);
},
{
closed = 1;
nodes = (
(60,0,l),
(60,690,l),
(512,690,l),
(512,700,l),
(63,700,ls),
(53,700,o),
(50,696,o),
(50,687,cs),
(50,0,l)
);
}
);
width = 532;
},
{
layerId = m004;
name = Thin;
shapes = (
{
closed = 1;
nodes = (
(60,0,l),
(60,325,l),
(450,325,l),
(450,335,l),
(60,335,l),
(60,526,ls),
(60,636,o),
(114,690,o),
(224,690,cs),
(472,690,l),
(472,700,l),
(220,700,ls),
(110,700,o),
(50,640,o),
(50,530,cs),
(50,0,l)
);
}
);
userData = {
com.hugojourdan.ColorFlow = {
"0" = 0;
"1" = 0;
"10" = 0;
"11" = 0;
"2" = 0;
"3" = 0;
"4" = 0;
"5" = 0;
"6" = 0;
"7" = 0;
"8" = 0;
"9" = 0;
};
};
width = 502;
},
{
layerId = m005;
name = REGULAR;
shapes = (
{
closed = 1;
nodes = (
(200,0,l),
(200,325,l),
(490,325,l),
(490,375,l),
(200,375,l),
(200,556,ls),
(200,557,o),
(200,650,o),
(200,650,cs),
(512,650,l),
(512,700,l),
(220,700,ls),
(110,700,o),
(50,640,o),
(50,530,cs),
(50,0,l)
);
}
);
userData = {
com.hugojourdan.ColorFlow = {
"0" = 0;
"1" = 0;
"10" = 0;
"11" = 0;
"2" = 0;
"3" = 0;
"4" = 0;
"5" = 0;
"6" = 0;
"7" = 0;
"8" = 0;
"9" = 0;
};
};
width = 542;
},
{
layerId = m006;
name = REGULAR;
shapes = (
{
closed = 1;
nodes = (
(290,0,l),
(290,325,l),
(542,325,l),
(542,375,l),
(290,375,l),
(290,650,ls),
(290,650,o),
(290,650,o),
(290,650,cs),
(552,650,l),
(552,700,l),
(230,700,ls),
(110,700,o),
(50,640,o),
(50,520,cs),
(50,0,l)
);
}
);
userData = {
com.hugojourdan.ColorFlow = {
"0" = 0;
"1" = 0;
"10" = 0;
"11" = 0;
"2" = 0;
"3" = 0;
"4" = 0;
"5" = 0;
"6" = 0;
"7" = 0;
"8" = 0;
"9" = 0;
};
};
width = 562;
},
{
layerId = m007;
name = Thin;
shapes = (
{
closed = 1;
nodes = (
(60,0,l),
(60,345,l),
(1470,345,l),
(1470,355,l),
(60,355,l),
(60,526,ls),
(60,636,o),
(114,690,o),
(224,690,cs),
(1470,690,l),
(1470,700,l),
(220,700,ls),
(110,700,o),
(50,640,o),
(50,530,cs),
(50,0,l)
);
}
);
userData = {
com.hugojourdan.ColorFlow = {
"0" = 0;
"1" = 0;
"10" = 0;
"11" = 0;
"2" = 0;
"3" = 0;
"4" = 0;
"5" = 0;
"6" = 0;
"7" = 0;
"8" = 0;
"9" = 0;
};
};
width = 1500;
},
{
layerId = m008;
name = REGULAR;
shapes = (
{
closed = 1;
nodes = (
(200,0,l),
(200,278,l),
(1520,278,l),
(1520,422,l),
(200,422,l),
(200,556,ls),
(200,557,o),
(200,556,o),
(200,556,cs),
(1520,556,l),
(1520,700,l),
(220,700,ls),
(110,700,o),
(50,640,o),
(50,530,cs),
(50,0,l)
);
}
);
userData = {
com.hugojourdan.ColorFlow = {
"0" = 0;
"1" = 0;
"10" = 0;
"11" = 0;
"2" = 0;
"3" = 0;
"4" = 0;
"5" = 0;
"6" = 0;
"7" = 0;
"8" = 0;
"9" = 0;
};
};
width = 1550;
},
{
layerId = m009;
name = REGULAR;
shapes = (
{
closed = 1;
nodes = (
(290,0,l),
(290,198,l),
(1550,198,l),
(1550,402,l),
(290,402,l),
(290,496,ls),
(290,496,o),
(290,496,o),
(290,496,cs),
(1550,496,l),
(1550,700,l),
(230,700,ls),
(110,700,o),
(50,640,o),
(50,520,cs),
(50,0,l)
);
}
);
userData = {
com.hugojourdan.ColorFlow = {
"0" = 0;
"1" = 0;
"10" = 0;
"11" = 0;
"2" = 0;
"3" = 0;
"4" = 0;
"5" = 0;
"6" = 0;
"7" = 0;
"8" = 0;
"9" = 0;
};
};
width = 1580;
},
{
layerId = m011;
name = REGULAR;
shapes = (
{
closed = 1;
nodes = (
(200,0,l),
(200,325,l),
(1501,325,l),
(1501,375,l),
(200,375,l),
(200,556,ls),
(200,557,o),
(200,650,o),
(200,650,cs),
(1523,650,l),
(1523,700,l),
(220,700,ls),
(110,700,o),
(50,640,o),
(50,530,cs),
(50,0,l)
);
}
);
userData = {
com.hugojourdan.ColorFlow = {
"0" = 0;
"1" = 0;
"10" = 0;
"11" = 0;
"2" = 0;
"3" = 0;
"4" = 0;
"5" = 0;
"6" = 0;
"7" = 0;
"8" = 0;
"9" = 0;
};
};
width = 1543;
},
{
layerId = m012;
name = REGULAR;
shapes = (
{
closed = 1;
nodes = (
(290,0,l),
(290,325,l),
(1542,325,l),
(1542,375,l),
(290,375,l),
(290,650,ls),
(290,650,o),
(290,650,o),
(290,650,cs),
(1552,650,l),
(1552,700,l),
(230,700,ls),
(110,700,o),
(50,640,o),
(50,520,cs),
(50,0,l)
);
}
);
userData = {
com.hugojourdan.ColorFlow = {
"0" = 0;
"1" = 0;
"10" = 0;
"11" = 0;
"2" = 0;
"3" = 0;
"4" = 0;
"5" = 0;
"6" = 0;
"7" = 0;
"8" = 0;
"9" = 0;
};
};
width = 1572;
},
{
layerId = "1A3F9239-4760-4FF7-8D33-C20C038CC734";
name = Thin;
shapes = (
{
closed = 1;
nodes = (
(60,0,l),
(60,345,l),
(1470,345,l),
(1470,355,l),
(60,355,l),
(60,526,ls),
(60,636,o),
(114,690,o),
(224,690,cs),
(1470,690,l),
(1470,700,l),
(220,700,ls),
(110,700,o),
(50,640,o),
(50,530,cs),
(50,0,l)
);
}
);
userData = {
com.hugojourdan.ColorFlow = {
"0" = 0;
"1" = 0;
"10" = 0;
"11" = 0;
"2" = 0;
"3" = 0;
"4" = 0;
"5" = 0;
"6" = 0;
"7" = 0;
"8" = 0;
"9" = 0;
};
};
width = 1500;
}
);
metricLeft = H;
metricRight = C;
unicode = 70;
},
{
glyphname = G;
lastChange = "2026-02-21 02:13:37 +0000";
layers = (
{
layerId = "53F0F7F5-7E63-41B5-8940-5CAB53A0CB52";
shapes = (
{
closed = 1;
nodes = (
(560,0,l),
(560,350,l),
(550,350,l),
(550,10,l),
(370,10,ls),
(173,10,o),
(30,153,o),
(30,350,cs),
(30,547,o),
(173,690,o),
(370,690,cs),
(560,690,l),
(560,700,l),
(370,700,ls),
(167,700,o),
(20,553,o),
(20,350,cs),
(20,147,o),
(167,0,o),
(370,0,cs)
);
}
);
userData = {
com.hugojourdan.ColorFlow = {
"0" = 0;
"1" = 0;
"10" = 0;
"11" = 0;
"2" = 0;
"3" = 0;
"4" = 0;
"5" = 0;
"6" = 0;
"7" = 0;
"8" = 0;
"9" = 0;
};
};
width = 610;
},
{
layerId = "EC5FEA86-72D2-42C8-BC19-2BD75AB225BC";
shapes = (
{
closed = 1;
nodes = (
(596,0,l),
(596,350,l),
(446,350,l),
(446,144,l),
(373,144,ls),
(254,144,o),
(172,228,o),
(172,350,cs),
(172,472,o),
(254,556,o),
(373,556,cs),
(596,556,l),
(596,700,l),
(371,700,ls),
(163,700,o),
(20,557,o),
(20,350,cs),
(20,143,o),
(163,0,o),
(371,0,cs)
);
}
);
userData = {
com.hugojourdan.ColorFlow = {
"0" = 0;
"1" = 0;
"10" = 0;
"11" = 0;
"2" = 0;
"3" = 0;
"4" = 0;
"5" = 0;
"6" = 0;
"7" = 0;
"8" = 0;
"9" = 0;
};
};
width = 646;
},
{
associatedMasterId = "EC5FEA86-72D2-42C8-BC19-2BD75AB225BC";
layerId = "CB28599D-6379-475A-8585-674F8367FE73";
name = G.ss01;
shapes = (
{
closed = 1;
nodes = (
(586,0,l),
(586,339,l),
(436,339,l),
(436,144,l),
(363,144,ls),
(244,144,o),
(162,228,o),
(162,350,cs),
(162,472,o),
(244,556,o),
(363,556,cs),
(586,556,l),
(586,700,l),
(361,700,ls),
(153,700,o),
(10,557,o),
(10,350,cs),
(10,143,o),
(153,0,o),
(361,0,cs)
);
},
{
closed = 1;
nodes = (
(302,273,l),
(586,273,l),
(586,417,l),
(302,417,l)
);
}
);
width = 616;
},
{
associatedMasterId = "EC5FEA86-72D2-42C8-BC19-2BD75AB225BC";
layerId = "7E558A4A-B92B-4114-98B4-11B807CBAF17";
name = G.ss02;
shapes = (
{
closed = 1;
nodes = (
(586,0,l),
(586,144,l),
(363,144,ls),
(244,144,o),
(162,228,o),
(162,350,cs),
(162,472,o),
(244,556,o),
(363,556,cs),
(586,556,l),
(586,700,l),
(361,700,ls),
(153,700,o),
(10,557,o),
(10,350,cs),
(10,143,o),
(153,0,o),
(361,0,cs)
);
},
{
closed = 1;
nodes = (
(559,212,o),
(602,254,o),
(602,307,cs),
(602,359,o),
(559,402,o),
(507,402,cs),
(454,402,o),
(412,359,o),
(412,307,cs),
(412,254,o),
(454,212,o),
(507,212,cs)
);
}
);
width = 632;
},
{
associatedMasterId = "EC5FEA86-72D2-42C8-BC19-2BD75AB225BC";
layerId = "86619CD6-9660-4076-B28E-5971FDD38C73";
name = G.ss03;
shapes = (
{
closed = 1;
nodes = (
(586,0,l),
(586,350,l),
(436,350,l),
(436,144,l),
(363,144,ls),
(244,144,o),
(162,228,o),
(162,350,cs),
(162,472,o),
(244,556,o),
(363,556,cs),
(586,556,l),
(586,700,l),
(10,700,l),
(10,0,l)
);
}
);
width = 616;
},
{
layerId = m003;
shapes = (
{
closed = 1;
nodes = (
(634,0,l),
(634,360,l),
(394,360,l),
(394,200,l),
(392,200,ls),
(314,200,o),
(260,259,o),
(260,350,cs),
(260,421,o),
(304,496,o),
(412,496,cs),
(634,496,l),
(634,700,l),
(370,700,ls),
(163,700,o),
(20,557,o),
(20,350,cs),
(20,143,o),
(163,0,o),
(370,0,cs)
);
}
);
userData = {
com.hugojourdan.ColorFlow = {
"0" = 0;
"1" = 0;
"10" = 0;
"11" = 0;
"2" = 0;
"3" = 0;
"4" = 0;
"5" = 0;
"6" = 0;
"7" = 0;
"8" = 0;
"9" = 0;
};
};
width = 684;
},
{
layerId = m004;
shapes = (
{
closed = 1;
nodes = (
(560,0,l),
(560,350,l),
(550,350,l),
(550,10,l),
(370,10,ls),
(173,10,o),
(30,153,o),
(30,350,cs),
(30,547,o),
(173,690,o),
(370,690,cs),
(560,690,l),
(560,700,l),
(370,700,ls),
(167,700,o),
(20,553,o),
(20,350,cs),
(20,147,o),
(167,0,o),
(370,0,cs)
);
}
);
userData = {
com.hugojourdan.ColorFlow = {
"0" = 0;
"1" = 0;
"10" = 0;
"11" = 0;
"2" = 0;
"3" = 0;
"4" = 0;
"5" = 0;
"6" = 0;
"7" = 0;
"8" = 0;
"9" = 0;
};
};
width = 610;
},
{
layerId = m005;
shapes = (
{
closed = 1;
nodes = (
(596,0,l),
(596,350,l),
(446,350,l),
(446,50,l),
(394,50,ls),
(275,50,o),
(172,143,o),
(172,350,cs),
(172,557,o),
(275,650,o),
(394,650,cs),
(596,650,l),
(596,700,l),
(371,700,ls),
(163,700,o),
(20,557,o),
(20,350,cs),
(20,143,o),
(163,0,o),
(371,0,cs)
);
}
);
userData = {
com.hugojourdan.ColorFlow = {
"0" = 0;
"1" = 0;
"10" = 0;
"11" = 0;
"2" = 0;
"3" = 0;
"4" = 0;
"5" = 0;
"6" = 0;
"7" = 0;
"8" = 0;
"9" = 0;
};
};
width = 646;
},
{
layerId = m006;
shapes = (
{
closed = 1;
nodes = (
(634,0,l),
(634,360,l),
(394,360,l),
(394,50,l),
(392,50,ls),
(314,50,o),
(260,90,o),
(260,371,cs),
(260,590,o),
(304,650,o),
(412,650,cs),
(634,650,l),
(634,700,l),
(370,700,ls),
(163,700,o),
(20,557,o),
(20,350,cs),
(20,143,o),
(163,0,o),
(370,0,cs)
);
}
);
userData = {
com.hugojourdan.ColorFlow = {
"0" = 0;
"1" = 0;
"10" = 0;
"11" = 0;
"2" = 0;
"3" = 0;
"4" = 0;
"5" = 0;
"6" = 0;
"7" = 0;
"8" = 0;
"9" = 0;
};
};
width = 684;
},
{
layerId = m007;
shapes = (
{
closed = 1;
nodes = (
(1490,0,l),
(1490,350,l),
(1480,350,l),
(1480,10,l),
(380,10,ls),
(183,10,o),
(40,153,o),
(40,350,cs),
(40,547,o),
(183,690,o),
(380,690,cs),
(1490,690,l),
(1490,700,l),
(380,700,ls),
(177,700,o),
(30,553,o),
(30,350,cs),
(30,147,o),
(177,0,o),
(380,0,cs)
);
}
);
userData = {
com.hugojourdan.ColorFlow = {
"0" = 0;
"1" = 0;
"10" = 0;
"11" = 0;
"2" = 0;
"3" = 0;
"4" = 0;
"5" = 0;
"6" = 0;
"7" = 0;
"8" = 0;
"9" = 0;
};
};
width = 1520;
},
{
layerId = m008;
shapes = (
{
closed = 1;
nodes = (
(1510,0,l),
(1510,350,l),
(1360,350,l),
(1360,144,l),
(383,144,ls),
(264,144,o),
(182,228,o),
(182,350,cs),
(182,472,o),
(264,556,o),
(383,556,cs),
(1510,556,l),
(1510,700,l),
(381,700,ls),
(173,700,o),
(30,557,o),
(30,350,cs),
(30,143,o),
(173,0,o),
(381,0,cs)
);
}
);
userData = {
com.hugojourdan.ColorFlow = {
"0" = 0;
"1" = 0;
"10" = 0;
"11" = 0;
"2" = 0;
"3" = 0;
"4" = 0;
"5" = 0;
"6" = 0;
"7" = 0;
"8" = 0;
"9" = 0;
};
};
width = 1560;
},
{
layerId = m009;
shapes = (
{
closed = 1;
nodes = (
(1580,0,l),
(1580,360,l),
(1340,360,l),
(1340,200,l),
(402,200,ls),
(324,200,o),
(270,259,o),
(270,350,cs),
(270,421,o),
(314,496,o),
(422,496,cs),
(1580,496,l),
(1580,700,l),
(380,700,ls),
(173,700,o),
(30,557,o),
(30,350,cs),
(30,143,o),
(173,0,o),
(380,0,cs)
);
}
);
userData = {
com.hugojourdan.ColorFlow = {
"0" = 0;
"1" = 0;
"10" = 0;
"11" = 0;
"2" = 0;
"3" = 0;
"4" = 0;
"5" = 0;
"6" = 0;
"7" = 0;
"8" = 0;
"9" = 0;
};
};
width = 1630;
},
{
layerId = m011;
shapes = (
{
closed = 1;
nodes = (
(1553,0,l),
(1553,350,l),
(1403,350,l),
(1403,50,l),
(513,50,ls),
(320,50,o),
(169,143,o),
(169,350,cs),
(169,557,o),
(320,650,o),
(513,650,cs),
(1553,650,l),
(1553,700,l),
(490,700,ls),
(222,700,o),
(20,557,o),
(20,350,cs),
(20,143,o),
(222,0,o),
(490,0,cs)
);
}
);
userData = {
com.hugojourdan.ColorFlow = {
"0" = 0;
"1" = 0;
"10" = 0;
"11" = 0;
"2" = 0;
"3" = 0;
"4" = 0;
"5" = 0;
"6" = 0;
"7" = 0;
"8" = 0;
"9" = 0;
};
};
width = 1603;
},
{
layerId = m012;
shapes = (
{
closed = 1;
nodes = (
(1570,0,l),
(1570,360,l),
(1330,360,l),
(1330,50,l),
(562,50,ls),
(434,50,o),
(260,90,o),
(260,350,cs),
(260,590,o),
(504,650,o),
(582,650,cs),
(1570,650,l),
(1570,700,l),
(450,700,ls),
(223,700,o),
(20,557,o),
(20,350,cs),
(20,143,o),
(223,0,o),
(450,0,cs)
);
}
);
userData = {
com.hugojourdan.ColorFlow = {
"0" = 0;
"1" = 0;
"10" = 0;
"11" = 0;
"2" = 0;
"3" = 0;
"4" = 0;
"5" = 0;
"6" = 0;
"7" = 0;
"8" = 0;
"9" = 0;
};
};
width = 1620;
},
{
layerId = "1A3F9239-4760-4FF7-8D33-C20C038CC734";
shapes = (
{
closed = 1;
nodes = (
(1490,0,l),
(1490,350,l),
(1480,350,l),
(1480,10,l),
(380,10,ls),
(183,10,o),
(40,153,o),
(40,350,cs),
(40,547,o),
(183,690,o),
(380,690,cs),
(1490,690,l),
(1490,700,l),
(380,700,ls),
(177,700,o),
(30,553,o),
(30,350,cs),
(30,147,o),
(177,0,o),
(380,0,cs)
);
}
);
userData = {
com.hugojourdan.ColorFlow = {
"0" = 0;
"1" = 0;
"10" = 0;
"11" = 0;
"2" = 0;
"3" = 0;
"4" = 0;
"5" = 0;
"6" = 0;
"7" = 0;
"8" = 0;
"9" = 0;
};
};
width = 1520;
}
);
metricLeft = O;
metricRight = H;
unicode = 71;
},
{
glyphname = H;
kernLeft = H;
kernRight = H;
lastChange = "2026-02-21 02:13:40 +0000";
layers = (
{
layerId = "53F0F7F5-7E63-41B5-8940-5CAB53A0CB52";
shapes = (
{
closed = 1;
nodes = (
(60,0,l),
(60,345,l),
(560,345,l),
(560,0,l),
(570,0,l),
(570,700,l),
(560,700,l),
(560,355,l),
(60,355,l),
(60,700,l),
(50,700,l),
(50,0,l)
);
}
);
userData = {
com.hugojourdan.ColorFlow = {
"0" = 0;
"1" = 0;
"10" = 0;
"11" = 0;
"2" = 0;
"3" = 0;
"4" = 0;
"5" = 0;
"6" = 0;
"7" = 0;
"8" = 0;
"9" = 0;
};
};
width = 620;
},
{
layerId = "EC5FEA86-72D2-42C8-BC19-2BD75AB225BC";
shapes = (
{
closed = 1;
nodes = (
(200,0,l),
(200,287,l),
(480,287,l),
(480,0,l),
(630,0,l),
(630,700,l),
(480,700,l),
(480,423,l),
(200,423,l),
(200,700,l),
(50,700,l),
(50,0,l)
);
}
);
userData = {
com.hugojourdan.ColorFlow = {
"0" = 0;
"1" = 0;
"10" = 0;
"11" = 0;
"2" = 0;
"3" = 0;
"4" = 0;
"5" = 0;
"6" = 0;
"7" = 0;
"8" = 0;
"9" = 0;
};
};
width = 680;
},
{
associatedMasterId = "EC5FEA86-72D2-42C8-BC19-2BD75AB225BC";
layerId = "DF212A81-3F9C-4882-985C-D760BC496B89";
name = H.ss01;
shapes = (
{
closed = 1;
nodes = (
(60,0,l),
(210,0,l),
(210,700,l),
(60,700,l)
);
},
{
closed = 1;
nodes = (
(490,0,l),
(640,0,l),
(640,700,l),
(490,700,l)
);
},
{
closed = 1;
nodes = (
(402,252,o),
(445,294,o),
(445,347,cs),
(445,399,o),
(402,442,o),
(350,442,cs),
(297,442,o),
(255,399,o),
(255,347,cs),
(255,294,o),
(297,252,o),
(350,252,cs)
);
}
);
width = 700;
},
{
layerId = m003;
shapes = (
{
closed = 1;
nodes = (
(290,0,l),
(290,253,l),
(450,253,l),
(450,0,l),
(690,0,l),
(690,700,l),
(450,700,l),
(450,457,l),
(290,457,l),
(290,700,l),
(50,700,l),
(50,0,l)
);
}
);
userData = {
com.hugojourdan.ColorFlow = {
"0" = 0;
"1" = 0;
"10" = 0;
"11" = 0;
"2" = 0;
"3" = 0;
"4" = 0;
"5" = 0;
"6" = 0;
"7" = 0;
"8" = 0;
"9" = 0;
};
};
width = 740;
},
{
layerId = m004;
shapes = (
{
closed = 1;
nodes = (
(60,0,l),
(60,345,l),
(560,345,l),
(560,0,l),
(570,0,l),
(570,700,l),
(560,700,l),
(560,355,l),
(60,355,l),
(60,700,l),
(50,700,l),
(50,0,l)
);
}
);
userData = {
com.hugojourdan.ColorFlow = {
"0" = 0;
"1" = 0;
"10" = 0;
"11" = 0;
"2" = 0;
"3" = 0;
"4" = 0;
"5" = 0;
"6" = 0;
"7" = 0;
"8" = 0;
"9" = 0;
};
};
width = 620;
},
{
layerId = m005;
shapes = (
{
closed = 1;
nodes = (
(200,0,l),
(200,335,l),
(480,335,l),
(480,0,l),
(630,0,l),
(630,700,l),
(480,700,l),
(480,375,l),
(200,375,l),
(200,700,l),
(50,700,l),
(50,0,l)
);
}
);
userData = {
com.hugojourdan.ColorFlow = {
"0" = 0;
"1" = 0;
"10" = 0;
"11" = 0;
"2" = 0;
"3" = 0;
"4" = 0;
"5" = 0;
"6" = 0;
"7" = 0;
"8" = 0;
"9" = 0;
};
};
width = 680;
},
{
layerId = m006;
shapes = (
{
closed = 1;
nodes = (
(290,0,l),
(290,330,l),
(450,330,l),
(450,0,l),
(690,0,l),
(690,700,l),
(450,700,l),
(450,380,l),
(290,380,l),
(290,700,l),
(50,700,l),
(50,0,l)
);
}
);
userData = {
com.hugojourdan.ColorFlow = {
"0" = 0;
"1" = 0;
"10" = 0;
"11" = 0;
"2" = 0;
"3" = 0;
"4" = 0;
"5" = 0;
"6" = 0;
"7" = 0;
"8" = 0;
"9" = 0;
};
};
width = 740;
},
{
layerId = m007;
shapes = (
{
closed = 1;
nodes = (
(60,0,l),
(60,345,l),
(1520,345,l),
(1520,0,l),
(1530,0,l),
(1530,700,l),
(1520,700,l),
(1520,355,l),
(60,355,l),
(60,700,l),
(50,700,l),
(50,0,l)
);
}
);
userData = {
com.hugojourdan.ColorFlow = {
"0" = 0;
"1" = 0;
"10" = 0;
"11" = 0;
"2" = 0;
"3" = 0;
"4" = 0;
"5" = 0;
"6" = 0;
"7" = 0;
"8" = 0;
"9" = 0;
};
};
width = 1560;
},
{
layerId = m008;
shapes = (
{
closed = 1;
nodes = (
(200,0,l),
(200,287,l),
(1400,287,l),
(1400,0,l),
(1550,0,l),
(1550,700,l),
(1400,700,l),
(1400,423,l),
(200,423,l),
(200,700,l),
(50,700,l),
(50,0,l)
);
}
);
userData = {
com.hugojourdan.ColorFlow = {
"0" = 0;
"1" = 0;
"10" = 0;
"11" = 0;
"2" = 0;
"3" = 0;
"4" = 0;
"5" = 0;
"6" = 0;
"7" = 0;
"8" = 0;
"9" = 0;
};
};
width = 1600;
},
{
layerId = m009;
shapes = (
{
closed = 1;
nodes = (
(290,0,l),
(290,253,l),
(1310,253,l),
(1310,0,l),
(1550,0,l),
(1550,700,l),
(1310,700,l),
(1310,457,l),
(290,457,l),
(290,700,l),
(50,700,l),
(50,0,l)
);
}
);
userData = {
com.hugojourdan.ColorFlow = {
"0" = 0;
"1" = 0;
"10" = 0;
"11" = 0;
"2" = 0;
"3" = 0;
"4" = 0;
"5" = 0;
"6" = 0;
"7" = 0;
"8" = 0;
"9" = 0;
};
};
width = 1600;
},
{
layerId = m011;
shapes = (
{
closed = 1;
nodes = (
(200,0,l),
(200,335,l),
(1399,335,l),
(1399,0,l),
(1549,0,l),
(1549,700,l),
(1399,700,l),
(1399,375,l),
(200,375,l),
(200,700,l),
(50,700,l),
(50,0,l)
);
}
);
userData = {
com.hugojourdan.ColorFlow = {
"0" = 0;
"1" = 0;
"10" = 0;
"11" = 0;
"2" = 0;
"3" = 0;
"4" = 0;
"5" = 0;
"6" = 0;
"7" = 0;
"8" = 0;
"9" = 0;
};
};
width = 1599;
},
{
layerId = m012;
shapes = (
{
closed = 1;
nodes = (
(290,0,l),
(290,330,l),
(1310,330,l),
(1310,0,l),
(1550,0,l),
(1550,700,l),
(1310,700,l),
(1310,380,l),
(290,380,l),
(290,700,l),
(50,700,l),
(50,0,l)
);
}
);
userData = {
com.hugojourdan.ColorFlow = {
"0" = 0;
"1" = 0;
"10" = 0;
"11" = 0;
"2" = 0;
"3" = 0;
"4" = 0;
"5" = 0;
"6" = 0;
"7" = 0;
"8" = 0;
"9" = 0;
};
};
width = 1600;
},
{
layerId = "1A3F9239-4760-4FF7-8D33-C20C038CC734";
shapes = (
{
closed = 1;
nodes = (
(60,0,l),
(60,345,l),
(1520,345,l),
(1520,0,l),
(1530,0,l),
(1530,700,l),
(1520,700,l),
(1520,355,l),
(60,355,l),
(60,700,l),
(50,700,l),
(50,0,l)
);
}
);
userData = {
com.hugojourdan.ColorFlow = {
"0" = 0;
"1" = 0;
"10" = 0;
"11" = 0;
"2" = 0;
"3" = 0;
"4" = 0;
"5" = 0;
"6" = 0;
"7" = 0;
"8" = 0;
"9" = 0;
};
};
width = 1560;
}
);
unicode = 72;
},
{
glyphname = I;
lastChange = "2026-02-21 02:06:44 +0000";
layers = (
{
layerId = "53F0F7F5-7E63-41B5-8940-5CAB53A0CB52";
shapes = (
{
closed = 1;
nodes = (
(50,0,l),
(60,0,l),
(60,700,l),
(50,700,l)
);
}
);
userData = {
com.hugojourdan.ColorFlow = {
"0" = 0;
"1" = 0;
"10" = 0;
"11" = 0;
"2" = 0;
"3" = 0;
"4" = 0;
"5" = 0;
"6" = 0;
"7" = 0;
"8" = 0;
"9" = 0;
};
};
width = 110;
},
{
layerId = "EC5FEA86-72D2-42C8-BC19-2BD75AB225BC";
shapes = (
{
closed = 1;
nodes = (
(50,0,l),
(200,0,l),
(200,700,l),
(50,700,l)
);
}
);
userData = {
com.hugojourdan.ColorFlow = {
"0" = 0;
"1" = 0;
"10" = 0;
"11" = 0;
"2" = 0;
"3" = 0;
"4" = 0;
"5" = 0;
"6" = 0;
"7" = 0;
"8" = 0;
"9" = 0;
};
};
width = 250;
},
{
associatedMasterId = "EC5FEA86-72D2-42C8-BC19-2BD75AB225BC";
layerId = "EC285018-74A8-4043-8ACB-000A0698B479";
name = I.ss01;
shapes = (
{
closed = 1;
nodes = (
(60,0,l),
(210,0,l),
(210,500,l),
(60,500,l)
);
},
{
closed = 1;
nodes = (
(60,551,l),
(210,551,l),
(210,701,l),
(60,701,l)
);
}
);
width = 270;
},
{
associatedMasterId = "EC5FEA86-72D2-42C8-BC19-2BD75AB225BC";
layerId = "97E30911-63AA-44BB-8002-1604F4CCA94F";
name = I.ss02;
shapes = (
{
closed = 1;
nodes = (
(29,112,o),
(126,0,o),
(324,0,cs),
(363,0,l),
(363,144,l),
(308,144,ls),
(218,144,o),
(179,200,o),
(179,290,cs),
(179,501,l),
(29,501,l),
(29,300,l)
);
},
{
closed = 1;
nodes = (
(152,542,o),
(190,579,o),
(190,627,cs),
(190,673,o),
(152,712,o),
(105,712,cs),
(57,712,o),
(20,673,o),
(20,627,cs),
(20,579,o),
(57,542,o),
(105,542,cs)
);
}
);
width = 383;
},
{
associatedMasterId = "EC5FEA86-72D2-42C8-BC19-2BD75AB225BC";
layerId = "DC73E224-430E-4E81-A769-1A84040CFCE3";
name = I.ss03;
shapes = (
{
closed = 1;
nodes = (
(20,112,o),
(117,0,o),
(315,0,cs),
(354,0,l),
(354,144,l),
(299,144,ls),
(209,144,o),
(170,200,o),
(170,290,cs),
(170,501,l),
(20,501,l),
(20,300,l)
);
},
{
closed = 1;
nodes = (
(20,551,l),
(170,551,l),
(170,701,l),
(20,701,l)
);
}
);
width = 374;
},
{
associatedMasterId = "EC5FEA86-72D2-42C8-BC19-2BD75AB225BC";
layerId = "4FAB887A-2C9A-4748-975B-A0A207358D43";
name = I.ss04;
shapes = (
{
closed = 1;
nodes = (
(60,0,l),
(210,0,l),
(210,500,l),
(60,500,l)
);
},
{
closed = 1;
nodes = (
(182,542,o),
(220,579,o),
(220,627,cs),
(220,673,o),
(182,712,o),
(135,712,cs),
(87,712,o),
(50,673,o),
(50,627,cs),
(50,579,o),
(87,542,o),
(135,542,cs)
);
}
);
width = 374;
},
{
layerId = m003;
shapes = (
{
closed = 1;
nodes = (
(50,0,l),
(290,0,l),
(290,700,l),
(50,700,l)
);
}
);
userData = {
com.hugojourdan.ColorFlow = {
"0" = 0;
"1" = 0;
"10" = 0;
"11" = 0;
"2" = 0;
"3" = 0;
"4" = 0;
"5" = 0;
"6" = 0;
"7" = 0;
"8" = 0;
"9" = 0;
};
};
width = 340;
},
{
layerId = m004;
shapes = (
{
closed = 1;
nodes = (
(50,0,l),
(60,0,l),
(60,700,l),
(50,700,l)
);
}
);
userData = {
com.hugojourdan.ColorFlow = {
"0" = 0;
"1" = 0;
"10" = 0;
"11" = 0;
"2" = 0;
"3" = 0;
"4" = 0;
"5" = 0;
"6" = 0;
"7" = 0;
"8" = 0;
"9" = 0;
};
};
width = 110;
},
{
layerId = m005;
shapes = (
{
closed = 1;
nodes = (
(50,0,l),
(200,0,l),
(200,700,l),
(50,700,l)
);
}
);
userData = {
com.hugojourdan.ColorFlow = {
"0" = 0;
"1" = 0;
"10" = 0;
"11" = 0;
"2" = 0;
"3" = 0;
"4" = 0;
"5" = 0;
"6" = 0;
"7" = 0;
"8" = 0;
"9" = 0;
};
};
width = 250;
},
{
layerId = m006;
shapes = (
{
closed = 1;
nodes = (
(50,0,l),
(290,0,l),
(290,700,l),
(50,700,l)
);
}
);
userData = {
com.hugojourdan.ColorFlow = {
"0" = 0;
"1" = 0;
"10" = 0;
"11" = 0;
"2" = 0;
"3" = 0;
"4" = 0;
"5" = 0;
"6" = 0;
"7" = 0;
"8" = 0;
"9" = 0;
};
};
width = 340;
},
{
layerId = m007;
shapes = (
{
closed = 1;
nodes = (
(50,0,l),
(60,0,l),
(60,700,l),
(50,700,l)
);
}
);
userData = {
com.hugojourdan.ColorFlow = {
"0" = 0;
"1" = 0;
"10" = 0;
"11" = 0;
"2" = 0;
"3" = 0;
"4" = 0;
"5" = 0;
"6" = 0;
"7" = 0;
"8" = 0;
"9" = 0;
};
};
width = 90;
},
{
layerId = m008;
shapes = (
{
closed = 1;
nodes = (
(50,0,l),
(200,0,l),
(200,700,l),
(50,700,l)
);
}
);
userData = {
com.hugojourdan.ColorFlow = {
"0" = 0;
"1" = 0;
"10" = 0;
"11" = 0;
"2" = 0;
"3" = 0;
"4" = 0;
"5" = 0;
"6" = 0;
"7" = 0;
"8" = 0;
"9" = 0;
};
};
width = 250;
},
{
layerId = m009;
shapes = (
{
closed = 1;
nodes = (
(50,0,l),
(290,0,l),
(290,700,l),
(50,700,l)
);
}
);
userData = {
com.hugojourdan.ColorFlow = {
"0" = 0;
"1" = 0;
"10" = 0;
"11" = 0;
"2" = 0;
"3" = 0;
"4" = 0;
"5" = 0;
"6" = 0;
"7" = 0;
"8" = 0;
"9" = 0;
};
};
width = 340;
},
{
layerId = m011;
shapes = (
{
closed = 1;
nodes = (
(50,0,l),
(200,0,l),
(200,700,l),
(50,700,l)
);
}
);
userData = {
com.hugojourdan.ColorFlow = {
"0" = 0;
"1" = 0;
"10" = 0;
"11" = 0;
"2" = 0;
"3" = 0;
"4" = 0;
"5" = 0;
"6" = 0;
"7" = 0;
"8" = 0;
"9" = 0;
};
};
width = 250;
},
{
layerId = m012;
shapes = (
{
closed = 1;
nodes = (
(50,0,l),
(290,0,l),
(290,700,l),
(50,700,l)
);
}
);
userData = {
com.hugojourdan.ColorFlow = {
"0" = 0;
"1" = 0;
"10" = 0;
"11" = 0;
"2" = 0;
"3" = 0;
"4" = 0;
"5" = 0;
"6" = 0;
"7" = 0;
"8" = 0;
"9" = 0;
};
};
width = 340;
},
{
layerId = "1A3F9239-4760-4FF7-8D33-C20C038CC734";
shapes = (
{
closed = 1;
nodes = (
(50,0,l),
(60,0,l),
(60,700,l),
(50,700,l)
);
}
);
userData = {
com.hugojourdan.ColorFlow = {
"0" = 0;
"1" = 0;
"10" = 0;
"11" = 0;
"2" = 0;
"3" = 0;
"4" = 0;
"5" = 0;
"6" = 0;
"7" = 0;
"8" = 0;
"9" = 0;
};
};
width = 90;
}
);
metricLeft = H;
metricRight = H;
unicode = 73;
},
{
glyphname = J;
lastChange = "2026-02-21 02:07:03 +0000";
layers = (
{
layerId = "53F0F7F5-7E63-41B5-8940-5CAB53A0CB52";
shapes = (
{
closed = 1;
nodes = (
(122,0,ls),
(299,0,o),
(369,67,o),
(369,249,c),
(369,700,l),
(359,700,l),
(359,249,l),
(359,73,o),
(293,10,o),
(122,10,cs),
(10,10,l),
(10,0,l)
);
}
);
userData = {
com.hugojourdan.ColorFlow = {
"0" = 0;
"1" = 0;
"10" = 0;
"11" = 0;
"2" = 0;
"3" = 0;
"4" = 0;
"5" = 0;
"6" = 0;
"7" = 0;
"8" = 0;
"9" = 0;
};
};
width = 419;
},
{
associatedMasterId = "EC5FEA86-72D2-42C8-BC19-2BD75AB225BC";
layerId = "DE8BCBB1-F6DD-456D-81C1-4AFA2A7AC068";
name = J.ss01_V2;
shapes = (
{
closed = 1;
nodes = (
(371,701,l),
(221,701,l),
(221,240,ls),
(221,167,o),
(197,144,o),
(131,144,cs),
(30,144,l),
(30,0,l),
(136,0,ls),
(312,0,o),
(371,67,o),
(371,246,c)
);
}
);
width = 431;
},
{
associatedMasterId = "EC5FEA86-72D2-42C8-BC19-2BD75AB225BC";
layerId = "08A00B6D-227C-4DBD-B161-9409DC6D6C6D";
name = V1;
shapes = (
{
closed = 1;
nodes = (
(220,700,l),
(220,173,ls),
(220,156,o),
(209,144,o),
(192,144,cs),
(10,144,l),
(10,0,l),
(199,0,ls),
(309,0,o),
(370,61,o),
(370,170,cs),
(370,700,l)
);
}
);
width = 430;
},
{
layerId = "EC5FEA86-72D2-42C8-BC19-2BD75AB225BC";
name = REGULAR;
shapes = (
{
closed = 1;
nodes = (
(122,0,ls),
(300,0,o),
(369,67,o),
(369,249,c),
(369,701,l),
(219,701,l),
(219,256,ls),
(219,166,o),
(196,144,o),
(113,144,cs),
(10,144,l),
(10,0,l)
);
}
);
userData = {
com.hugojourdan.ColorFlow = {
"0" = 0;
"1" = 0;
"10" = 0;
"11" = 0;
"2" = 0;
"3" = 0;
"4" = 0;
"5" = 0;
"6" = 0;
"7" = 0;
"8" = 0;
"9" = 0;
};
};
width = 419;
},
{
layerId = m003;
name = REGULAR;
shapes = (
{
closed = 1;
nodes = (
(182,0,ls),
(380,0,o),
(459,77,o),
(459,289,c),
(459,701,l),
(219,701,l),
(219,296,ls),
(219,226,o),
(196,204,o),
(133,204,cs),
(20,204,l),
(20,0,l)
);
}
);
userData = {
com.hugojourdan.ColorFlow = {
"0" = 0;
"1" = 0;
"10" = 0;
"11" = 0;
"2" = 0;
"3" = 0;
"4" = 0;
"5" = 0;
"6" = 0;
"7" = 0;
"8" = 0;
"9" = 0;
};
};
width = 509;
},
{
layerId = m004;
shapes = (
{
closed = 1;
nodes = (
(122,0,ls),
(299,0,o),
(369,67,o),
(369,249,c),
(369,700,l),
(359,700,l),
(359,249,l),
(359,73,o),
(293,10,o),
(122,10,cs),
(10,10,l),
(10,0,l)
);
}
);
userData = {
com.hugojourdan.ColorFlow = {
"0" = 0;
"1" = 0;
"10" = 0;
"11" = 0;
"2" = 0;
"3" = 0;
"4" = 0;
"5" = 0;
"6" = 0;
"7" = 0;
"8" = 0;
"9" = 0;
};
};
width = 419;
},
{
associatedMasterId = m004;
layerId = "B3CAD657-4AFF-40BF-9BE0-8A417AA849AD";
name = V1;
shapes = (
{
closed = 1;
nodes = (
(330,700,l),
(330,188,ls),
(330,62,o),
(278,10,o),
(151,10,cs),
(-20,10,l),
(-20,0,l),
(151,0,ls),
(285,0,o),
(340,55,o),
(340,188,cs),
(340,700,l)
);
}
);
width = 390;
},
{
layerId = m005;
name = REGULAR;
shapes = (
{
closed = 1;
nodes = (
(122,0,ls),
(300,0,o),
(369,67,o),
(369,249,c),
(369,701,l),
(219,701,l),
(219,162,ls),
(219,72,o),
(196,50,o),
(113,50,cs),
(10,50,l),
(10,0,l)
);
}
);
userData = {
com.hugojourdan.ColorFlow = {
"0" = 0;
"1" = 0;
"10" = 0;
"11" = 0;
"2" = 0;
"3" = 0;
"4" = 0;
"5" = 0;
"6" = 0;
"7" = 0;
"8" = 0;
"9" = 0;
};
};
width = 419;
},
{
layerId = m006;
name = REGULAR;
shapes = (
{
closed = 1;
nodes = (
(182,0,ls),
(380,0,o),
(459,77,o),
(459,289,c),
(459,701,l),
(219,701,l),
(219,142,ls),
(219,72,o),
(196,50,o),
(133,50,cs),
(20,50,l),
(20,0,l)
);
}
);
userData = {
com.hugojourdan.ColorFlow = {
"0" = 0;
"1" = 0;
"10" = 0;
"11" = 0;
"2" = 0;
"3" = 0;
"4" = 0;
"5" = 0;
"6" = 0;
"7" = 0;
"8" = 0;
"9" = 0;
};
};
width = 509;
},
{
layerId = m007;
shapes = (
{
closed = 1;
nodes = (
(1083,0,ls),
(1260,0,o),
(1330,67,o),
(1330,249,c),
(1330,700,l),
(1320,700,l),
(1320,249,l),
(1320,73,o),
(1254,10,o),
(1083,10,cs),
(20,10,l),
(20,0,l)
);
}
);
userData = {
com.hugojourdan.ColorFlow = {
"0" = 0;
"1" = 0;
"10" = 0;
"11" = 0;
"2" = 0;
"3" = 0;
"4" = 0;
"5" = 0;
"6" = 0;
"7" = 0;
"8" = 0;
"9" = 0;
};
};
width = 1360;
},
{
layerId = m008;
name = REGULAR;
shapes = (
{
closed = 1;
nodes = (
(1103,0,ls),
(1281,0,o),
(1350,67,o),
(1350,249,c),
(1350,701,l),
(1200,701,l),
(1200,256,ls),
(1200,166,o),
(1177,144,o),
(1094,144,cs),
(20,144,l),
(20,0,l)
);
}
);
userData = {
com.hugojourdan.ColorFlow = {
"0" = 0;
"1" = 0;
"10" = 0;
"11" = 0;
"2" = 0;
"3" = 0;
"4" = 0;
"5" = 0;
"6" = 0;
"7" = 0;
"8" = 0;
"9" = 0;
};
};
width = 1400;
},
{
layerId = m009;
name = REGULAR;
shapes = (
{
closed = 1;
nodes = (
(1093,0,ls),
(1291,0,o),
(1370,77,o),
(1370,289,c),
(1370,701,l),
(1130,701,l),
(1130,296,ls),
(1130,226,o),
(1107,204,o),
(1044,204,cs),
(20,204,l),
(20,0,l)
);
}
);
userData = {
com.hugojourdan.ColorFlow = {
"0" = 0;
"1" = 0;
"10" = 0;
"11" = 0;
"2" = 0;
"3" = 0;
"4" = 0;
"5" = 0;
"6" = 0;
"7" = 0;
"8" = 0;
"9" = 0;
};
};
width = 1420;
},
{
layerId = m011;
name = REGULAR;
shapes = (
{
closed = 1;
nodes = (
(1092,0,ls),
(1270,0,o),
(1339,67,o),
(1339,249,c),
(1339,701,l),
(1189,701,l),
(1189,162,ls),
(1189,72,o),
(1166,50,o),
(1083,50,cs),
(10,50,l),
(10,0,l)
);
}
);
userData = {
com.hugojourdan.ColorFlow = {
"0" = 0;
"1" = 0;
"10" = 0;
"11" = 0;
"2" = 0;
"3" = 0;
"4" = 0;
"5" = 0;
"6" = 0;
"7" = 0;
"8" = 0;
"9" = 0;
};
};
width = 1389;
},
{
layerId = m012;
name = REGULAR;
shapes = (
{
closed = 1;
nodes = (
(1085,0,ls),
(1283,0,o),
(1362,77,o),
(1362,289,c),
(1362,701,l),
(1122,701,l),
(1122,142,ls),
(1122,72,o),
(1099,50,o),
(1036,50,cs),
(10,50,l),
(10,0,l)
);
}
);
userData = {
com.hugojourdan.ColorFlow = {
"0" = 0;
"1" = 0;
"10" = 0;
"11" = 0;
"2" = 0;
"3" = 0;
"4" = 0;
"5" = 0;
"6" = 0;
"7" = 0;
"8" = 0;
"9" = 0;
};
};
width = 1412;
},
{
layerId = "1A3F9239-4760-4FF7-8D33-C20C038CC734";
shapes = (
{
closed = 1;
nodes = (
(1083,0,ls),
(1260,0,o),
(1330,67,o),
(1330,249,c),
(1330,700,l),
(1320,700,l),
(1320,249,l),
(1320,73,o),
(1254,10,o),
(1083,10,cs),
(20,10,l),
(20,0,l)
);
}
);
userData = {
com.hugojourdan.ColorFlow = {
"0" = 0;
"1" = 0;
"10" = 0;
"11" = 0;
"2" = 0;
"3" = 0;
"4" = 0;
"5" = 0;
"6" = 0;
"7" = 0;
"8" = 0;
"9" = 0;
};
};
width = 1360;
}
);
metricRight = H;
unicode = 74;
},
{
glyphname = K;
kernLeft = H;
kernRight = X;
lastChange = "2026-02-21 02:13:46 +0000";
layers = (
{
layerId = "53F0F7F5-7E63-41B5-8940-5CAB53A0CB52";
shapes = (
{
closed = 1;
nodes = (
(535,0,l),
(535,159,ls),
(535,272,o),
(474,346,o),
(397,356,c),
(474,365,o),
(535,439,o),
(535,553,cs),
(535,700,l),
(525,700,l),
(525,551,ls),
(525,437,o),
(461,361,o),
(361,361,cs),
(56,361,l),
(56,351,l),
(361,351,ls),
(461,351,o),
(525,274,o),
(525,160,cs),
(525,0,l)
);
},
{
closed = 1;
nodes = (
(60,0,l),
(60,700,l),
(50,700,l),
(50,0,l)
);
}
);
userData = {
com.hugojourdan.ColorFlow = {
"0" = 0;
"1" = 0;
"10" = 0;
"11" = 0;
"2" = 0;
"3" = 0;
"4" = 0;
"5" = 0;
"6" = 0;
"7" = 0;
"8" = 0;
"9" = 0;
};
};
width = 565;
},
{
layerId = "EC5FEA86-72D2-42C8-BC19-2BD75AB225BC";
shapes = (
{
closed = 1;
nodes = (
(564,0,l),
(564,145,ls),
(564,244,o),
(545,321,o),
(460,356,c),
(545,390,o),
(564,467,o),
(564,566,cs),
(564,700,l),
(414,700,l),
(414,566,ls),
(414,480,o),
(375,428,o),
(280,428,cs),
(156,428,l),
(156,284,l),
(280,284,ls),
(375,284,o),
(414,233,o),
(414,147,cs),
(414,0,l)
);
},
{
closed = 1;
nodes = (
(200,0,l),
(200,700,l),
(50,700,l),
(50,0,l)
);
}
);
userData = {
com.hugojourdan.ColorFlow = {
"0" = 0;
"1" = 0;
"10" = 0;
"11" = 0;
"2" = 0;
"3" = 0;
"4" = 0;
"5" = 0;
"6" = 0;
"7" = 0;
"8" = 0;
"9" = 0;
};
};
width = 594;
},
{
associatedMasterId = "EC5FEA86-72D2-42C8-BC19-2BD75AB225BC";
layerId = "192EF77B-D0B2-4AA0-91D0-E9A1789E029D";
name = K.ss01;
shapes = (
{
closed = 1;
nodes = (
(596,83,l),
(280,419,l),
(279,281,l),
(594,617,l),
(493,710,l),
(211,419,ls),
(168,375,o),
(168,327,o),
(211,283,cs),
(493,-10,l)
);
},
{
closed = 1;
nodes = (
(210,0,l),
(210,700,l),
(60,700,l),
(60,0,l)
);
}
);
width = 626;
},
{
layerId = m003;
shapes = (
{
closed = 1;
nodes = (
(642,0,l),
(642,145,ls),
(642,233,o),
(619,322,o),
(550,356,c),
(619,390,o),
(642,479,o),
(642,567,cs),
(642,700,l),
(402,700,l),
(402,524,ls),
(402,484,o),
(377,458,o),
(341,458,cs),
(261,458,l),
(261,254,l),
(341,254,ls),
(377,254,o),
(402,228,o),
(402,188,cs),
(402,0,l)
);
},
{
closed = 1;
nodes = (
(290,0,l),
(290,700,l),
(50,700,l),
(50,0,l)
);
}
);
userData = {
com.hugojourdan.ColorFlow = {
"0" = 0;
"1" = 0;
"10" = 0;
"11" = 0;
"2" = 0;
"3" = 0;
"4" = 0;
"5" = 0;
"6" = 0;
"7" = 0;
"8" = 0;
"9" = 0;
};
};
width = 672;
},
{
layerId = m004;
shapes = (
{
closed = 1;
nodes = (
(535,0,l),
(535,159,ls),
(535,272,o),
(474,346,o),
(397,356,c),
(474,365,o),
(535,439,o),
(535,553,cs),
(535,700,l),
(525,700,l),
(525,551,ls),
(525,437,o),
(461,361,o),
(361,361,cs),
(56,361,l),
(56,351,l),
(361,351,ls),
(461,351,o),
(525,274,o),
(525,160,cs),
(525,0,l)
);
},
{
closed = 1;
nodes = (
(60,0,l),
(60,700,l),
(50,700,l),
(50,0,l)
);
}
);
userData = {
com.hugojourdan.ColorFlow = {
"0" = 0;
"1" = 0;
"10" = 0;
"11" = 0;
"2" = 0;
"3" = 0;
"4" = 0;
"5" = 0;
"6" = 0;
"7" = 0;
"8" = 0;
"9" = 0;
};
};
width = 565;
},
{
layerId = m005;
shapes = (
{
closed = 1;
nodes = (
(564,0,l),
(564,145,ls),
(564,244,o),
(545,321,o),
(470,356,c),
(545,390,o),
(564,467,o),
(564,566,cs),
(564,700,l),
(414,700,l),
(414,516,ls),
(414,430,o),
(375,381,o),
(290,381,cs),
(156,381,l),
(156,331,l),
(290,331,ls),
(375,331,o),
(414,283,o),
(414,197,cs),
(414,0,l)
);
},
{
closed = 1;
nodes = (
(200,0,l),
(200,700,l),
(50,700,l),
(50,0,l)
);
}
);
userData = {
com.hugojourdan.ColorFlow = {
"0" = 0;
"1" = 0;
"10" = 0;
"11" = 0;
"2" = 0;
"3" = 0;
"4" = 0;
"5" = 0;
"6" = 0;
"7" = 0;
"8" = 0;
"9" = 0;
};
};
width = 594;
},
{
layerId = m006;
shapes = (
{
closed = 1;
nodes = (
(642,0,l),
(642,145,ls),
(642,233,o),
(619,322,o),
(510,356,c),
(619,390,o),
(642,479,o),
(642,567,cs),
(642,700,l),
(402,700,l),
(402,464,ls),
(402,404,o),
(377,381,o),
(341,381,cs),
(261,381,l),
(261,331,l),
(341,331,ls),
(377,331,o),
(402,308,o),
(402,238,cs),
(402,0,l)
);
},
{
closed = 1;
nodes = (
(290,0,l),
(290,700,l),
(50,700,l),
(50,0,l)
);
}
);
userData = {
com.hugojourdan.ColorFlow = {
"0" = 0;
"1" = 0;
"10" = 0;
"11" = 0;
"2" = 0;
"3" = 0;
"4" = 0;
"5" = 0;
"6" = 0;
"7" = 0;
"8" = 0;
"9" = 0;
};
};
width = 672;
},
{
layerId = m007;
shapes = (
{
closed = 1;
nodes = (
(1510,0,l),
(1510,159,ls),
(1510,272,o),
(1449,346,o),
(1372,356,c),
(1449,365,o),
(1510,439,o),
(1510,553,cs),
(1510,700,l),
(1500,700,l),
(1500,551,ls),
(1500,437,o),
(1436,361,o),
(1336,361,cs),
(56,361,l),
(56,351,l),
(1336,351,ls),
(1436,351,o),
(1500,274,o),
(1500,160,cs),
(1500,0,l)
);
},
{
closed = 1;
nodes = (
(60,0,l),
(60,700,l),
(50,700,l),
(50,0,l)
);
}
);
userData = {
com.hugojourdan.ColorFlow = {
"0" = 0;
"1" = 0;
"10" = 0;
"11" = 0;
"2" = 0;
"3" = 0;
"4" = 0;
"5" = 0;
"6" = 0;
"7" = 0;
"8" = 0;
"9" = 0;
};
};
width = 1540;
},
{
layerId = m008;
shapes = (
{
closed = 1;
nodes = (
(1530,0,l),
(1530,145,ls),
(1530,244,o),
(1511,321,o),
(1426,356,c),
(1511,390,o),
(1530,467,o),
(1530,566,cs),
(1530,700,l),
(1380,700,l),
(1380,566,ls),
(1380,480,o),
(1341,428,o),
(1246,428,cs),
(156,428,l),
(156,284,l),
(1246,284,ls),
(1341,284,o),
(1380,233,o),
(1380,147,cs),
(1380,0,l)
);
},
{
closed = 1;
nodes = (
(200,0,l),
(200,700,l),
(50,700,l),
(50,0,l)
);
}
);
userData = {
com.hugojourdan.ColorFlow = {
"0" = 0;
"1" = 0;
"10" = 0;
"11" = 0;
"2" = 0;
"3" = 0;
"4" = 0;
"5" = 0;
"6" = 0;
"7" = 0;
"8" = 0;
"9" = 0;
};
};
width = 1560;
},
{
layerId = m009;
shapes = (
{
closed = 1;
nodes = (
(1580,0,l),
(1580,145,ls),
(1580,233,o),
(1557,322,o),
(1488,356,c),
(1557,390,o),
(1580,479,o),
(1580,567,cs),
(1580,700,l),
(1340,700,l),
(1340,524,ls),
(1340,484,o),
(1315,458,o),
(1279,458,cs),
(261,458,l),
(261,254,l),
(1279,254,ls),
(1315,254,o),
(1340,228,o),
(1340,188,cs),
(1340,0,l)
);
},
{
closed = 1;
nodes = (
(290,0,l),
(290,700,l),
(50,700,l),
(50,0,l)
);
}
);
userData = {
com.hugojourdan.ColorFlow = {
"0" = 0;
"1" = 0;
"10" = 0;
"11" = 0;
"2" = 0;
"3" = 0;
"4" = 0;
"5" = 0;
"6" = 0;
"7" = 0;
"8" = 0;
"9" = 0;
};
};
width = 1610;
},
{
layerId = m011;
shapes = (
{
closed = 1;
nodes = (
(1528,0,l),
(1528,145,ls),
(1528,244,o),
(1509,321,o),
(1426,356,c),
(1509,390,o),
(1528,467,o),
(1528,566,cs),
(1528,700,l),
(1378,700,l),
(1378,516,ls),
(1378,430,o),
(1339,381,o),
(1254,381,cs),
(156,381,l),
(156,331,l),
(1254,331,ls),
(1339,331,o),
(1378,283,o),
(1378,197,cs),
(1378,0,l)
);
},
{
closed = 1;
nodes = (
(200,0,l),
(200,700,l),
(50,700,l),
(50,0,l)
);
}
);
userData = {
com.hugojourdan.ColorFlow = {
"0" = 0;
"1" = 0;
"10" = 0;
"11" = 0;
"2" = 0;
"3" = 0;
"4" = 0;
"5" = 0;
"6" = 0;
"7" = 0;
"8" = 0;
"9" = 0;
};
};
width = 1553;
},
{
layerId = m012;
shapes = (
{
closed = 1;
nodes = (
(1582,0,l),
(1582,145,ls),
(1582,233,o),
(1559,322,o),
(1450,356,c),
(1559,390,o),
(1582,479,o),
(1582,567,cs),
(1582,700,l),
(1342,700,l),
(1342,464,ls),
(1342,404,o),
(1317,381,o),
(1281,381,cs),
(261,381,l),
(261,331,l),
(1281,331,ls),
(1317,331,o),
(1342,308,o),
(1342,238,cs),
(1342,0,l)
);
},
{
closed = 1;
nodes = (
(290,0,l),
(290,700,l),
(50,700,l),
(50,0,l)
);
}
);
userData = {
com.hugojourdan.ColorFlow = {
"0" = 0;
"1" = 0;
"10" = 0;
"11" = 0;
"2" = 0;
"3" = 0;
"4" = 0;
"5" = 0;
"6" = 0;
"7" = 0;
"8" = 0;
"9" = 0;
};
};
width = 1602;
},
{
layerId = "1A3F9239-4760-4FF7-8D33-C20C038CC734";
shapes = (
{
closed = 1;
nodes = (
(1510,0,l),
(1510,159,ls),
(1510,272,o),
(1449,346,o),
(1372,356,c),
(1449,365,o),
(1510,439,o),
(1510,553,cs),
(1510,700,l),
(1500,700,l),
(1500,551,ls),
(1500,437,o),
(1436,361,o),
(1336,361,cs),
(56,361,l),
(56,351,l),
(1336,351,ls),
(1436,351,o),
(1500,274,o),
(1500,160,cs),
(1500,0,l)
);
},
{
closed = 1;
nodes = (
(60,0,l),
(60,700,l),
(50,700,l),
(50,0,l)
);
}
);
userData = {
com.hugojourdan.ColorFlow = {
"0" = 0;
"1" = 0;
"10" = 0;
"11" = 0;
"2" = 0;
"3" = 0;
"4" = 0;
"5" = 0;
"6" = 0;
"7" = 0;
"8" = 0;
"9" = 0;
};
};
width = 1540;
},
{
associatedMasterId = "EC5FEA86-72D2-42C8-BC19-2BD75AB225BC";
layerId = "90BC6F1E-372C-4DCB-8679-2419EA2F669E";
name = K.ss02;
shapes = (
{
closed = 1;
nodes = (
(200,0,l),
(200,700,l),
(50,700,l),
(50,0,l)
);
},
{
closed = 1;
nodes = (
(460,556,o),
(377,472,o),
(377,350,cs),
(377,228,o),
(460,144,o),
(579,144,cs),
(595,144,l),
(595,0,l),
(577,0,ls),
(369,0,o),
(227,143,o),
(227,350,cs),
(227,557,o),
(369,700,o),
(577,700,cs),
(595,700,l),
(595,556,l),
(579,556,l)
);
}
);
width = 594;
}
);
metricLeft = I;
metricRight = X;
unicode = 75;
},
{
glyphname = L;
kernLeft = H;
kernRight = L;
lastChange = "2026-02-21 02:13:51 +0000";
layers = (
{
associatedMasterId = "EC5FEA86-72D2-42C8-BC19-2BD75AB225BC";
layerId = "43480083-DDA0-47B4-9FB6-8FA4BCE266C1";
name = L.ss01;
shapes = (
{
closed = 1;
nodes = (
(60,72,o),
(147,0,o),
(345,0,cs),
(511,0,l),
(511,144,l),
(330,144,ls),
(240,144,o),
(210,170,o),
(210,260,cs),
(210,701,l),
(60,701,l),
(60,260,l)
);
}
);
width = 531;
},
{
associatedMasterId = "EC5FEA86-72D2-42C8-BC19-2BD75AB225BC";
layerId = "F2295752-16FB-4025-A19D-547887C73760";
name = L.ss02;
shapes = (
{
closed = 1;
nodes = (
(60,117,o),
(170,0,o),
(374,0,cs),
(511,0,l),
(511,144,l),
(391,144,ls),
(296,144,o),
(210,179,o),
(210,320,cs),
(210,701,l),
(60,701,l),
(60,335,l)
);
}
);
width = 561;
},
{
associatedMasterId = "EC5FEA86-72D2-42C8-BC19-2BD75AB225BC";
layerId = "87F8B86B-0466-4EC2-89DE-C39D68A1CF1A";
name = L.ss03;
shapes = (
{
closed = 1;
nodes = (
(30,0,l),
(521,0,l),
(521,144,l),
(361,144,ls),
(234,144,o),
(180,188,o),
(180,312,cs),
(180,701,l),
(30,701,l)
);
}
);
width = 536;
},
{
layerId = "EC5FEA86-72D2-42C8-BC19-2BD75AB225BC";
name = REGULAR;
shapes = (
{
closed = 1;
nodes = (
(50,170,ls),
(50,60,o),
(110,0,o),
(220,0,cs),
(482,0,l),
(482,144,l),
(200,144,ls),
(200,144,o),
(200,144,o),
(200,144,cs),
(200,700,l),
(50,700,l)
);
}
);
userData = {
com.hugojourdan.ColorFlow = {
"0" = 0;
"1" = 0;
"10" = 0;
"11" = 0;
"2" = 0;
"3" = 0;
"4" = 0;
"5" = 0;
"6" = 0;
"7" = 0;
"8" = 0;
"9" = 0;
};
};
width = 492;
},
{
associatedMasterId = "53F0F7F5-7E63-41B5-8940-5CAB53A0CB52";
layerId = "DF374200-8075-481A-BB12-CD4BF8CF0FDB";
name = "8 Jan 25 at 21:53";
shapes = (
{
closed = 1;
nodes = (
(50,13,ls),
(50,4,o),
(53,0,o),
(63,0,cs),
(453,0,l),
(453,10,l),
(60,10,l),
(60,700,l),
(50,700,l)
);
}
);
width = 458;
},
{
layerId = "53F0F7F5-7E63-41B5-8940-5CAB53A0CB52";
name = Thin;
shapes = (
{
closed = 1;
nodes = (
(50,170,ls),
(50,60,o),
(110,0,o),
(220,0,cs),
(456,0,l),
(456,10,l),
(224,10,ls),
(114,10,o),
(60,64,o),
(60,174,cs),
(60,700,l),
(50,700,l)
);
}
);
userData = {
com.hugojourdan.ColorFlow = {
"0" = 0;
"1" = 0;
"10" = 0;
"11" = 0;
"2" = 0;
"3" = 0;
"4" = 0;
"5" = 0;
"6" = 0;
"7" = 0;
"8" = 0;
"9" = 0;
};
};
width = 466;
},
{
layerId = m003;
name = REGULAR;
shapes = (
{
closed = 1;
nodes = (
(50,190,ls),
(50,70,o),
(120,0,o),
(240,0,cs),
(542,0,l),
(542,204,l),
(290,204,ls),
(290,204,o),
(290,204,o),
(290,204,cs),
(290,700,l),
(50,700,l)
);
}
);
userData = {
com.hugojourdan.ColorFlow = {
"0" = 0;
"1" = 0;
"10" = 0;
"11" = 0;
"2" = 0;
"3" = 0;
"4" = 0;
"5" = 0;
"6" = 0;
"7" = 0;
"8" = 0;
"9" = 0;
};
};
width = 552;
},
{
associatedMasterId = m004;
layerId = "C3D18865-1FF0-4912-8C3F-2BF57E166C66";
name = "8 Jan 25 at 21:53";
shapes = (
{
closed = 1;
nodes = (
(50,13,ls),
(50,4,o),
(53,0,o),
(63,0,cs),
(453,0,l),
(453,10,l),
(60,10,l),
(60,700,l),
(50,700,l)
);
}
);
width = 458;
},
{
layerId = m004;
name = Thin;
shapes = (
{
closed = 1;
nodes = (
(50,170,ls),
(50,60,o),
(110,0,o),
(220,0,cs),
(456,0,l),
(456,10,l),
(224,10,ls),
(114,10,o),
(60,64,o),
(60,174,cs),
(60,700,l),
(50,700,l)
);
}
);
userData = {
com.hugojourdan.ColorFlow = {
"0" = 0;
"1" = 0;
"10" = 0;
"11" = 0;
"2" = 0;
"3" = 0;
"4" = 0;
"5" = 0;
"6" = 0;
"7" = 0;
"8" = 0;
"9" = 0;
};
};
width = 466;
},
{
layerId = m005;
name = REGULAR;
shapes = (
{
closed = 1;
nodes = (
(50,170,ls),
(50,60,o),
(110,0,o),
(220,0,cs),
(482,0,l),
(482,50,l),
(200,50,ls),
(200,50,o),
(200,50,o),
(200,50,cs),
(200,700,l),
(50,700,l)
);
}
);
userData = {
com.hugojourdan.ColorFlow = {
"0" = 0;
"1" = 0;
"10" = 0;
"11" = 0;
"2" = 0;
"3" = 0;
"4" = 0;
"5" = 0;
"6" = 0;
"7" = 0;
"8" = 0;
"9" = 0;
};
};
width = 492;
},
{
associatedMasterId = m005;
layerId = "8990DC5B-DF67-4CFD-AA43-9AA308B5B5F2";
name = ARCHIVE;
shapes = (
{
closed = 1;
nodes = (
(50,170,ls),
(50,60,o),
(110,0,o),
(220,0,cs),
(482,0,l),
(482,50,l),
(260,50,ls),
(224,50,o),
(200,70,o),
(200,100,cs),
(200,700,l),
(50,700,l)
);
}
);
userData = {
com.hugojourdan.ColorFlow = {
"0" = 0;
"1" = 0;
"10" = 0;
"11" = 0;
"2" = 0;
"3" = 0;
"4" = 0;
"5" = 0;
"6" = 0;
"7" = 0;
"8" = 0;
"9" = 0;
};
};
width = 492;
},
{
layerId = m006;
name = REGULAR;
shapes = (
{
closed = 1;
nodes = (
(50,190,ls),
(50,70,o),
(120,0,o),
(240,0,cs),
(542,0,l),
(542,50,l),
(290,50,ls),
(290,50,o),
(290,50,o),
(290,50,cs),
(290,700,l),
(50,700,l)
);
}
);
userData = {
com.hugojourdan.ColorFlow = {
"0" = 0;
"1" = 0;
"10" = 0;
"11" = 0;
"2" = 0;
"3" = 0;
"4" = 0;
"5" = 0;
"6" = 0;
"7" = 0;
"8" = 0;
"9" = 0;
};
};
width = 552;
},
{
associatedMasterId = m006;
layerId = "57D0795B-E7B2-487B-A05D-1579971A3946";
name = CONTRAST_TEST;
shapes = (
{
closed = 1;
nodes = (
(50,190,ls),
(50,70,o),
(120,0,o),
(240,0,cs),
(542,0,l),
(542,50,l),
(380,50,ls),
(320,50,o),
(290,77,o),
(290,137,cs),
(290,700,l),
(50,700,l)
);
}
);
width = 552;
},
{
layerId = m007;
name = Thin;
shapes = (
{
closed = 1;
nodes = (
(50,170,ls),
(50,60,o),
(110,0,o),
(220,0,cs),
(1360,0,l),
(1360,10,l),
(224,10,ls),
(114,10,o),
(60,64,o),
(60,174,cs),
(60,700,l),
(50,700,l)
);
}
);
userData = {
com.hugojourdan.ColorFlow = {
"0" = 0;
"1" = 0;
"10" = 0;
"11" = 0;
"2" = 0;
"3" = 0;
"4" = 0;
"5" = 0;
"6" = 0;
"7" = 0;
"8" = 0;
"9" = 0;
};
};
width = 1380;
},
{
layerId = m008;
name = REGULAR;
shapes = (
{
closed = 1;
nodes = (
(50,170,ls),
(50,60,o),
(110,0,o),
(220,0,cs),
(1380,0,l),
(1380,144,l),
(200,144,ls),
(200,144,o),
(200,144,o),
(200,144,cs),
(200,700,l),
(50,700,l)
);
}
);
userData = {
com.hugojourdan.ColorFlow = {
"0" = 0;
"1" = 0;
"10" = 0;
"11" = 0;
"2" = 0;
"3" = 0;
"4" = 0;
"5" = 0;
"6" = 0;
"7" = 0;
"8" = 0;
"9" = 0;
};
};
width = 1400;
},
{
layerId = m009;
name = REGULAR;
shapes = (
{
closed = 1;
nodes = (
(50,190,ls),
(50,70,o),
(120,0,o),
(240,0,cs),
(1400,0,l),
(1400,204,l),
(290,204,ls),
(290,204,o),
(290,204,o),
(290,204,cs),
(290,700,l),
(50,700,l)
);
}
);
userData = {
com.hugojourdan.ColorFlow = {
"0" = 0;
"1" = 0;
"10" = 0;
"11" = 0;
"2" = 0;
"3" = 0;
"4" = 0;
"5" = 0;
"6" = 0;
"7" = 0;
"8" = 0;
"9" = 0;
};
};
width = 1420;
},
{
layerId = m011;
name = REGULAR;
shapes = (
{
closed = 1;
nodes = (
(50,170,ls),
(50,60,o),
(110,0,o),
(220,0,cs),
(1380,0,l),
(1380,50,l),
(200,50,ls),
(200,50,o),
(200,50,o),
(200,50,cs),
(200,700,l),
(50,700,l)
);
}
);
userData = {
com.hugojourdan.ColorFlow = {
"0" = 0;
"1" = 0;
"10" = 0;
"11" = 0;
"2" = 0;
"3" = 0;
"4" = 0;
"5" = 0;
"6" = 0;
"7" = 0;
"8" = 0;
"9" = 0;
};
};
width = 1390;
},
{
layerId = m012;
name = REGULAR;
shapes = (
{
closed = 1;
nodes = (
(50,190,ls),
(50,70,o),
(120,0,o),
(240,0,cs),
(1400,0,l),
(1400,50,l),
(290,50,ls),
(290,50,o),
(290,50,o),
(290,50,cs),
(290,700,l),
(50,700,l)
);
}
);
userData = {
com.hugojourdan.ColorFlow = {
"0" = 0;
"1" = 0;
"10" = 0;
"11" = 0;
"2" = 0;
"3" = 0;
"4" = 0;
"5" = 0;
"6" = 0;
"7" = 0;
"8" = 0;
"9" = 0;
};
};
width = 1410;
},
{
layerId = "1A3F9239-4760-4FF7-8D33-C20C038CC734";
name = Thin;
shapes = (
{
closed = 1;
nodes = (
(50,170,ls),
(50,60,o),
(110,0,o),
(220,0,cs),
(1360,0,l),
(1360,10,l),
(224,10,ls),
(114,10,o),
(60,64,o),
(60,174,cs),
(60,700,l),
(50,700,l)
);
}
);
userData = {
com.hugojourdan.ColorFlow = {
"0" = 0;
"1" = 0;
"10" = 0;
"11" = 0;
"2" = 0;
"3" = 0;
"4" = 0;
"5" = 0;
"6" = 0;
"7" = 0;
"8" = 0;
"9" = 0;
};
};
width = 1380;
},
{
associatedMasterId = "EC5FEA86-72D2-42C8-BC19-2BD75AB225BC";
layerId = "E1E52AC4-C6F6-4CA4-B224-BF2E8ED5BE3E";
name = L.ss04;
shapes = (
{
closed = 1;
nodes = (
(50,170,ls),
(50,61,o),
(111,0,o),
(221,0,cs),
(510,0,l),
(510,144,l),
(228,144,ls),
(211,144,o),
(200,156,o),
(200,173,cs),
(200,700,l),
(50,700,l)
);
}
);
width = 576;
}
);
metricLeft = H;
unicode = 76;
},
{
glyphname = M;
kernLeft = A;
kernRight = A;
lastChange = "2026-02-25 20:41:02 +0000";
layers = (
{
layerId = "EC5FEA86-72D2-42C8-BC19-2BD75AB225BC";
name = REGULAR;
shapes = (
{
closed = 1;
nodes = (
(190,0,l),
(190,459,ls),
(190,525,o),
(229,566,o),
(287,566,cs),
(287,566,l),
(345,566,o),
(383,525,o),
(383,459,cs),
(383,0,l),
(533,0,l),
(533,459,ls),
(533,525,o),
(571,566,o),
(629,566,c),
(629,566,l),
(687,566,o),
(726,525,o),
(726,459,cs),
(726,0,l),
(876,0,l),
(876,446,ls),
(876,610,o),
(779,710,o),
(629,710,c),
(629,710,ls),
(563,710,o),
(495,680,o),
(458,632,c),
(421,680,o),
(353,710,o),
(287,710,c),
(287,710,ls),
(137,710,o),
(40,610,o),
(40,446,cs),
(40,0,l)
);
}
);
userData = {
com.hugojourdan.ColorFlow = {
"0" = 0;
"1" = 0;
"10" = 0;
"11" = 0;
"2" = 0;
"3" = 0;
"4" = 0;
"5" = 0;
"6" = 0;
"7" = 0;
"8" = 0;
"9" = 0;
};
};
width = 916;
},
{
layerId = "53F0F7F5-7E63-41B5-8940-5CAB53A0CB52";
name = Thin;
shapes = (
{
closed = 1;
nodes = (
(45,0,l),
(45,483,ls),
(45,613,o),
(121,700,o),
(234,700,cs),
(234,700,l),
(339,700,o),
(423,617,o),
(423,485,cs),
(423,0,l),
(433,0,l),
(433,485,ls),
(433,617,o),
(517,700,o),
(622,700,c),
(622,700,ls),
(735,700,o),
(811,613,o),
(811,483,cs),
(811,0,l),
(821,0,l),
(821,483,ls),
(821,618,o),
(741,710,o),
(622,710,cs),
(622,710,l),
(524,710,o),
(444,640,o),
(428,538,c),
(412,640,o),
(332,710,o),
(234,710,c),
(234,710,ls),
(115,710,o),
(35,618,o),
(35,483,cs),
(35,0,l)
);
}
);
userData = {
com.hugojourdan.ColorFlow = {
"0" = 0;
"1" = 0;
"10" = 0;
"11" = 0;
"2" = 0;
"3" = 0;
"4" = 0;
"5" = 0;
"6" = 0;
"7" = 0;
"8" = 0;
"9" = 0;
};
};
width = 856;
},
{
associatedMasterId = "EC5FEA86-72D2-42C8-BC19-2BD75AB225BC";
layerId = "931E8DD0-448A-4A0C-8379-E6CCCC7BA0D4";
name = M.ss01;
shapes = (
{
closed = 1;
nodes = (
(195,0,l),
(195,459,ls),
(195,525,o),
(234,566,o),
(292,566,cs),
(292,566,l),
(350,566,o),
(388,525,o),
(388,459,cs),
(388,0,l),
(538,0,l),
(538,459,ls),
(538,525,o),
(576,566,o),
(634,566,c),
(634,566,l),
(692,566,o),
(731,525,o),
(731,459,cs),
(731,0,l),
(881,0,l),
(881,446,ls),
(881,610,o),
(784,700,o),
(634,700,c),
(634,700,ls),
(568,700,o),
(358,700,o),
(292,700,c),
(292,700,ls),
(142,700,o),
(45,610,o),
(45,446,cs),
(45,0,l)
);
}
);
width = 926;
},
{
associatedMasterId = "EC5FEA86-72D2-42C8-BC19-2BD75AB225BC";
layerId = "94CE4A2E-1B63-4ADA-BD16-C4A835280BBD";
name = M.ss02;
shapes = (
{
closed = 1;
nodes = (
(195,0,l),
(195,459,ls),
(195,525,o),
(234,566,o),
(292,566,cs),
(292,566,l),
(350,566,o),
(388,525,o),
(388,459,cs),
(388,0,l),
(538,0,l),
(538,459,ls),
(538,525,o),
(576,566,o),
(634,566,c),
(634,566,l),
(692,566,o),
(731,525,o),
(731,459,cs),
(731,0,l),
(881,0,l),
(881,446,ls),
(881,610,o),
(784,700,o),
(634,700,c),
(634,700,l),
(45,700,l),
(45,0,l)
);
}
);
width = 926;
},
{
associatedMasterId = "EC5FEA86-72D2-42C8-BC19-2BD75AB225BC";
layerId = "CAAE165A-C4BE-422A-BAB7-7A5B27415226";
name = M.ss03;
shapes = (
{
closed = 1;
nodes = (
(165,0,l),
(165,459,ls),
(165,525,o),
(204,566,o),
(262,566,cs),
(262,566,l),
(320,566,o),
(358,525,o),
(358,459,cs),
(358,0,l),
(508,0,l),
(508,459,ls),
(508,525,o),
(546,566,o),
(604,566,c),
(604,566,l),
(662,566,o),
(701,525,o),
(701,459,cs),
(701,0,l),
(851,0,l),
(851,700,l),
(15,700,l),
(15,0,l)
);
}
);
width = 866;
},
{
associatedMasterId = "EC5FEA86-72D2-42C8-BC19-2BD75AB225BC";
layerId = "FD8ED5E2-8863-40EF-A64D-FAAC1FBB4A74";
name = M.ss04;
shapes = (
{
closed = 1;
nodes = (
(40,0,l),
(190,0,l),
(190,531,l),
(297,83,ls),
(325,-36,o),
(485,-36,o),
(513,83,cs),
(620,531,l),
(620,0,l),
(770,0,l),
(770,558,ls),
(770,671,o),
(705,710,o),
(632,710,cs),
(557,710,o),
(509,675,o),
(487,574,cs),
(405,204,l),
(324,574,ls),
(302,674,o),
(253,710,o),
(178,710,cs),
(105,710,o),
(40,671,o),
(40,558,cs)
);
}
);
width = 810;
},
{
associatedMasterId = "EC5FEA86-72D2-42C8-BC19-2BD75AB225BC";
layerId = "5AE5ED39-FB53-4A03-B5EA-66B3C60953BC";
name = M.ss05;
shapes = (
{
closed = 1;
nodes = (
(190,0,l),
(190,566,l),
(287,566,l),
(287,566,l),
(345,566,o),
(383,525,o),
(383,459,cs),
(383,0,l),
(533,0,l),
(533,566,l),
(629,566,l),
(629,566,l),
(687,566,o),
(726,525,o),
(726,459,cs),
(726,0,l),
(876,0,l),
(876,446,ls),
(876,610,o),
(779,700,o),
(629,700,c),
(629,700,l),
(40,700,l),
(40,0,l)
);
}
);
width = 916;
},
{
associatedMasterId = "EC5FEA86-72D2-42C8-BC19-2BD75AB225BC";
layerId = "BD94B547-5F3B-4807-A3F6-FECEBD14D15D";
name = M.ss06;
shapes = (
{
closed = 1;
nodes = (
(190,0,l),
(190,566,l),
(383,566,l),
(383,0,l),
(533,0,l),
(533,566,l),
(629,566,l),
(629,566,l),
(687,566,o),
(726,525,o),
(726,459,cs),
(726,0,l),
(876,0,l),
(876,446,ls),
(876,610,o),
(779,700,o),
(629,700,c),
(629,700,l),
(40,700,l),
(40,0,l)
);
}
);
width = 916;
},
{
layerId = m003;
name = "EXTRA-BOLD";
shapes = (
{
closed = 1;
nodes = (
(275,0,l),
(275,433,ls),
(275,468,o),
(294,490,o),
(321,490,cs),
(321,490,ls),
(348,490,o),
(367,468,o),
(367,433,cs),
(367,0,l),
(607,0,l),
(607,434,ls),
(607,468,o),
(626,490,o),
(653,490,cs),
(653,490,ls),
(680,490,o),
(699,468,o),
(699,434,cs),
(699,0,l),
(939,0,l),
(939,417,ls),
(939,595,o),
(851,710,o),
(688,710,cs),
(688,710,ls),
(608,710,o),
(536,692,o),
(487,633,c),
(438,692,o),
(366,710,o),
(286,710,cs),
(286,710,ls),
(123,710,o),
(35,595,o),
(35,417,cs),
(35,0,l)
);
}
);
userData = {
com.hugojourdan.ColorFlow = {
"0" = 0;
"1" = 0;
"10" = 0;
"11" = 0;
"2" = 0;
"3" = 0;
"4" = 0;
"5" = 0;
"6" = 0;
"7" = 0;
"8" = 0;
"9" = 0;
};
};
width = 974;
},
{
layerId = m006;
shapes = (
{
closed = 1;
nodes = (
(275,0,l),
(275,602,ls),
(275,637,o),
(294,659,o),
(321,659,cs),
(321,659,ls),
(348,659,o),
(367,637,o),
(367,602,cs),
(367,0,l),
(607,0,l),
(607,603,ls),
(607,637,o),
(626,659,o),
(653,659,cs),
(653,659,ls),
(680,659,o),
(699,637,o),
(699,603,cs),
(699,0,l),
(939,0,l),
(939,417,ls),
(939,595,o),
(851,710,o),
(688,710,cs),
(688,710,ls),
(608,710,o),
(536,692,o),
(487,623,c),
(438,692,o),
(366,710,o),
(286,710,cs),
(286,710,ls),
(123,710,o),
(35,595,o),
(35,417,cs),
(35,0,l)
);
}
);
userData = {
com.hugojourdan.ColorFlow = {
"0" = 0;
"1" = 0;
"10" = 0;
"11" = 0;
"2" = 0;
"3" = 0;
"4" = 0;
"5" = 0;
"6" = 0;
"7" = 0;
"8" = 0;
"9" = 0;
};
};
width = 974;
},
{
layerId = m004;
shapes = (
{
closed = 1;
nodes = (
(45,0,l),
(45,483,ls),
(45,613,o),
(121,700,o),
(234,700,cs),
(234,700,l),
(339,700,o),
(423,617,o),
(423,485,cs),
(423,0,l),
(433,0,l),
(433,485,ls),
(433,617,o),
(517,700,o),
(622,700,c),
(622,700,ls),
(735,700,o),
(811,613,o),
(811,483,cs),
(811,0,l),
(821,0,l),
(821,483,ls),
(821,618,o),
(741,710,o),
(622,710,cs),
(622,710,l),
(524,710,o),
(444,640,o),
(428,538,c),
(412,640,o),
(332,710,o),
(234,710,c),
(234,710,ls),
(115,710,o),
(35,618,o),
(35,483,cs),
(35,0,l)
);
}
);
userData = {
com.hugojourdan.ColorFlow = {
"0" = 0;
"1" = 0;
"10" = 0;
"11" = 0;
"2" = 0;
"3" = 0;
"4" = 0;
"5" = 0;
"6" = 0;
"7" = 0;
"8" = 0;
"9" = 0;
};
};
width = 856;
},
{
layerId = m005;
shapes = (
{
closed = 1;
nodes = (
(185,0,l),
(185,553,ls),
(185,619,o),
(224,660,o),
(282,660,cs),
(282,660,l),
(340,660,o),
(378,619,o),
(378,553,cs),
(378,0,l),
(528,0,l),
(528,553,ls),
(528,619,o),
(566,660,o),
(624,660,c),
(624,660,l),
(682,660,o),
(721,619,o),
(721,553,cs),
(721,0,l),
(871,0,l),
(871,446,ls),
(871,610,o),
(774,710,o),
(624,710,c),
(624,710,ls),
(558,710,o),
(490,680,o),
(453,632,c),
(416,680,o),
(348,710,o),
(282,710,c),
(282,710,ls),
(132,710,o),
(35,610,o),
(35,446,cs),
(35,0,l)
);
}
);
userData = {
com.hugojourdan.ColorFlow = {
"0" = 0;
"1" = 0;
"10" = 0;
"11" = 0;
"2" = 0;
"3" = 0;
"4" = 0;
"5" = 0;
"6" = 0;
"7" = 0;
"8" = 0;
"9" = 0;
};
};
width = 906;
},
{
layerId = m007;
name = Thin;
shapes = (
{
closed = 1;
nodes = (
(55,0,l),
(55,473,ls),
(55,603,o),
(131,690,o),
(244,690,cs),
(996,690,l),
(1101,690,o),
(1185,607,o),
(1185,475,cs),
(1185,0,l),
(1195,0,l),
(1195,475,ls),
(1195,607,o),
(1279,690,o),
(1384,690,c),
(2136,690,ls),
(2249,690,o),
(2325,603,o),
(2325,473,cs),
(2325,0,l),
(2335,0,l),
(2335,473,ls),
(2335,608,o),
(2255,700,o),
(2136,700,cs),
(1384,700,l),
(1286,700,o),
(1206,630,o),
(1190,528,c),
(1174,630,o),
(1094,700,o),
(996,700,c),
(244,700,ls),
(125,700,o),
(45,608,o),
(45,473,cs),
(45,0,l)
);
}
);
userData = {
com.hugojourdan.ColorFlow = {
"0" = 0;
"1" = 0;
"10" = 0;
"11" = 0;
"2" = 0;
"3" = 0;
"4" = 0;
"5" = 0;
"6" = 0;
"7" = 0;
"8" = 0;
"9" = 0;
};
};
width = 2380;
},
{
layerId = m008;
name = REGULAR;
shapes = (
{
closed = 1;
nodes = (
(195,0,l),
(195,449,ls),
(195,515,o),
(234,556,o),
(292,556,cs),
(1029,556,l),
(1087,556,o),
(1125,515,o),
(1125,449,cs),
(1125,0,l),
(1275,0,l),
(1275,449,ls),
(1275,515,o),
(1313,556,o),
(1371,556,c),
(2108,556,l),
(2166,556,o),
(2205,515,o),
(2205,449,cs),
(2205,0,l),
(2355,0,l),
(2355,436,ls),
(2355,600,o),
(2258,700,o),
(2108,700,c),
(1371,700,ls),
(1305,700,o),
(1217,670,o),
(1200,599,c),
(1183,670,o),
(1095,700,o),
(1029,700,c),
(292,700,ls),
(142,700,o),
(45,600,o),
(45,436,cs),
(45,0,l)
);
}
);
userData = {
com.hugojourdan.ColorFlow = {
"0" = 0;
"1" = 0;
"10" = 0;
"11" = 0;
"2" = 0;
"3" = 0;
"4" = 0;
"5" = 0;
"6" = 0;
"7" = 0;
"8" = 0;
"9" = 0;
};
};
width = 2400;
},
{
layerId = m009;
name = "EXTRA-BOLD";
shapes = (
{
closed = 1;
nodes = (
(285,0,l),
(285,423,ls),
(285,458,o),
(304,480,o),
(331,480,cs),
(1004,480,ls),
(1031,480,o),
(1050,458,o),
(1050,423,cs),
(1050,0,l),
(1290,0,l),
(1290,424,ls),
(1290,458,o),
(1309,480,o),
(1336,480,cs),
(2009,480,ls),
(2036,480,o),
(2055,458,o),
(2055,424,cs),
(2055,0,l),
(2295,0,l),
(2295,407,ls),
(2295,585,o),
(2207,700,o),
(2044,700,cs),
(1371,700,ls),
(1291,700,o),
(1219,682,o),
(1170,623,c),
(1121,682,o),
(1059,700,o),
(979,700,cs),
(296,700,ls),
(133,700,o),
(45,585,o),
(45,407,cs),
(45,0,l)
);
}
);
userData = {
com.hugojourdan.ColorFlow = {
"0" = 0;
"1" = 0;
"10" = 0;
"11" = 0;
"2" = 0;
"3" = 0;
"4" = 0;
"5" = 0;
"6" = 0;
"7" = 0;
"8" = 0;
"9" = 0;
};
};
width = 2340;
},
{
layerId = m011;
shapes = (
{
closed = 1;
nodes = (
(185,0,l),
(185,543,ls),
(185,609,o),
(224,650,o),
(282,650,cs),
(1019,650,l),
(1077,650,o),
(1115,609,o),
(1115,543,cs),
(1115,0,l),
(1265,0,l),
(1265,543,ls),
(1265,609,o),
(1303,650,o),
(1361,650,c),
(2098,650,l),
(2156,650,o),
(2195,609,o),
(2195,543,cs),
(2195,0,l),
(2345,0,l),
(2345,466,ls),
(2345,630,o),
(2248,700,o),
(2098,700,c),
(1361,700,ls),
(1295,700,o),
(1227,670,o),
(1190,622,c),
(1153,670,o),
(1085,700,o),
(1019,700,c),
(282,700,ls),
(132,700,o),
(35,630,o),
(35,466,cs),
(35,0,l)
);
}
);
userData = {
com.hugojourdan.ColorFlow = {
"0" = 0;
"1" = 0;
"10" = 0;
"11" = 0;
"2" = 0;
"3" = 0;
"4" = 0;
"5" = 0;
"6" = 0;
"7" = 0;
"8" = 0;
"9" = 0;
};
};
width = 2380;
},
{
layerId = m012;
shapes = (
{
closed = 1;
nodes = (
(275,0,l),
(275,602,ls),
(275,637,o),
(294,659,o),
(321,659,cs),
(994,659,ls),
(1021,659,o),
(1040,637,o),
(1040,602,cs),
(1040,0,l),
(1280,0,l),
(1280,603,ls),
(1280,637,o),
(1299,659,o),
(1326,659,cs),
(1999,659,ls),
(2026,659,o),
(2045,637,o),
(2045,603,cs),
(2045,0,l),
(2285,0,l),
(2285,437,ls),
(2285,615,o),
(2197,710,o),
(2034,710,cs),
(1361,710,ls),
(1281,710,o),
(1209,692,o),
(1160,623,c),
(1111,692,o),
(1039,710,o),
(959,710,cs),
(286,710,ls),
(123,710,o),
(35,615,o),
(35,437,cs),
(35,0,l)
);
}
);
userData = {
com.hugojourdan.ColorFlow = {
"0" = 0;
"1" = 0;
"10" = 0;
"11" = 0;
"2" = 0;
"3" = 0;
"4" = 0;
"5" = 0;
"6" = 0;
"7" = 0;
"8" = 0;
"9" = 0;
};
};
width = 2320;
},
{
layerId = "1A3F9239-4760-4FF7-8D33-C20C038CC734";
name = Thin;
shapes = (
{
closed = 1;
nodes = (
(55,0,l),
(55,473,ls),
(55,603,o),
(131,690,o),
(244,690,cs),
(996,690,l),
(1101,690,o),
(1185,607,o),
(1185,475,cs),
(1185,0,l),
(1195,0,l),
(1195,475,ls),
(1195,607,o),
(1279,690,o),
(1384,690,c),
(2136,690,ls),
(2249,690,o),
(2325,603,o),
(2325,473,cs),
(2325,0,l),
(2335,0,l),
(2335,473,ls),
(2335,608,o),
(2255,700,o),
(2136,700,cs),
(1384,700,l),
(1286,700,o),
(1206,630,o),
(1190,528,c),
(1174,630,o),
(1094,700,o),
(996,700,c),
(244,700,ls),
(125,700,o),
(45,608,o),
(45,473,cs),
(45,0,l)
);
}
);
userData = {
com.hugojourdan.ColorFlow = {
"0" = 0;
"1" = 0;
"10" = 0;
"11" = 0;
"2" = 0;
"3" = 0;
"4" = 0;
"5" = 0;
"6" = 0;
"7" = 0;
"8" = 0;
"9" = 0;
};
};
width = 2380;
}
);
metricLeft = A;
metricRight = A;
unicode = 77;
},
{
glyphname = N;
kernLeft = A;
kernRight = A;
lastChange = "2026-02-21 02:13:56 +0000";
layers = (
{
layerId = "53F0F7F5-7E63-41B5-8940-5CAB53A0CB52";
shapes = (
{
closed = 1;
nodes = (
(45,427,l),
(45,589,o),
(147,700,o),
(296,700,c),
(296,700,ls),
(445,700,o),
(547,589,o),
(547,427,c),
(547,0,l),
(557,0,l),
(557,427,ls),
(557,595,o),
(451,710,o),
(296,710,cs),
(296,710,ls),
(141,710,o),
(35,595,o),
(35,427,cs),
(35,0,l),
(45,0,l)
);
}
);
userData = {
com.hugojourdan.ColorFlow = {
"0" = 0;
"1" = 0;
"10" = 0;
"11" = 0;
"2" = 0;
"3" = 0;
"4" = 0;
"5" = 0;
"6" = 0;
"7" = 0;
"8" = 0;
"9" = 0;
};
};
width = 592;
},
{
layerId = "EC5FEA86-72D2-42C8-BC19-2BD75AB225BC";
shapes = (
{
closed = 1;
nodes = (
(195,429,l),
(195,510,o),
(248,566,o),
(326,566,c),
(326,566,ls),
(404,566,o),
(457,510,o),
(457,429,c),
(457,0,l),
(607,0,l),
(607,427,ls),
(607,595,o),
(493,710,o),
(326,710,cs),
(326,710,ls),
(159,710,o),
(45,595,o),
(45,427,cs),
(45,0,l),
(195,0,l)
);
}
);
userData = {
com.hugojourdan.ColorFlow = {
"0" = 0;
"1" = 0;
"10" = 0;
"11" = 0;
"2" = 0;
"3" = 0;
"4" = 0;
"5" = 0;
"6" = 0;
"7" = 0;
"8" = 0;
"9" = 0;
};
};
width = 652;
},
{
associatedMasterId = "EC5FEA86-72D2-42C8-BC19-2BD75AB225BC";
layerId = "85E1DC89-C09D-458D-B9EE-7916E8AC926D";
name = N.ss01;
shapes = (
{
closed = 1;
nodes = (
(190,556,l),
(321,556,l),
(403,556,o),
(452,501,o),
(452,419,c),
(452,0,l),
(602,0,l),
(602,417,ls),
(602,589,o),
(494,700,o),
(321,700,cs),
(40,700,l),
(40,0,l),
(190,0,l)
);
}
);
width = 642;
},
{
associatedMasterId = "EC5FEA86-72D2-42C8-BC19-2BD75AB225BC";
layerId = "175876C2-AF46-4105-AC6A-9037E93E2AE8";
name = N.ss02;
shapes = (
{
closed = 1;
nodes = (
(40,0,l),
(190,0,l),
(190,435,l),
(435,65,ls),
(463,22,o),
(493,0,o),
(545,0,cs),
(545,0,ls),
(593,0,o),
(630,34,o),
(630,97,cs),
(630,700,l),
(480,700,l),
(480,264,l),
(236,635,ls),
(207,680,o),
(177,700,o),
(125,700,cs),
(125,700,ls),
(77,700,o),
(40,666,o),
(40,603,cs)
);
}
);
width = 670;
},
{
associatedMasterId = "EC5FEA86-72D2-42C8-BC19-2BD75AB225BC";
layerId = "5256523A-714A-4812-8029-CED7D23DAEBB";
name = N.ss03;
shapes = (
{
closed = 1;
nodes = (
(190,556,l),
(275,556,l),
(357,556,o),
(386,500,o),
(405,419,cs),
(502,0,l),
(655,0,l),
(558,417,ls),
(519,585,o),
(455,700,o),
(276,700,cs),
(40,700,l),
(40,0,l),
(190,0,l)
);
}
);
width = 695;
},
{
associatedMasterId = "EC5FEA86-72D2-42C8-BC19-2BD75AB225BC";
layerId = "4F27F85E-C013-4C4C-800A-A9251D6A99A2";
name = N.ss04;
shapes = (
{
closed = 1;
nodes = (
(190,429,l),
(190,510,o),
(243,566,o),
(321,566,c),
(321,566,ls),
(399,566,o),
(452,510,o),
(452,429,c),
(452,0,l),
(602,0,l),
(602,700,l),
(40,700,l),
(40,0,l),
(190,0,l)
);
}
);
width = 642;
},
{
layerId = m003;
shapes = (
{
closed = 1;
nodes = (
(277,426,l),
(277,472,o),
(302,496,o),
(338,496,c),
(338,496,ls),
(374,496,o),
(399,472,o),
(399,426,c),
(399,0,l),
(641,0,l),
(641,417,ls),
(641,595,o),
(516,710,o),
(338,710,cs),
(338,710,ls),
(160,710,o),
(35,595,o),
(35,417,cs),
(35,0,l),
(277,0,l)
);
}
);
userData = {
com.hugojourdan.ColorFlow = {
"0" = 0;
"1" = 0;
"10" = 0;
"11" = 0;
"2" = 0;
"3" = 0;
"4" = 0;
"5" = 0;
"6" = 0;
"7" = 0;
"8" = 0;
"9" = 0;
};
};
width = 676;
},
{
layerId = m004;
shapes = (
{
closed = 1;
nodes = (
(45,427,l),
(45,589,o),
(147,700,o),
(296,700,c),
(296,700,ls),
(445,700,o),
(547,589,o),
(547,427,c),
(547,0,l),
(557,0,l),
(557,427,ls),
(557,595,o),
(451,710,o),
(296,710,cs),
(296,710,ls),
(141,710,o),
(35,595,o),
(35,427,cs),
(35,0,l),
(45,0,l)
);
}
);
userData = {
com.hugojourdan.ColorFlow = {
"0" = 0;
"1" = 0;
"10" = 0;
"11" = 0;
"2" = 0;
"3" = 0;
"4" = 0;
"5" = 0;
"6" = 0;
"7" = 0;
"8" = 0;
"9" = 0;
};
};
width = 592;
},
{
layerId = m005;
shapes = (
{
closed = 1;
nodes = (
(185,523,l),
(185,604,o),
(238,660,o),
(316,660,c),
(316,660,ls),
(394,660,o),
(447,604,o),
(447,523,c),
(447,0,l),
(597,0,l),
(597,427,ls),
(597,595,o),
(483,710,o),
(316,710,cs),
(316,710,ls),
(149,710,o),
(35,595,o),
(35,427,cs),
(35,0,l),
(185,0,l)
);
}
);
userData = {
com.hugojourdan.ColorFlow = {
"0" = 0;
"1" = 0;
"10" = 0;
"11" = 0;
"2" = 0;
"3" = 0;
"4" = 0;
"5" = 0;
"6" = 0;
"7" = 0;
"8" = 0;
"9" = 0;
};
};
width = 632;
},
{
layerId = m006;
shapes = (
{
closed = 1;
nodes = (
(277,590,l),
(277,636,o),
(302,660,o),
(338,660,c),
(338,660,ls),
(374,660,o),
(399,636,o),
(399,590,c),
(399,0,l),
(641,0,l),
(641,417,ls),
(641,595,o),
(516,710,o),
(338,710,cs),
(338,710,ls),
(160,710,o),
(35,595,o),
(35,417,cs),
(35,0,l),
(277,0,l)
);
}
);
userData = {
com.hugojourdan.ColorFlow = {
"0" = 0;
"1" = 0;
"10" = 0;
"11" = 0;
"2" = 0;
"3" = 0;
"4" = 0;
"5" = 0;
"6" = 0;
"7" = 0;
"8" = 0;
"9" = 0;
};
};
width = 676;
},
{
layerId = m007;
shapes = (
{
closed = 1;
nodes = (
(55,417,l),
(55,579,o),
(157,690,o),
(306,690,c),
(1254,690,ls),
(1403,690,o),
(1505,579,o),
(1505,417,c),
(1505,0,l),
(1515,0,l),
(1515,417,ls),
(1515,585,o),
(1409,700,o),
(1254,700,cs),
(306,700,ls),
(151,700,o),
(45,585,o),
(45,417,cs),
(45,0,l),
(55,0,l)
);
}
);
userData = {
com.hugojourdan.ColorFlow = {
"0" = 0;
"1" = 0;
"10" = 0;
"11" = 0;
"2" = 0;
"3" = 0;
"4" = 0;
"5" = 0;
"6" = 0;
"7" = 0;
"8" = 0;
"9" = 0;
};
};
width = 1560;
},
{
layerId = m008;
shapes = (
{
closed = 1;
nodes = (
(195,419,l),
(195,500,o),
(248,556,o),
(326,556,c),
(1264,556,ls),
(1342,556,o),
(1395,500,o),
(1395,419,c),
(1395,0,l),
(1545,0,l),
(1545,417,ls),
(1545,585,o),
(1431,700,o),
(1264,700,cs),
(326,700,ls),
(159,700,o),
(45,585,o),
(45,417,cs),
(45,0,l),
(195,0,l)
);
}
);
userData = {
com.hugojourdan.ColorFlow = {
"0" = 0;
"1" = 0;
"10" = 0;
"11" = 0;
"2" = 0;
"3" = 0;
"4" = 0;
"5" = 0;
"6" = 0;
"7" = 0;
"8" = 0;
"9" = 0;
};
};
width = 1590;
},
{
layerId = m009;
shapes = (
{
closed = 1;
nodes = (
(287,416,l),
(287,462,o),
(312,486,o),
(348,486,c),
(1252,486,ls),
(1288,486,o),
(1313,462,o),
(1313,416,c),
(1313,0,l),
(1555,0,l),
(1555,407,ls),
(1555,585,o),
(1430,700,o),
(1252,700,cs),
(348,700,ls),
(170,700,o),
(45,585,o),
(45,407,cs),
(45,0,l),
(287,0,l)
);
}
);
userData = {
com.hugojourdan.ColorFlow = {
"0" = 0;
"1" = 0;
"10" = 0;
"11" = 0;
"2" = 0;
"3" = 0;
"4" = 0;
"5" = 0;
"6" = 0;
"7" = 0;
"8" = 0;
"9" = 0;
};
};
width = 1600;
},
{
layerId = m011;
shapes = (
{
closed = 1;
nodes = (
(185,513,l),
(185,594,o),
(238,650,o),
(316,650,c),
(1254,650,ls),
(1332,650,o),
(1385,594,o),
(1385,513,c),
(1385,0,l),
(1535,0,l),
(1535,447,ls),
(1535,615,o),
(1421,700,o),
(1254,700,cs),
(316,700,ls),
(149,700,o),
(35,615,o),
(35,447,cs),
(35,0,l),
(185,0,l)
);
}
);
userData = {
com.hugojourdan.ColorFlow = {
"0" = 0;
"1" = 0;
"10" = 0;
"11" = 0;
"2" = 0;
"3" = 0;
"4" = 0;
"5" = 0;
"6" = 0;
"7" = 0;
"8" = 0;
"9" = 0;
};
};
width = 1570;
},
{
layerId = m012;
shapes = (
{
closed = 1;
nodes = (
(277,580,l),
(277,626,o),
(302,650,o),
(338,650,c),
(1240,650,ls),
(1276,650,o),
(1301,626,o),
(1301,580,c),
(1301,0,l),
(1543,0,l),
(1543,427,ls),
(1543,605,o),
(1418,700,o),
(1240,700,cs),
(338,700,ls),
(160,700,o),
(35,605,o),
(35,427,cs),
(35,0,l),
(277,0,l)
);
}
);
userData = {
com.hugojourdan.ColorFlow = {
"0" = 0;
"1" = 0;
"10" = 0;
"11" = 0;
"2" = 0;
"3" = 0;
"4" = 0;
"5" = 0;
"6" = 0;
"7" = 0;
"8" = 0;
"9" = 0;
};
};
width = 1578;
},
{
layerId = "1A3F9239-4760-4FF7-8D33-C20C038CC734";
shapes = (
{
closed = 1;
nodes = (
(55,417,l),
(55,579,o),
(157,690,o),
(306,690,c),
(1254,690,ls),
(1403,690,o),
(1505,579,o),
(1505,417,c),
(1505,0,l),
(1515,0,l),
(1515,417,ls),
(1515,585,o),
(1409,700,o),
(1254,700,cs),
(306,700,ls),
(151,700,o),
(45,585,o),
(45,417,cs),
(45,0,l),
(55,0,l)
);
}
);
userData = {
com.hugojourdan.ColorFlow = {
"0" = 0;
"1" = 0;
"10" = 0;
"11" = 0;
"2" = 0;
"3" = 0;
"4" = 0;
"5" = 0;
"6" = 0;
"7" = 0;
"8" = 0;
"9" = 0;
};
};
width = 1560;
}
);
metricLeft = A;
metricRight = A;
unicode = 78;
},
{
glyphname = O;
kernLeft = O;
kernRight = O;
lastChange = "2026-02-21 02:14:24 +0000";
layers = (
{
layerId = "53F0F7F5-7E63-41B5-8940-5CAB53A0CB52";
shapes = (
{
closed = 1;
nodes = (
(588,-10,o),
(740,142,o),
(740,350,cs),
(740,558,o),
(588,710,o),
(380,710,cs),
(380,710,l),
(172,710,o),
(20,558,o),
(20,350,cs),
(20,142,o),
(172,-10,o),
(380,-10,c),
(380,-10,ls)
);
},
{
closed = 1;
nodes = (
(380,0,l),
(177,0,o),
(30,147,o),
(30,350,cs),
(30,553,o),
(177,700,o),
(380,700,c),
(380,700,ls),
(583,700,o),
(730,553,o),
(730,350,cs),
(730,147,o),
(583,0,o),
(380,0,cs)
);
}
);
userData = {
com.hugojourdan.ColorFlow = {
"0" = 0;
"1" = 0;
"10" = 0;
"11" = 0;
"2" = 0;
"3" = 0;
"4" = 0;
"5" = 0;
"6" = 0;
"7" = 0;
"8" = 0;
"9" = 0;
};
};
width = 760;
},
{
layerId = "EC5FEA86-72D2-42C8-BC19-2BD75AB225BC";
name = REGULAR;
shapes = (
{
closed = 1;
nodes = (
(586,-10,o),
(744,146,o),
(744,348,cs),
(744,552,o),
(586,710,o),
(382,710,cs),
(382,710,l),
(178,710,o),
(20,552,o),
(20,348,cs),
(20,146,o),
(178,-10,o),
(382,-10,c),
(382,-10,l)
);
},
{
closed = 1;
nodes = (
(382,134,l),
(263,134,o),
(172,227,o),
(172,348,cs),
(172,471,o),
(263,566,o),
(382,566,c),
(382,566,ls),
(501,566,o),
(592,471,o),
(592,348,cs),
(592,227,o),
(501,134,o),
(382,134,c)
);
}
);
userData = {
com.hugojourdan.ColorFlow = {
"0" = 0;
"1" = 0;
"10" = 0;
"11" = 0;
"2" = 0;
"3" = 0;
"4" = 0;
"5" = 0;
"6" = 0;
"7" = 0;
"8" = 0;
"9" = 0;
};
};
width = 764;
},
{
associatedMasterId = "EC5FEA86-72D2-42C8-BC19-2BD75AB225BC";
layerId = "99273F21-885D-4251-88C4-D979C9E2F2F4";
name = O.ss01;
shapes = (
{
closed = 1;
nodes = (
(576,-10,o),
(734,146,o),
(734,348,cs),
(734,552,o),
(576,710,o),
(372,710,cs),
(372,710,l),
(168,710,o),
(10,552,o),
(10,348,cs),
(10,146,o),
(168,-10,o),
(372,-10,c),
(372,-10,l)
);
},
{
closed = 1;
nodes = (
(372,134,l),
(253,134,o),
(162,227,o),
(162,348,cs),
(162,471,o),
(253,566,o),
(372,566,c),
(372,566,ls),
(491,566,o),
(582,471,o),
(582,348,cs),
(582,227,o),
(491,134,o),
(372,134,c)
);
},
{
closed = 1;
nodes = (
(424,255,o),
(467,297,o),
(467,350,cs),
(467,402,o),
(424,445,o),
(372,445,cs),
(319,445,o),
(277,402,o),
(277,350,cs),
(277,297,o),
(319,255,o),
(372,255,cs)
);
}
);
userData = {
com.hugojourdan.ColorFlow = {
"0" = 0;
"1" = 0;
"10" = 0;
"11" = 0;
"2" = 0;
"3" = 0;
"4" = 0;
"5" = 0;
"6" = 0;
"7" = 0;
"8" = 0;
"9" = 0;
};
};
width = 744;
},
{
associatedMasterId = "EC5FEA86-72D2-42C8-BC19-2BD75AB225BC";
layerId = "879F5EF8-9E5F-45E8-822F-BACCE519DF76";
name = O.ss02;
shapes = (
{
closed = 1;
nodes = (
(739,700,l),
(15,700,l),
(15,0,l),
(739,0,l)
);
},
{
closed = 1;
nodes = (
(377,134,l),
(258,134,o),
(167,227,o),
(167,348,cs),
(167,471,o),
(258,566,o),
(377,566,c),
(377,566,ls),
(496,566,o),
(587,471,o),
(587,348,cs),
(587,227,o),
(496,134,o),
(377,134,c)
);
}
);
width = 754;
},
{
associatedMasterId = "EC5FEA86-72D2-42C8-BC19-2BD75AB225BC";
layerId = "5B3018D4-F2AE-4652-8D46-BF3EBA220A3A";
name = O.ss05;
shapes = (
{
closed = 1;
nodes = (
(576,-10,o),
(734,146,o),
(734,348,cs),
(734,552,o),
(576,710,o),
(372,710,cs),
(372,710,l),
(168,710,o),
(10,552,o),
(10,348,cs),
(10,146,o),
(168,-10,o),
(372,-10,c),
(372,-10,l)
);
},
{
closed = 1;
nodes = (
(372,134,l),
(253,134,o),
(162,227,o),
(162,348,cs),
(162,471,o),
(253,566,o),
(372,566,c),
(372,566,ls),
(491,566,o),
(582,471,o),
(582,348,cs),
(582,227,o),
(491,134,o),
(372,134,c)
);
},
{
closed = 1;
nodes = (
(277,255,l),
(467,255,l),
(467,445,l),
(277,445,l)
);
}
);
width = 744;
},
{
associatedMasterId = "EC5FEA86-72D2-42C8-BC19-2BD75AB225BC";
layerId = "73BB6F63-5866-4064-B27C-F088A607C9FE";
name = O.ss06;
shapes = (
{
closed = 1;
nodes = (
(576,-10,o),
(734,146,o),
(734,348,cs),
(734,552,o),
(576,710,o),
(372,710,cs),
(372,710,l),
(168,710,o),
(10,552,o),
(10,348,cs),
(10,146,o),
(168,-10,o),
(372,-10,c),
(372,-10,l)
);
},
{
closed = 1;
nodes = (
(372,134,l),
(253,134,o),
(162,227,o),
(162,348,cs),
(162,471,o),
(253,566,o),
(372,566,c),
(372,566,ls),
(491,566,o),
(582,471,o),
(582,348,cs),
(582,227,o),
(491,134,o),
(372,134,c)
);
},
{
closed = 1;
nodes = (
(247,260,l),
(497,260,l),
(372,483,l)
);
}
);
width = 744;
},
{
associatedMasterId = "EC5FEA86-72D2-42C8-BC19-2BD75AB225BC";
layerId = "07CBDE97-6139-4A9E-903C-63B7AC59CF25";
name = O.ss07;
shapes = (
{
closed = 1;
nodes = (
(581,-10,o),
(734,141,o),
(734,348,cs),
(734,557,o),
(581,710,o),
(372,710,cs),
(372,710,l),
(163,710,o),
(10,557,o),
(10,348,cs),
(10,141,o),
(163,-10,o),
(372,-10,c),
(372,-10,l)
);
},
{
closed = 1;
nodes = (
(372,134,l),
(250,134,o),
(162,224,o),
(162,348,cs),
(162,474,o),
(250,566,o),
(372,566,c),
(372,566,ls),
(494,566,o),
(582,474,o),
(582,348,cs),
(582,224,o),
(494,134,o),
(372,134,c)
);
},
{
closed = 1;
nodes = (
(10,-10,l),
(373,-10,l),
(373,134,l),
(10,134,l)
);
},
{
closed = 1;
nodes = (
(372,566,l),
(735,566,l),
(735,710,l),
(372,710,l)
);
}
);
width = 744;
},
{
layerId = m003;
name = REGULAR;
shapes = (
{
closed = 1;
nodes = (
(588,-10,o),
(748,146,o),
(748,348,cs),
(748,552,o),
(588,710,o),
(384,710,cs),
(384,710,l),
(180,710,o),
(20,552,o),
(20,348,cs),
(20,146,o),
(180,-10,o),
(384,-10,c),
(384,-10,l)
);
},
{
closed = 1;
nodes = (
(384,224,l),
(314,224,o),
(262,278,o),
(262,349,cs),
(262,421,o),
(314,476,o),
(384,476,c),
(384,476,ls),
(454,476,o),
(506,421,o),
(506,349,cs),
(506,278,o),
(454,224,o),
(384,224,c)
);
}
);
userData = {
com.hugojourdan.ColorFlow = {
"0" = 0;
"1" = 0;
"10" = 0;
"11" = 0;
"2" = 0;
"3" = 0;
"4" = 0;
"5" = 0;
"6" = 0;
"7" = 0;
"8" = 0;
"9" = 0;
};
};
width = 768;
},
{
layerId = m004;
shapes = (
{
closed = 1;
nodes = (
(588,-10,o),
(740,142,o),
(740,350,cs),
(740,558,o),
(588,710,o),
(380,710,cs),
(380,710,l),
(172,710,o),
(20,558,o),
(20,350,cs),
(20,142,o),
(172,-10,o),
(380,-10,c),
(380,-10,ls)
);
},
{
closed = 1;
nodes = (
(380,0,l),
(177,0,o),
(30,147,o),
(30,350,cs),
(30,553,o),
(177,700,o),
(380,700,c),
(380,700,ls),
(583,700,o),
(730,553,o),
(730,350,cs),
(730,147,o),
(583,0,o),
(380,0,cs)
);
}
);
userData = {
com.hugojourdan.ColorFlow = {
"0" = 0;
"1" = 0;
"10" = 0;
"11" = 0;
"2" = 0;
"3" = 0;
"4" = 0;
"5" = 0;
"6" = 0;
"7" = 0;
"8" = 0;
"9" = 0;
};
};
width = 760;
},
{
layerId = m005;
name = REGULAR;
shapes = (
{
closed = 1;
nodes = (
(586,-10,o),
(744,146,o),
(744,348,cs),
(744,552,o),
(586,710,o),
(382,710,cs),
(382,710,l),
(178,710,o),
(20,552,o),
(20,348,cs),
(20,146,o),
(178,-10,o),
(382,-10,c),
(382,-10,l)
);
},
{
closed = 1;
nodes = (
(382,40,l),
(263,40,o),
(172,133,o),
(172,348,cs),
(172,565,o),
(263,660,o),
(382,660,c),
(382,660,ls),
(501,660,o),
(592,565,o),
(592,348,cs),
(592,133,o),
(501,40,o),
(382,40,c)
);
}
);
userData = {
com.hugojourdan.ColorFlow = {
"0" = 0;
"1" = 0;
"10" = 0;
"11" = 0;
"2" = 0;
"3" = 0;
"4" = 0;
"5" = 0;
"6" = 0;
"7" = 0;
"8" = 0;
"9" = 0;
};
};
width = 764;
},
{
layerId = m006;
name = REGULAR;
shapes = (
{
closed = 1;
nodes = (
(588,-10,o),
(748,146,o),
(748,348,cs),
(748,552,o),
(588,710,o),
(384,710,cs),
(384,710,l),
(180,710,o),
(20,552,o),
(20,348,cs),
(20,146,o),
(180,-10,o),
(384,-10,c),
(384,-10,l)
);
},
{
closed = 1;
nodes = (
(384,40,l),
(312,40,o),
(262,146,o),
(262,349,cs),
(262,553,o),
(312,660,o),
(384,660,c),
(384,660,ls),
(456,660,o),
(506,553,o),
(506,349,cs),
(506,146,o),
(456,40,o),
(384,40,c)
);
}
);
userData = {
com.hugojourdan.ColorFlow = {
"0" = 0;
"1" = 0;
"10" = 0;
"11" = 0;
"2" = 0;
"3" = 0;
"4" = 0;
"5" = 0;
"6" = 0;
"7" = 0;
"8" = 0;
"9" = 0;
};
};
width = 768;
},
{
layerId = m007;
shapes = (
{
closed = 1;
nodes = (
(1498,0,o),
(1650,142,o),
(1650,350,cs),
(1650,558,o),
(1498,700,o),
(1290,700,cs),
(390,700,l),
(182,700,o),
(30,558,o),
(30,350,cs),
(30,142,o),
(182,0,o),
(390,0,c),
(1290,0,ls)
);
},
{
closed = 1;
nodes = (
(390,10,l),
(187,10,o),
(40,147,o),
(40,350,cs),
(40,553,o),
(187,690,o),
(390,690,c),
(1290,690,ls),
(1493,690,o),
(1640,553,o),
(1640,350,cs),
(1640,147,o),
(1493,10,o),
(1290,10,cs)
);
}
);
userData = {
com.hugojourdan.ColorFlow = {
"0" = 0;
"1" = 0;
"10" = 0;
"11" = 0;
"2" = 0;
"3" = 0;
"4" = 0;
"5" = 0;
"6" = 0;
"7" = 0;
"8" = 0;
"9" = 0;
};
};
width = 1680;
},
{
layerId = m008;
name = REGULAR;
shapes = (
{
closed = 1;
nodes = (
(1512,0,o),
(1670,146,o),
(1670,348,cs),
(1670,552,o),
(1512,700,o),
(1308,700,cs),
(392,700,l),
(188,700,o),
(30,552,o),
(30,348,cs),
(30,146,o),
(188,0,o),
(392,0,cs),
(1308,0,ls)
);
},
{
closed = 1;
nodes = (
(392,144,ls),
(273,144,o),
(182,227,o),
(182,348,cs),
(182,471,o),
(273,556,o),
(392,556,c),
(1308,556,ls),
(1427,556,o),
(1518,471,o),
(1518,348,cs),
(1518,227,o),
(1427,144,o),
(1308,144,cs)
);
}
);
userData = {
com.hugojourdan.ColorFlow = {
"0" = 0;
"1" = 0;
"10" = 0;
"11" = 0;
"2" = 0;
"3" = 0;
"4" = 0;
"5" = 0;
"6" = 0;
"7" = 0;
"8" = 0;
"9" = 0;
};
};
width = 1700;
},
{
layerId = m009;
name = REGULAR;
shapes = (
{
closed = 1;
nodes = (
(1527,0,o),
(1680,147,o),
(1680,348,cs),
(1680,552,o),
(1527,700,o),
(1316,700,cs),
(394,700,ls),
(183,700,o),
(30,552,o),
(30,348,cs),
(30,147,o),
(183,0,o),
(394,0,cs),
(1316,0,ls)
);
},
{
closed = 1;
nodes = (
(404,214,ls),
(323,214,o),
(272,282,o),
(272,349,cs),
(272,417,o),
(323,486,o),
(404,486,cs),
(1306,486,ls),
(1387,486,o),
(1438,417,o),
(1438,349,cs),
(1438,282,o),
(1387,214,o),
(1306,214,cs)
);
}
);
userData = {
com.hugojourdan.ColorFlow = {
"0" = 0;
"1" = 0;
"10" = 0;
"11" = 0;
"2" = 0;
"3" = 0;
"4" = 0;
"5" = 0;
"6" = 0;
"7" = 0;
"8" = 0;
"9" = 0;
};
};
width = 1720;
},
{
layerId = m011;
name = REGULAR;
shapes = (
{
closed = 1;
nodes = (
(1472,0,o),
(1660,146,o),
(1660,348,cs),
(1660,552,o),
(1472,700,o),
(1168,700,cs),
(512,700,l),
(208,700,o),
(20,555,o),
(20,348,cs),
(20,143,o),
(208,0,o),
(512,0,c),
(1168,0,l)
);
},
{
closed = 1;
nodes = (
(562,50,l),
(333,50,o),
(172,133,o),
(172,348,cs),
(172,565,o),
(333,650,o),
(552,650,c),
(1118,650,ls),
(1347,650,o),
(1508,565,o),
(1508,348,cs),
(1508,133,o),
(1347,50,o),
(1118,50,c)
);
}
);
userData = {
com.hugojourdan.ColorFlow = {
"0" = 0;
"1" = 0;
"10" = 0;
"11" = 0;
"2" = 0;
"3" = 0;
"4" = 0;
"5" = 0;
"6" = 0;
"7" = 0;
"8" = 0;
"9" = 0;
};
};
width = 1680;
},
{
layerId = m012;
name = REGULAR;
shapes = (
{
closed = 1;
nodes = (
(1471,0,o),
(1671,146,o),
(1671,348,cs),
(1671,552,o),
(1471,700,o),
(1177,700,cs),
(514,700,l),
(220,700,o),
(20,552,o),
(20,348,cs),
(20,146,o),
(220,0,o),
(514,0,c),
(1177,0,l)
);
},
{
closed = 1;
nodes = (
(584,50,l),
(407,50,o),
(262,185,o),
(262,349,cs),
(262,515,o),
(407,650,o),
(584,650,c),
(1107,650,ls),
(1284,650,o),
(1429,515,o),
(1429,349,cs),
(1429,185,o),
(1284,50,o),
(1107,50,c)
);
}
);
userData = {
com.hugojourdan.ColorFlow = {
"0" = 0;
"1" = 0;
"10" = 0;
"11" = 0;
"2" = 0;
"3" = 0;
"4" = 0;
"5" = 0;
"6" = 0;
"7" = 0;
"8" = 0;
"9" = 0;
};
};
width = 1691;
},
{
layerId = "1A3F9239-4760-4FF7-8D33-C20C038CC734";
shapes = (
{
closed = 1;
nodes = (
(1498,0,o),
(1650,142,o),
(1650,350,cs),
(1650,558,o),
(1498,700,o),
(1290,700,cs),
(390,700,l),
(182,700,o),
(30,558,o),
(30,350,cs),
(30,142,o),
(182,0,o),
(390,0,c),
(1290,0,ls)
);
},
{
closed = 1;
nodes = (
(390,10,l),
(187,10,o),
(40,147,o),
(40,350,cs),
(40,553,o),
(187,690,o),
(390,690,c),
(1290,690,ls),
(1493,690,o),
(1640,553,o),
(1640,350,cs),
(1640,147,o),
(1493,10,o),
(1290,10,cs)
);
}
);
userData = {
com.hugojourdan.ColorFlow = {
"0" = 0;
"1" = 0;
"10" = 0;
"11" = 0;
"2" = 0;
"3" = 0;
"4" = 0;
"5" = 0;
"6" = 0;
"7" = 0;
"8" = 0;
"9" = 0;
};
};
width = 1680;
},
{
associatedMasterId = m012;
layerId = "68FDBA9E-BE3C-424F-8236-55C845A2758A";
name = CONTRAST_FIX;
shapes = (
{
closed = 1;
nodes = (
(1481,0,o),
(1671,146,o),
(1671,348,cs),
(1671,552,o),
(1481,700,o),
(1167,700,cs),
(524,700,l),
(210,700,o),
(20,552,o),
(20,348,cs),
(20,146,o),
(210,0,o),
(524,0,c),
(1167,0,l)
);
},
{
closed = 1;
nodes = (
(744,50,l),
(417,50,o),
(262,165,o),
(262,349,cs),
(262,535,o),
(417,650,o),
(744,650,c),
(947,650,ls),
(1274,650,o),
(1429,535,o),
(1429,349,cs),
(1429,165,o),
(1274,50,o),
(947,50,c)
);
}
);
width = 1691;
},
{
associatedMasterId = m012;
layerId = "8B1EA033-8AF9-426B-86D4-4AC709453803";
name = BOLDforEXTENDED;
shapes = (
{
closed = 1;
nodes = (
(1701,0,o),
(1891,146,o),
(1891,348,cs),
(1891,552,o),
(1701,700,o),
(1387,700,cs),
(524,700,l),
(210,700,o),
(20,552,o),
(20,348,cs),
(20,146,o),
(210,0,o),
(524,0,c),
(1387,0,l)
);
},
{
closed = 1;
nodes = (
(892,50,l),
(705,50,o),
(570,185,o),
(570,349,cs),
(570,515,o),
(705,650,o),
(892,650,c),
(1015,650,ls),
(1202,650,o),
(1337,515,o),
(1337,349,cs),
(1337,185,o),
(1202,50,o),
(1015,50,c)
);
}
);
userData = {
com.hugojourdan.ColorFlow = {
"0" = 0;
"1" = 0;
"10" = 0;
"11" = 0;
"2" = 0;
"3" = 0;
"4" = 0;
"5" = 0;
"6" = 0;
"7" = 0;
"8" = 0;
"9" = 0;
};
};
width = 1911;
}
);
note = "12 trop contrast, 10 aussi, 8 visible, 6 ok";
unicode = 79;
},
{
glyphname = P;
kernLeft = H;
kernRight = P;
lastChange = "2026-02-21 02:14:31 +0000";
layers = (
{
layerId = "53F0F7F5-7E63-41B5-8940-5CAB53A0CB52";
shapes = (
{
closed = 1;
nodes = (
(60,0,l),
(60,244,l),
(226,244,ls),
(397,244,o),
(501,322,o),
(501,472,cs),
(501,622,o),
(397,700,o),
(226,700,c),
(50,700,l),
(50,0,l)
);
},
{
closed = 1;
nodes = (
(60,690,l),
(226,690,ls),
(391,690,o),
(491,616,o),
(491,472,cs),
(491,328,o),
(391,254,o),
(226,254,cs),
(60,254,l)
);
}
);
userData = {
com.hugojourdan.ColorFlow = {
"0" = 0;
"1" = 0;
"10" = 0;
"11" = 0;
"2" = 0;
"3" = 0;
"4" = 0;
"5" = 0;
"6" = 0;
"7" = 0;
"8" = 0;
"9" = 0;
};
};
width = 521;
},
{
layerId = "EC5FEA86-72D2-42C8-BC19-2BD75AB225BC";
name = REGULAR;
shapes = (
{
closed = 1;
nodes = (
(200,0,l),
(200,204,l),
(303,204,ls),
(463,204,o),
(573,299,o),
(573,452,cs),
(573,605,o),
(463,700,o),
(303,700,c),
(50,700,l),
(50,0,l)
);
},
{
closed = 1;
nodes = (
(200,556,l),
(300,556,ls),
(372,556,o),
(421,520,o),
(421,452,cs),
(421,384,o),
(372,348,o),
(300,348,cs),
(200,348,l)
);
}
);
userData = {
com.hugojourdan.ColorFlow = {
"0" = 0;
"1" = 0;
"10" = 0;
"11" = 0;
"2" = 0;
"3" = 0;
"4" = 0;
"5" = 0;
"6" = 0;
"7" = 0;
"8" = 0;
"9" = 0;
};
};
width = 593;
},
{
associatedMasterId = "EC5FEA86-72D2-42C8-BC19-2BD75AB225BC";
layerId = "28C2530F-0D00-4307-8093-3B36C7A0214E";
name = P.ss01;
shapes = (
{
closed = 1;
nodes = (
(300,556,ls),
(372,556,o),
(421,510,o),
(421,442,cs),
(421,374,o),
(372,328,o),
(300,328,cs),
(60,328,l),
(60,0,l),
(210,0,l),
(210,184,l),
(303,184,ls),
(463,184,o),
(573,289,o),
(573,442,cs),
(573,595,o),
(463,700,o),
(303,700,c),
(60,700,l),
(60,556,l)
);
}
);
width = 583;
},
{
associatedMasterId = "EC5FEA86-72D2-42C8-BC19-2BD75AB225BC";
layerId = "91E73916-6882-40CF-A864-DE1F0A1457AF";
name = P.ss02;
shapes = (
{
closed = 1;
nodes = (
(180,0,l),
(180,184,l),
(553,184,l),
(553,700,l),
(30,700,l),
(30,0,l)
);
},
{
closed = 1;
nodes = (
(180,556,l),
(302,556,ls),
(374,556,o),
(423,510,o),
(423,442,cs),
(423,374,o),
(374,328,o),
(302,328,cs),
(180,328,l)
);
}
);
width = 573;
},
{
layerId = m003;
name = REGULAR;
shapes = (
{
closed = 1;
nodes = (
(290,0,l),
(290,174,l),
(373,174,ls),
(529,174,o),
(643,273,o),
(643,437,cs),
(643,601,o),
(529,700,o),
(373,700,cs),
(50,700,l),
(50,0,l)
);
},
{
closed = 1;
nodes = (
(290,500,l),
(330,500,ls),
(368,500,o),
(401,486,o),
(401,437,cs),
(401,388,o),
(368,374,o),
(330,374,cs),
(290,374,l)
);
}
);
userData = {
com.hugojourdan.ColorFlow = {
"0" = 0;
"1" = 0;
"10" = 0;
"11" = 0;
"2" = 0;
"3" = 0;
"4" = 0;
"5" = 0;
"6" = 0;
"7" = 0;
"8" = 0;
"9" = 0;
};
};
width = 663;
},
{
layerId = m004;
shapes = (
{
closed = 1;
nodes = (
(60,0,l),
(60,244,l),
(226,244,ls),
(397,244,o),
(501,322,o),
(501,472,cs),
(501,622,o),
(397,700,o),
(226,700,c),
(50,700,l),
(50,0,l)
);
},
{
closed = 1;
nodes = (
(60,690,l),
(226,690,ls),
(391,690,o),
(491,616,o),
(491,472,cs),
(491,328,o),
(391,254,o),
(226,254,cs),
(60,254,l)
);
}
);
userData = {
com.hugojourdan.ColorFlow = {
"0" = 0;
"1" = 0;
"10" = 0;
"11" = 0;
"2" = 0;
"3" = 0;
"4" = 0;
"5" = 0;
"6" = 0;
"7" = 0;
"8" = 0;
"9" = 0;
};
};
width = 521;
},
{
layerId = m005;
name = REGULAR;
shapes = (
{
closed = 1;
nodes = (
(200,0,l),
(200,204,l),
(303,204,ls),
(463,204,o),
(573,299,o),
(573,452,cs),
(573,605,o),
(463,700,o),
(303,700,c),
(50,700,l),
(50,0,l)
);
},
{
closed = 1;
nodes = (
(200,650,l),
(271,650,ls),
(363,650,o),
(421,597,o),
(421,452,cs),
(421,307,o),
(363,254,o),
(271,254,cs),
(200,254,l)
);
}
);
userData = {
com.hugojourdan.ColorFlow = {
"0" = 0;
"1" = 0;
"10" = 0;
"11" = 0;
"2" = 0;
"3" = 0;
"4" = 0;
"5" = 0;
"6" = 0;
"7" = 0;
"8" = 0;
"9" = 0;
};
};
width = 593;
},
{
layerId = m006;
name = REGULAR;
shapes = (
{
closed = 1;
nodes = (
(290,0,l),
(290,174,l),
(373,174,ls),
(529,174,o),
(643,273,o),
(643,437,cs),
(643,601,o),
(529,700,o),
(373,700,cs),
(50,700,l),
(50,0,l)
);
},
{
closed = 1;
nodes = (
(290,650,l),
(310,650,ls),
(348,650,o),
(401,592,o),
(401,437,cs),
(401,282,o),
(348,224,o),
(310,224,cs),
(290,224,l)
);
}
);
userData = {
com.hugojourdan.ColorFlow = {
"0" = 0;
"1" = 0;
"10" = 0;
"11" = 0;
"2" = 0;
"3" = 0;
"4" = 0;
"5" = 0;
"6" = 0;
"7" = 0;
"8" = 0;
"9" = 0;
};
};
width = 663;
},
{
layerId = m007;
shapes = (
{
closed = 1;
nodes = (
(60,0,l),
(60,244,l),
(1225,244,ls),
(1396,244,o),
(1500,322,o),
(1500,472,cs),
(1500,622,o),
(1396,700,o),
(1225,700,c),
(50,700,l),
(50,0,l)
);
},
{
closed = 1;
nodes = (
(60,690,l),
(1225,690,ls),
(1390,690,o),
(1490,616,o),
(1490,472,cs),
(1490,328,o),
(1390,254,o),
(1225,254,cs),
(60,254,l)
);
}
);
userData = {
com.hugojourdan.ColorFlow = {
"0" = 0;
"1" = 0;
"10" = 0;
"11" = 0;
"2" = 0;
"3" = 0;
"4" = 0;
"5" = 0;
"6" = 0;
"7" = 0;
"8" = 0;
"9" = 0;
};
};
width = 1530;
},
{
layerId = m008;
name = REGULAR;
shapes = (
{
closed = 1;
nodes = (
(200,0,l),
(200,204,l),
(1290,204,ls),
(1450,204,o),
(1560,299,o),
(1560,452,cs),
(1560,605,o),
(1450,700,o),
(1290,700,c),
(50,700,l),
(50,0,l)
);
},
{
closed = 1;
nodes = (
(200,556,l),
(1287,556,ls),
(1359,556,o),
(1408,520,o),
(1408,452,cs),
(1408,384,o),
(1359,348,o),
(1287,348,cs),
(200,348,l)
);
}
);
userData = {
com.hugojourdan.ColorFlow = {
"0" = 0;
"1" = 0;
"10" = 0;
"11" = 0;
"2" = 0;
"3" = 0;
"4" = 0;
"5" = 0;
"6" = 0;
"7" = 0;
"8" = 0;
"9" = 0;
};
};
width = 1590;
},
{
layerId = m009;
name = REGULAR;
shapes = (
{
closed = 1;
nodes = (
(290,0,l),
(290,174,l),
(1330,174,ls),
(1486,174,o),
(1600,273,o),
(1600,437,cs),
(1600,601,o),
(1486,700,o),
(1330,700,cs),
(50,700,l),
(50,0,l)
);
},
{
closed = 1;
nodes = (
(290,500,l),
(1287,500,ls),
(1325,500,o),
(1358,486,o),
(1358,437,cs),
(1358,388,o),
(1325,374,o),
(1287,374,cs),
(290,374,l)
);
}
);
userData = {
com.hugojourdan.ColorFlow = {
"0" = 0;
"1" = 0;
"10" = 0;
"11" = 0;
"2" = 0;
"3" = 0;
"4" = 0;
"5" = 0;
"6" = 0;
"7" = 0;
"8" = 0;
"9" = 0;
};
};
width = 1640;
},
{
layerId = m011;
name = REGULAR;
shapes = (
{
closed = 1;
nodes = (
(200,0,l),
(200,204,l),
(1221,204,ls),
(1411,204,o),
(1561,299,o),
(1561,452,cs),
(1561,605,o),
(1411,700,o),
(1221,700,c),
(50,700,l),
(50,0,l)
);
},
{
closed = 1;
nodes = (
(200,650,l),
(1169,650,ls),
(1291,650,o),
(1409,605,o),
(1409,452,cs),
(1409,299,o),
(1291,254,o),
(1169,254,cs),
(200,254,l)
);
}
);
userData = {
com.hugojourdan.ColorFlow = {
"0" = 0;
"1" = 0;
"10" = 0;
"11" = 0;
"2" = 0;
"3" = 0;
"4" = 0;
"5" = 0;
"6" = 0;
"7" = 0;
"8" = 0;
"9" = 0;
};
};
width = 1581;
},
{
layerId = m012;
name = REGULAR;
shapes = (
{
closed = 1;
nodes = (
(290,0,l),
(290,174,l),
(1251,174,ls),
(1447,174,o),
(1601,273,o),
(1601,437,cs),
(1601,601,o),
(1447,700,o),
(1251,700,cs),
(50,700,l),
(50,0,l)
);
},
{
closed = 1;
nodes = (
(290,650,l),
(1108,650,ls),
(1226,650,o),
(1359,592,o),
(1359,437,cs),
(1359,282,o),
(1226,224,o),
(1108,224,cs),
(290,224,l)
);
}
);
userData = {
com.hugojourdan.ColorFlow = {
"0" = 0;
"1" = 0;
"10" = 0;
"11" = 0;
"2" = 0;
"3" = 0;
"4" = 0;
"5" = 0;
"6" = 0;
"7" = 0;
"8" = 0;
"9" = 0;
};
};
width = 1621;
},
{
layerId = "1A3F9239-4760-4FF7-8D33-C20C038CC734";
shapes = (
{
closed = 1;
nodes = (
(60,0,l),
(60,244,l),
(1225,244,ls),
(1396,244,o),
(1500,322,o),
(1500,472,cs),
(1500,622,o),
(1396,700,o),
(1225,700,c),
(50,700,l),
(50,0,l)
);
},
{
closed = 1;
nodes = (
(60,690,l),
(1225,690,ls),
(1390,690,o),
(1490,616,o),
(1490,472,cs),
(1490,328,o),
(1390,254,o),
(1225,254,cs),
(60,254,l)
);
}
);
userData = {
com.hugojourdan.ColorFlow = {
"0" = 0;
"1" = 0;
"10" = 0;
"11" = 0;
"2" = 0;
"3" = 0;
"4" = 0;
"5" = 0;
"6" = 0;
"7" = 0;
"8" = 0;
"9" = 0;
};
};
width = 1530;
}
);
metricLeft = I;
metricRight = O;
unicode = 80;
},
{
glyphname = Q;
kernLeft = O;
kernRight = O;
lastChange = "2026-02-21 02:07:41 +0000";
layers = (
{
layerId = "53F0F7F5-7E63-41B5-8940-5CAB53A0CB52";
shapes = (
{
closed = 1;
nodes = (
(672,0,l),
(418,299,l),
(406,299,l),
(660,0,l)
);
},
{
ref = O;
}
);
userData = {
com.hugojourdan.ColorFlow = {
"0" = 0;
"1" = 0;
"10" = 0;
"11" = 0;
"2" = 0;
"3" = 0;
"4" = 0;
"5" = 0;
"6" = 0;
"7" = 0;
"8" = 0;
"9" = 0;
};
};
width = 760;
},
{
layerId = "EC5FEA86-72D2-42C8-BC19-2BD75AB225BC";
shapes = (
{
closed = 1;
nodes = (
(764,0,l),
(510,299,l),
(336,299,l),
(590,0,l)
);
},
{
ref = O;
}
);
userData = {
com.hugojourdan.ColorFlow = {
"0" = 0;
"1" = 0;
"10" = 0;
"11" = 0;
"2" = 0;
"3" = 0;
"4" = 0;
"5" = 0;
"6" = 0;
"7" = 0;
"8" = 0;
"9" = 0;
};
};
width = 784;
},
{
associatedMasterId = "EC5FEA86-72D2-42C8-BC19-2BD75AB225BC";
layerId = "97539FDC-9FD1-4669-BE9B-A84104819BB7";
name = Q.ss01;
shapes = (
{
closed = 1;
nodes = (
(588,-10,o),
(740,141,o),
(740,348,cs),
(740,557,o),
(588,710,o),
(380,710,cs),
(380,710,l),
(172,710,o),
(20,557,o),
(20,348,cs),
(20,141,o),
(172,-10,o),
(380,-10,c),
(380,-10,l)
);
},
{
closed = 1;
nodes = (
(380,134,l),
(258,134,o),
(170,224,o),
(170,348,cs),
(170,474,o),
(258,566,o),
(380,566,c),
(380,566,ls),
(502,566,o),
(590,474,o),
(590,348,cs),
(590,224,o),
(502,134,o),
(380,134,c)
);
},
{
closed = 1;
nodes = (
(620,-59,l),
(734,37,l),
(433,397,l),
(319,301,l)
);
}
);
width = 760;
},
{
associatedMasterId = "EC5FEA86-72D2-42C8-BC19-2BD75AB225BC";
layerId = "15EBC346-52E1-4DD8-98E9-02961A315592";
name = Q.ss02;
shapes = (
{
closed = 1;
nodes = (
(588,-10,o),
(740,141,o),
(740,348,cs),
(740,557,o),
(588,710,o),
(380,710,cs),
(380,710,l),
(172,710,o),
(20,557,o),
(20,348,cs),
(20,141,o),
(172,-10,o),
(380,-10,c),
(380,-10,l)
);
},
{
closed = 1;
nodes = (
(380,134,l),
(258,134,o),
(170,224,o),
(170,348,cs),
(170,474,o),
(258,566,o),
(380,566,c),
(380,566,ls),
(502,566,o),
(590,474,o),
(590,348,cs),
(590,224,o),
(502,134,o),
(380,134,c)
);
},
{
closed = 1;
nodes = (
(630,-73,l),
(744,23,l),
(578,220,l),
(464,124,l)
);
}
);
width = 764;
},
{
associatedMasterId = "EC5FEA86-72D2-42C8-BC19-2BD75AB225BC";
layerId = "407A4D89-D4C5-4AB2-8731-D565D6033E93";
name = Q.ss03;
shapes = (
{
closed = 1;
nodes = (
(754,700,l),
(30,700,l),
(30,0,l),
(754,0,l)
);
},
{
closed = 1;
nodes = (
(392,134,l),
(270,134,o),
(182,224,o),
(182,348,cs),
(182,474,o),
(270,566,o),
(392,566,c),
(392,566,ls),
(514,566,o),
(602,474,o),
(602,348,cs),
(602,224,o),
(514,134,o),
(392,134,c)
);
},
{
closed = 1;
nodes = (
(317,-109,l),
(467,-109,l),
(467,269,l),
(317,269,l)
);
}
);
width = 784;
},
{
associatedMasterId = "EC5FEA86-72D2-42C8-BC19-2BD75AB225BC";
layerId = "FE388CD6-30D4-4C47-AA97-F27018A5A6D7";
name = Q.ss04;
shapes = (
{
closed = 1;
nodes = (
(581,-10,o),
(734,141,o),
(734,348,cs),
(734,557,o),
(581,710,o),
(372,710,cs),
(372,710,l),
(163,710,o),
(10,557,o),
(10,348,cs),
(10,141,o),
(163,-10,o),
(372,-10,c),
(372,-10,l)
);
},
{
closed = 1;
nodes = (
(372,134,l),
(250,134,o),
(162,224,o),
(162,348,cs),
(162,474,o),
(250,566,o),
(372,566,c),
(372,566,ls),
(494,566,o),
(582,474,o),
(582,348,cs),
(582,224,o),
(494,134,o),
(372,134,c)
);
},
{
closed = 1;
nodes = (
(297,-109,l),
(447,-109,l),
(447,269,l),
(297,269,l)
);
}
);
width = 784;
},
{
associatedMasterId = "EC5FEA86-72D2-42C8-BC19-2BD75AB225BC";
layerId = "36BB889A-ECA9-4E8D-9758-9041A8B31337";
name = Q.ss05;
shapes = (
{
closed = 1;
nodes = (
(740,557,o),
(588,710,o),
(380,710,cs),
(172,710,o),
(20,557,o),
(20,348,cs),
(20,141,o),
(172,-10,o),
(380,-10,c),
(380,134,l),
(258,134,o),
(170,224,o),
(170,348,cs),
(170,474,o),
(258,566,o),
(380,566,cs),
(502,566,o),
(590,474,o),
(590,348,c),
(740,348,l)
);
},
{
closed = 1;
nodes = (
(635,-10,l),
(736,91,l),
(455,371,l),
(354,270,l)
);
}
);
width = 784;
},
{
associatedMasterId = "EC5FEA86-72D2-42C8-BC19-2BD75AB225BC";
layerId = "ACD7978D-20C1-4219-B89A-6E6771FA93EA";
name = Q.ss6;
shapes = (
{
closed = 1;
nodes = (
(578,-10,o),
(730,141,o),
(730,348,cs),
(730,557,o),
(578,710,o),
(370,710,cs),
(370,710,l),
(162,710,o),
(10,557,o),
(10,348,cs),
(10,141,o),
(162,-10,o),
(370,-10,c),
(370,-10,l)
);
},
{
closed = 1;
nodes = (
(370,134,l),
(248,134,o),
(160,224,o),
(160,348,cs),
(160,474,o),
(248,566,o),
(370,566,c),
(370,566,ls),
(492,566,o),
(580,474,o),
(580,348,cs),
(580,224,o),
(492,134,o),
(370,134,c)
);
},
{
closed = 1;
nodes = (
(620,-73,l),
(734,23,l),
(568,220,l),
(454,124,l)
);
},
{
closed = 1;
nodes = (
(422,255,o),
(465,297,o),
(465,350,cs),
(465,402,o),
(422,445,o),
(370,445,cs),
(317,445,o),
(275,402,o),
(275,350,cs),
(275,297,o),
(317,255,o),
(370,255,cs)
);
}
);
width = 744;
},
{
layerId = m003;
shapes = (
{
closed = 1;
nodes = (
(714,0,l),
(616,299,l),
(366,299,l),
(464,0,l)
);
},
{
ref = O;
}
);
userData = {
com.hugojourdan.ColorFlow = {
"0" = 0;
"1" = 0;
"10" = 0;
"11" = 0;
"2" = 0;
"3" = 0;
"4" = 0;
"5" = 0;
"6" = 0;
"7" = 0;
"8" = 0;
"9" = 0;
};
};
width = 768;
},
{
layerId = m004;
shapes = (
{
closed = 1;
nodes = (
(672,0,l),
(418,299,l),
(406,299,l),
(660,0,l)
);
},
{
ref = O;
}
);
userData = {
com.hugojourdan.ColorFlow = {
"0" = 0;
"1" = 0;
"10" = 0;
"11" = 0;
"2" = 0;
"3" = 0;
"4" = 0;
"5" = 0;
"6" = 0;
"7" = 0;
"8" = 0;
"9" = 0;
};
};
width = 760;
},
{
layerId = m005;
shapes = (
{
closed = 1;
nodes = (
(744,0,l),
(490,299,l),
(356,299,l),
(610,0,l)
);
},
{
ref = O;
}
);
userData = {
com.hugojourdan.ColorFlow = {
"0" = 0;
"1" = 0;
"10" = 0;
"11" = 0;
"2" = 0;
"3" = 0;
"4" = 0;
"5" = 0;
"6" = 0;
"7" = 0;
"8" = 0;
"9" = 0;
};
};
width = 764;
},
{
layerId = m006;
shapes = (
{
closed = 1;
nodes = (
(714,0,l),
(616,299,l),
(366,299,l),
(464,0,l)
);
},
{
ref = O;
}
);
userData = {
com.hugojourdan.ColorFlow = {
"0" = 0;
"1" = 0;
"10" = 0;
"11" = 0;
"2" = 0;
"3" = 0;
"4" = 0;
"5" = 0;
"6" = 0;
"7" = 0;
"8" = 0;
"9" = 0;
};
};
width = 768;
},
{
layerId = m007;
shapes = (
{
closed = 1;
nodes = (
(1272,0,l),
(1018,299,l),
(1005,299,l),
(1259,0,l)
);
},
{
ref = O;
}
);
userData = {
com.hugojourdan.ColorFlow = {
"0" = 0;
"1" = 0;
"10" = 0;
"11" = 0;
"2" = 0;
"3" = 0;
"4" = 0;
"5" = 0;
"6" = 0;
"7" = 0;
"8" = 0;
"9" = 0;
};
};
width = 1680;
},
{
layerId = m008;
shapes = (
{
closed = 1;
nodes = (
(1300,0,l),
(1046,299,l),
(832,299,l),
(1086,0,l)
);
},
{
ref = O;
}
);
userData = {
com.hugojourdan.ColorFlow = {
"0" = 0;
"1" = 0;
"10" = 0;
"11" = 0;
"2" = 0;
"3" = 0;
"4" = 0;
"5" = 0;
"6" = 0;
"7" = 0;
"8" = 0;
"9" = 0;
};
};
width = 1700;
},
{
layerId = m009;
shapes = (
{
closed = 1;
nodes = (
(1274,0,l),
(1046,299,l),
(796,299,l),
(1024,0,l)
);
},
{
ref = O;
}
);
userData = {
com.hugojourdan.ColorFlow = {
"0" = 0;
"1" = 0;
"10" = 0;
"11" = 0;
"2" = 0;
"3" = 0;
"4" = 0;
"5" = 0;
"6" = 0;
"7" = 0;
"8" = 0;
"9" = 0;
};
};
width = 1720;
},
{
layerId = m011;
shapes = (
{
closed = 1;
nodes = (
(1237,15,l),
(996,299,l),
(862,299,l),
(1103,15,l)
);
},
{
ref = O;
}
);
userData = {
com.hugojourdan.ColorFlow = {
"0" = 0;
"1" = 0;
"10" = 0;
"11" = 0;
"2" = 0;
"3" = 0;
"4" = 0;
"5" = 0;
"6" = 0;
"7" = 0;
"8" = 0;
"9" = 0;
};
};
width = 1680;
},
{
layerId = m012;
shapes = (
{
closed = 1;
nodes = (
(1214,0,l),
(1116,299,l),
(866,299,l),
(964,0,l)
);
},
{
ref = O;
}
);
userData = {
com.hugojourdan.ColorFlow = {
"0" = 0;
"1" = 0;
"10" = 0;
"11" = 0;
"2" = 0;
"3" = 0;
"4" = 0;
"5" = 0;
"6" = 0;
"7" = 0;
"8" = 0;
"9" = 0;
};
};
width = 1691;
},
{
layerId = "1A3F9239-4760-4FF7-8D33-C20C038CC734";
shapes = (
{
closed = 1;
nodes = (
(1272,0,l),
(1018,299,l),
(1005,299,l),
(1259,0,l)
);
},
{
ref = O;
}
);
userData = {
com.hugojourdan.ColorFlow = {
"0" = 0;
"1" = 0;
"10" = 0;
"11" = 0;
"2" = 0;
"3" = 0;
"4" = 0;
"5" = 0;
"6" = 0;
"7" = 0;
"8" = 0;
"9" = 0;
};
};
width = 1680;
}
);
metricLeft = O;
metricRight = O;
unicode = 81;
},
{
glyphname = R;
kernLeft = H;
kernRight = R;
lastChange = "2026-02-21 02:14:35 +0000";
layers = (
{
layerId = "53F0F7F5-7E63-41B5-8940-5CAB53A0CB52";
shapes = (
{
closed = 1;
nodes = (
(524,0,l),
(283,288,l),
(270,288,l),
(511,0,l)
);
},
{
closed = 1;
nodes = (
(60,0,l),
(60,284,l),
(266,284,ls),
(397,284,o),
(505,342,o),
(505,492,cs),
(505,642,o),
(397,700,o),
(266,700,c),
(50,700,l),
(50,0,l)
);
},
{
closed = 1;
nodes = (
(60,690,l),
(266,690,ls),
(391,690,o),
(495,636,o),
(495,492,cs),
(495,348,o),
(391,294,o),
(266,294,cs),
(60,294,l)
);
}
);
userData = {
com.hugojourdan.ColorFlow = {
"0" = 0;
"1" = 0;
"10" = 0;
"11" = 0;
"2" = 0;
"3" = 0;
"4" = 0;
"5" = 0;
"6" = 0;
"7" = 0;
"8" = 0;
"9" = 0;
};
};
width = 554;
},
{
layerId = "EC5FEA86-72D2-42C8-BC19-2BD75AB225BC";
shapes = (
{
closed = 1;
nodes = (
(617,0,l),
(412,334,l),
(289,247,l),
(436,0,l)
);
},
{
closed = 1;
nodes = (
(200,0,l),
(200,224,l),
(323,224,ls),
(473,224,o),
(581,309,o),
(581,462,cs),
(581,615,o),
(473,700,o),
(323,700,c),
(50,700,l),
(50,0,l)
);
},
{
closed = 1;
nodes = (
(200,556,l),
(320,556,ls),
(382,556,o),
(429,530,o),
(429,462,cs),
(429,394,o),
(382,368,o),
(320,368,cs),
(200,368,l)
);
}
);
userData = {
com.hugojourdan.ColorFlow = {
"0" = 0;
"1" = 0;
"10" = 0;
"11" = 0;
"2" = 0;
"3" = 0;
"4" = 0;
"5" = 0;
"6" = 0;
"7" = 0;
"8" = 0;
"9" = 0;
};
};
width = 632;
},
{
associatedMasterId = "EC5FEA86-72D2-42C8-BC19-2BD75AB225BC";
layerId = "139088EF-F186-487E-AAF2-57193E48360F";
name = R.ss01;
shapes = (
{
closed = 1;
nodes = (
(406,0,l),
(587,0,l),
(382,334,l),
(259,247,l)
);
},
{
closed = 1;
nodes = (
(300,556,ls),
(372,556,o),
(421,510,o),
(421,442,cs),
(421,374,o),
(372,328,o),
(300,328,cs),
(60,328,l),
(60,0,l),
(210,0,l),
(210,184,l),
(302,184,ls),
(462,184,o),
(572,289,o),
(572,442,cs),
(572,595,o),
(462,700,o),
(302,700,c),
(60,700,l),
(60,556,l)
);
}
);
width = 617;
},
{
associatedMasterId = "EC5FEA86-72D2-42C8-BC19-2BD75AB225BC";
layerId = "09C15457-A369-493F-8DFC-637C61CC1639";
name = R.ss02;
shapes = (
{
closed = 1;
nodes = (
(406,0,l),
(587,0,l),
(382,334,l),
(259,247,l)
);
},
{
closed = 1;
nodes = (
(300,556,ls),
(372,556,o),
(421,510,o),
(421,442,cs),
(421,374,o),
(372,328,o),
(300,328,cs),
(172,328,ls),
(100,328,o),
(60,288,o),
(60,216,cs),
(60,0,l),
(210,0,l),
(210,184,l),
(302,184,ls),
(462,184,o),
(572,289,o),
(572,442,cs),
(572,595,o),
(462,700,o),
(302,700,c),
(60,700,l),
(60,556,l)
);
}
);
width = 617;
},
{
associatedMasterId = "EC5FEA86-72D2-42C8-BC19-2BD75AB225BC";
layerId = "8FB35841-D391-4D7C-A237-2E5FA2579EDE";
name = R.ss03;
shapes = (
{
closed = 1;
nodes = (
(369,0,l),
(549,0,l),
(369,283,l),
(470,289,o),
(540,369,o),
(540,478,cs),
(540,610,o),
(442,700,o),
(300,700,cs),
(60,700,l),
(60,556,l),
(312,556,ls),
(357,556,o),
(388,525,o),
(388,480,cs),
(388,435,o),
(357,404,o),
(312,404,cs),
(270,404,ls),
(201,404,o),
(164,339,o),
(199,281,cs)
);
}
);
width = 631;
},
{
associatedMasterId = "EC5FEA86-72D2-42C8-BC19-2BD75AB225BC";
layerId = "43B4B400-B9F5-48C9-9265-E281C824193E";
name = R.ss04;
shapes = (
{
closed = 1;
nodes = (
(180,0,l),
(180,184,l),
(553,184,l),
(553,700,l),
(30,700,l),
(30,0,l)
);
},
{
closed = 1;
nodes = (
(180,556,l),
(302,556,ls),
(374,556,o),
(423,510,o),
(423,442,cs),
(423,374,o),
(374,328,o),
(302,328,cs),
(180,328,l)
);
},
{
closed = 1;
nodes = (
(406,0,l),
(587,0,l),
(382,334,l),
(259,247,l)
);
}
);
width = 631;
},
{
layerId = m003;
shapes = (
{
closed = 1;
nodes = (
(700,0,l),
(480,354,l),
(293,222,l),
(430,0,l)
);
},
{
closed = 1;
nodes = (
(290,0,l),
(290,194,l),
(373,194,ls),
(529,194,o),
(649,283,o),
(649,447,cs),
(649,611,o),
(529,700,o),
(373,700,cs),
(50,700,l),
(50,0,l)
);
},
{
closed = 1;
nodes = (
(290,500,l),
(350,500,ls),
(378,500,o),
(407,486,o),
(407,447,cs),
(407,408,o),
(378,394,o),
(350,394,cs),
(290,394,l)
);
}
);
userData = {
com.hugojourdan.ColorFlow = {
"0" = 0;
"1" = 0;
"10" = 0;
"11" = 0;
"2" = 0;
"3" = 0;
"4" = 0;
"5" = 0;
"6" = 0;
"7" = 0;
"8" = 0;
"9" = 0;
};
};
width = 715;
},
{
layerId = m004;
shapes = (
{
closed = 1;
nodes = (
(524,0,l),
(283,288,l),
(270,288,l),
(511,0,l)
);
},
{
closed = 1;
nodes = (
(60,0,l),
(60,284,l),
(266,284,ls),
(397,284,o),
(505,342,o),
(505,492,cs),
(505,642,o),
(397,700,o),
(266,700,c),
(50,700,l),
(50,0,l)
);
},
{
closed = 1;
nodes = (
(60,690,l),
(266,690,ls),
(391,690,o),
(495,636,o),
(495,492,cs),
(495,348,o),
(391,294,o),
(266,294,cs),
(60,294,l)
);
}
);
userData = {
com.hugojourdan.ColorFlow = {
"0" = 0;
"1" = 0;
"10" = 0;
"11" = 0;
"2" = 0;
"3" = 0;
"4" = 0;
"5" = 0;
"6" = 0;
"7" = 0;
"8" = 0;
"9" = 0;
};
};
width = 554;
},
{
layerId = m005;
shapes = (
{
closed = 1;
nodes = (
(617,0,l),
(442,285,l),
(298,235,l),
(436,0,l)
);
},
{
closed = 1;
nodes = (
(200,0,l),
(200,224,l),
(323,224,ls),
(473,224,o),
(581,309,o),
(581,462,cs),
(581,615,o),
(473,700,o),
(323,700,c),
(50,700,l),
(50,0,l)
);
},
{
closed = 1;
nodes = (
(200,650,l),
(279,650,ls),
(344,650,o),
(429,607,o),
(429,462,cs),
(429,317,o),
(344,274,o),
(279,274,cs),
(200,274,l)
);
}
);
userData = {
com.hugojourdan.ColorFlow = {
"0" = 0;
"1" = 0;
"10" = 0;
"11" = 0;
"2" = 0;
"3" = 0;
"4" = 0;
"5" = 0;
"6" = 0;
"7" = 0;
"8" = 0;
"9" = 0;
};
};
width = 632;
},
{
layerId = m006;
shapes = (
{
closed = 1;
nodes = (
(700,0,l),
(539,259,l),
(299,212,l),
(430,0,l)
);
},
{
closed = 1;
nodes = (
(290,0,l),
(290,194,l),
(373,194,ls),
(529,194,o),
(649,283,o),
(649,447,cs),
(649,611,o),
(529,700,o),
(373,700,cs),
(50,700,l),
(50,0,l)
);
},
{
closed = 1;
nodes = (
(290,650,l),
(303,650,ls),
(366,650,o),
(407,570,o),
(407,447,cs),
(407,324,o),
(366,244,o),
(303,244,cs),
(290,244,l)
);
}
);
userData = {
com.hugojourdan.ColorFlow = {
"0" = 0;
"1" = 0;
"10" = 0;
"11" = 0;
"2" = 0;
"3" = 0;
"4" = 0;
"5" = 0;
"6" = 0;
"7" = 0;
"8" = 0;
"9" = 0;
};
};
width = 715;
},
{
layerId = m007;
shapes = (
{
closed = 1;
nodes = (
(1440,0,l),
(1199,288,l),
(1186,288,l),
(1427,0,l)
);
},
{
closed = 1;
nodes = (
(60,0,l),
(60,284,l),
(1201,284,ls),
(1332,284,o),
(1440,342,o),
(1440,492,cs),
(1440,642,o),
(1332,700,o),
(1201,700,c),
(50,700,l),
(50,0,l)
);
},
{
closed = 1;
nodes = (
(60,690,l),
(1201,690,ls),
(1326,690,o),
(1430,636,o),
(1430,492,cs),
(1430,348,o),
(1326,294,o),
(1201,294,cs),
(60,294,l)
);
}
);
userData = {
com.hugojourdan.ColorFlow = {
"0" = 0;
"1" = 0;
"10" = 0;
"11" = 0;
"2" = 0;
"3" = 0;
"4" = 0;
"5" = 0;
"6" = 0;
"7" = 0;
"8" = 0;
"9" = 0;
};
};
width = 1510;
},
{
layerId = m008;
shapes = (
{
closed = 1;
nodes = (
(1465,0,l),
(1260,334,l),
(1137,247,l),
(1284,0,l)
);
},
{
closed = 1;
nodes = (
(200,0,l),
(200,224,l),
(1207,224,ls),
(1357,224,o),
(1465,309,o),
(1465,462,cs),
(1465,615,o),
(1357,700,o),
(1207,700,c),
(50,700,l),
(50,0,l)
);
},
{
closed = 1;
nodes = (
(200,556,l),
(1204,556,ls),
(1266,556,o),
(1313,530,o),
(1313,462,cs),
(1313,394,o),
(1266,368,o),
(1204,368,cs),
(200,368,l)
);
}
);
userData = {
com.hugojourdan.ColorFlow = {
"0" = 0;
"1" = 0;
"10" = 0;
"11" = 0;
"2" = 0;
"3" = 0;
"4" = 0;
"5" = 0;
"6" = 0;
"7" = 0;
"8" = 0;
"9" = 0;
};
};
width = 1500;
},
{
layerId = m009;
shapes = (
{
closed = 1;
nodes = (
(1600,0,l),
(1380,354,l),
(1203,222,l),
(1340,0,l)
);
},
{
closed = 1;
nodes = (
(290,0,l),
(290,194,l),
(1324,194,ls),
(1480,194,o),
(1600,283,o),
(1600,447,cs),
(1600,611,o),
(1480,700,o),
(1324,700,cs),
(50,700,l),
(50,0,l)
);
},
{
closed = 1;
nodes = (
(290,500,l),
(1301,500,ls),
(1329,500,o),
(1358,486,o),
(1358,447,cs),
(1358,408,o),
(1329,394,o),
(1301,394,cs),
(290,394,l)
);
}
);
userData = {
com.hugojourdan.ColorFlow = {
"0" = 0;
"1" = 0;
"10" = 0;
"11" = 0;
"2" = 0;
"3" = 0;
"4" = 0;
"5" = 0;
"6" = 0;
"7" = 0;
"8" = 0;
"9" = 0;
};
};
width = 1630;
},
{
layerId = m011;
shapes = (
{
closed = 1;
nodes = (
(1500,0,l),
(1325,285,l),
(1181,235,l),
(1319,0,l)
);
},
{
closed = 1;
nodes = (
(200,0,l),
(200,224,l),
(1176,224,ls),
(1336,224,o),
(1464,309,o),
(1464,462,cs),
(1464,615,o),
(1336,700,o),
(1176,700,c),
(50,700,l),
(50,0,l)
);
},
{
closed = 1;
nodes = (
(200,650,l),
(1102,650,ls),
(1207,650,o),
(1312,607,o),
(1312,462,cs),
(1312,317,o),
(1207,274,o),
(1102,274,cs),
(200,274,l)
);
}
);
userData = {
com.hugojourdan.ColorFlow = {
"0" = 0;
"1" = 0;
"10" = 0;
"11" = 0;
"2" = 0;
"3" = 0;
"4" = 0;
"5" = 0;
"6" = 0;
"7" = 0;
"8" = 0;
"9" = 0;
};
};
width = 1535;
},
{
layerId = m012;
shapes = (
{
closed = 1;
nodes = (
(1611,0,l),
(1450,259,l),
(1210,212,l),
(1341,0,l)
);
},
{
closed = 1;
nodes = (
(290,0,l),
(290,194,l),
(1244,194,ls),
(1440,194,o),
(1600,283,o),
(1600,447,cs),
(1600,611,o),
(1440,700,o),
(1244,700,cs),
(50,700,l),
(50,0,l)
);
},
{
closed = 1;
nodes = (
(290,650,l),
(1104,650,ls),
(1257,650,o),
(1358,570,o),
(1358,447,cs),
(1358,324,o),
(1257,244,o),
(1104,244,cs),
(290,244,l)
);
}
);
userData = {
com.hugojourdan.ColorFlow = {
"0" = 0;
"1" = 0;
"10" = 0;
"11" = 0;
"2" = 0;
"3" = 0;
"4" = 0;
"5" = 0;
"6" = 0;
"7" = 0;
"8" = 0;
"9" = 0;
};
};
width = 1631;
},
{
layerId = "1A3F9239-4760-4FF7-8D33-C20C038CC734";
shapes = (
{
closed = 1;
nodes = (
(1440,0,l),
(1199,288,l),
(1186,288,l),
(1427,0,l)
);
},
{
closed = 1;
nodes = (
(60,0,l),
(60,284,l),
(1201,284,ls),
(1332,284,o),
(1440,342,o),
(1440,492,cs),
(1440,642,o),
(1332,700,o),
(1201,700,c),
(50,700,l),
(50,0,l)
);
},
{
closed = 1;
nodes = (
(60,690,l),
(1201,690,ls),
(1326,690,o),
(1430,636,o),
(1430,492,cs),
(1430,348,o),
(1326,294,o),
(1201,294,cs),
(60,294,l)
);
}
);
userData = {
com.hugojourdan.ColorFlow = {
"0" = 0;
"1" = 0;
"10" = 0;
"11" = 0;
"2" = 0;
"3" = 0;
"4" = 0;
"5" = 0;
"6" = 0;
"7" = 0;
"8" = 0;
"9" = 0;
};
};
width = 1510;
}
);
metricLeft = H;
metricRight = B;
unicode = 82;
},
{
glyphname = S;
kernLeft = S;
kernRight = S;
lastChange = "2026-02-21 02:02:53 +0000";
layers = (
{
layerId = "53F0F7F5-7E63-41B5-8940-5CAB53A0CB52";
shapes = (
{
closed = 1;
nodes = (
(323,0,l),
(435,0,o),
(510,64,o),
(510,167,cs),
(510,269,o),
(432,311,o),
(335,341,cs),
(210,379,ls),
(118,407,o),
(42,446,o),
(42,543,cs),
(42,640,o),
(113,690,o),
(220,690,cs),
(502,690,l),
(502,700,l),
(220,700,l),
(107,700,o),
(32,645,o),
(32,543,cs),
(32,440,o),
(111,399,o),
(208,369,cs),
(333,331,ls),
(425,303,o),
(500,264,o),
(500,167,cs),
(500,70,o),
(430,10,o),
(323,10,cs),
(30,10,l),
(30,0,l)
);
}
);
userData = {
com.hugojourdan.ColorFlow = {
"0" = 0;
"1" = 0;
"10" = 0;
"11" = 0;
"2" = 0;
"3" = 0;
"4" = 0;
"5" = 0;
"6" = 0;
"7" = 0;
"8" = 0;
"9" = 0;
};
};
width = 540;
},
{
layerId = "EC5FEA86-72D2-42C8-BC19-2BD75AB225BC";
name = Bold_CONDENSED;
shapes = (
{
closed = 1;
nodes = (
(335,0,ls),
(467,0,o),
(558,77,o),
(558,204,cs),
(558,320,o),
(460,371,o),
(397,396,cs),
(243,457,ls),
(213,469,o),
(192,482,o),
(192,510,cs),
(192,539,o),
(211,556,o),
(252,556,cs),
(553,556,l),
(553,700,l),
(263,700,ls),
(131,700,o),
(40,628,o),
(40,502,cs),
(40,387,o),
(140,341,o),
(203,315,cs),
(338,260,ls),
(375,245,o),
(406,230,o),
(406,195,cs),
(406,161,o),
(385,144,o),
(345,144,cs),
(45,144,l),
(45,0,l)
);
}
);
userData = {
com.hugojourdan.ColorFlow = {
"0" = 0;
"1" = 0;
"10" = 0;
"11" = 0;
"2" = 0;
"3" = 0;
"4" = 0;
"5" = 0;
"6" = 0;
"7" = 0;
"8" = 0;
"9" = 0;
};
};
width = 598;
},
{
associatedMasterId = "EC5FEA86-72D2-42C8-BC19-2BD75AB225BC";
layerId = "10D5BDA0-690A-4F90-BABB-F01E3685C4F8";
name = S.ss01;
shapes = (
{
closed = 1;
nodes = (
(355,0,ls),
(487,0,o),
(578,77,o),
(578,204,cs),
(578,320,o),
(480,363,o),
(415,386,cs),
(242,447,ls),
(203,461,o),
(172,473,o),
(172,506,cs),
(172,540,o),
(201,556,o),
(242,556,cs),
(543,556,l),
(543,700,l),
(243,700,ls),
(111,700,o),
(20,624,o),
(20,498,cs),
(20,383,o),
(118,341,o),
(183,318,cs),
(356,257,ls),
(395,243,o),
(426,230,o),
(426,195,cs),
(426,161,o),
(397,144,o),
(356,144,cs),
(55,144,l),
(55,0,l)
);
}
);
width = 598;
},
{
associatedMasterId = "EC5FEA86-72D2-42C8-BC19-2BD75AB225BC";
layerId = "7733F01F-C524-479B-9341-D636FAC3980B";
name = S.ss02;
shapes = (
{
closed = 1;
nodes = (
(355,0,ls),
(487,0,o),
(578,87,o),
(578,214,cs),
(578,340,o),
(525,399,o),
(405,438,cs),
(218,498,ls),
(181,510,o),
(172,518,o),
(172,534,cs),
(172,550,o),
(186,556,o),
(210,556,cs),
(543,556,l),
(543,700,l),
(227,700,ls),
(103,700,o),
(20,650,o),
(20,534,cs),
(20,439,o),
(82,389,o),
(183,359,cs),
(346,310,ls),
(401,293,o),
(426,267,o),
(426,223,cs),
(426,171,o),
(397,144,o),
(346,144,cs),
(55,144,l),
(55,0,l)
);
}
);
width = 639;
},
{
associatedMasterId = "EC5FEA86-72D2-42C8-BC19-2BD75AB225BC";
layerId = "22C7F7D9-CF10-419D-A2FD-6BA688389769";
name = S.ss03;
shapes = (
{
closed = 1;
nodes = (
(599,0,l),
(599,427,l),
(263,427,ls),
(222,427,o),
(193,453,o),
(193,491,cs),
(193,530,o),
(222,556,o),
(263,556,cs),
(599,556,l),
(599,700,l),
(40,700,l),
(40,277,l),
(377,277,ls),
(418,277,o),
(447,250,o),
(447,210,cs),
(447,171,o),
(418,144,o),
(377,144,cs),
(40,144,l),
(40,0,l)
);
}
);
width = 639;
},
{
associatedMasterId = "EC5FEA86-72D2-42C8-BC19-2BD75AB225BC";
layerId = "CB0B2989-2967-490B-9D28-BEE8FA97EDF0";
name = S.ss04;
shapes = (
{
closed = 1;
nodes = (
(58,144,ls),
(58,51,o),
(109,0,o),
(202,0,cs),
(471,0,ls),
(564,0,o),
(615,51,o),
(615,144,cs)
);
},
{
closed = 1;
nodes = (
(615,556,l),
(615,649,o),
(564,700,o),
(471,700,cs),
(202,700,ls),
(109,700,o),
(58,649,o),
(58,556,cs)
);
},
{
closed = 1;
nodes = (
(615,371,o),
(564,422,o),
(471,422,cs),
(58,422,l),
(58,329,o),
(109,278,o),
(202,278,cs),
(615,278,l)
);
}
);
width = 639;
},
{
associatedMasterId = "EC5FEA86-72D2-42C8-BC19-2BD75AB225BC";
layerId = "AE11A8F4-22F4-400A-ADD6-B8B8CE4870B2";
name = S.ss05;
shapes = (
{
closed = 1;
nodes = (
(20,144,l),
(20,0,l),
(180,0,l),
(309,0,o),
(397,91,o),
(397,223,cs),
(397,486,ls),
(397,527,o),
(423,556,o),
(461,556,c),
(621,556,l),
(621,700,l),
(461,700,l),
(334,700,o),
(247,609,o),
(247,477,cs),
(247,214,ls),
(247,173,o),
(220,144,o),
(180,144,c)
);
}
);
width = 571;
},
{
associatedMasterId = "EC5FEA86-72D2-42C8-BC19-2BD75AB225BC";
layerId = "F88F6504-54CC-4470-A188-287B716D1C7A";
name = S.ss06;
shapes = (
{
closed = 1;
nodes = (
(20,144,l),
(20,0,l),
(180,0,l),
(310,0,o),
(372,93,o),
(397,223,cs),
(447,486,ls),
(455,527,o),
(473,556,o),
(511,556,c),
(671,556,l),
(671,700,l),
(511,700,l),
(383,700,o),
(322,607,o),
(297,477,cs),
(247,216,ls),
(239,173,o),
(220,144,o),
(180,144,c)
);
}
);
width = 691;
},
{
layerId = m003;
name = "EXTRA-BOLD";
shapes = (
{
closed = 1;
nodes = (
(345,0,ls),
(487,0,o),
(578,97,o),
(578,224,cs),
(578,350,o),
(502,414,o),
(365,445,cs),
(285,463,ls),
(271,466,o),
(262,471,o),
(262,480,cs),
(262,491,o),
(271,496,o),
(285,496,cs),
(573,496,l),
(573,700,l),
(253,700,ls),
(111,700,o),
(20,604,o),
(20,478,cs),
(20,353,o),
(97,294,o),
(233,259,cs),
(303,241,ls),
(319,237,o),
(326,232,o),
(326,222,cs),
(326,209,o),
(317,204,o),
(303,204,cs),
(25,204,l),
(25,0,l)
);
}
);
userData = {
com.hugojourdan.ColorFlow = {
"0" = 0;
"1" = 0;
"10" = 0;
"11" = 0;
"2" = 0;
"3" = 0;
"4" = 0;
"5" = 0;
"6" = 0;
"7" = 0;
"8" = 0;
"9" = 0;
};
};
width = 598;
},
{
associatedMasterId = "EC5FEA86-72D2-42C8-BC19-2BD75AB225BC";
layerId = "9AA34AD0-0414-4DC8-8E03-C6BC5D95035B";
name = "18 Jan 25 at 23:47";
shapes = (
{
closed = 1;
nodes = (
(355,0,ls),
(487,0,o),
(578,87,o),
(578,214,cs),
(578,340,o),
(487,427,o),
(355,427,cs),
(242,427,ls),
(201,427,o),
(172,453,o),
(172,491,cs),
(172,530,o),
(201,556,o),
(242,556,cs),
(543,556,l),
(543,700,l),
(243,700,ls),
(111,700,o),
(20,614,o),
(20,488,cs),
(20,363,o),
(111,277,o),
(243,277,cs),
(356,277,ls),
(397,277,o),
(426,250,o),
(426,210,cs),
(426,171,o),
(397,144,o),
(356,144,cs),
(55,144,l),
(55,0,l)
);
}
);
width = 598;
},
{
layerId = m006;
shapes = (
{
closed = 1;
nodes = (
(345,0,ls),
(487,0,o),
(578,97,o),
(578,224,cs),
(578,350,o),
(501,406,o),
(365,442,cs),
(276,465,ls),
(224,479,o),
(162,490,o),
(162,550,cs),
(162,616,o),
(221,650,o),
(285,650,cs),
(573,650,l),
(573,700,l),
(253,700,ls),
(111,700,o),
(20,604,o),
(20,478,cs),
(20,353,o),
(97,294,o),
(233,259,cs),
(303,241,ls),
(338,232,o),
(416,213,o),
(416,142,cs),
(416,73,o),
(367,50,o),
(303,50,cs),
(25,50,l),
(25,0,l)
);
}
);
userData = {
com.hugojourdan.ColorFlow = {
"0" = 0;
"1" = 0;
"10" = 0;
"11" = 0;
"2" = 0;
"3" = 0;
"4" = 0;
"5" = 0;
"6" = 0;
"7" = 0;
"8" = 0;
"9" = 0;
};
};
width = 598;
},
{
layerId = m004;
shapes = (
{
closed = 1;
nodes = (
(323,0,l),
(435,0,o),
(510,64,o),
(510,167,cs),
(510,269,o),
(432,311,o),
(335,341,cs),
(210,379,ls),
(118,407,o),
(42,446,o),
(42,543,cs),
(42,640,o),
(113,690,o),
(220,690,cs),
(502,690,l),
(502,700,l),
(220,700,l),
(107,700,o),
(32,645,o),
(32,543,cs),
(32,440,o),
(111,399,o),
(208,369,cs),
(333,331,ls),
(425,303,o),
(500,264,o),
(500,167,cs),
(500,70,o),
(430,10,o),
(323,10,cs),
(30,10,l),
(30,0,l)
);
}
);
userData = {
com.hugojourdan.ColorFlow = {
"0" = 0;
"1" = 0;
"10" = 0;
"11" = 0;
"2" = 0;
"3" = 0;
"4" = 0;
"5" = 0;
"6" = 0;
"7" = 0;
"8" = 0;
"9" = 0;
};
};
width = 540;
},
{
layerId = m005;
shapes = (
{
closed = 1;
nodes = (
(335,0,ls),
(467,0,o),
(558,77,o),
(558,204,cs),
(558,320,o),
(460,371,o),
(397,396,cs),
(252,454,ls),
(209,471,o),
(162,496,o),
(162,555,cs),
(162,616,o),
(221,650,o),
(282,650,cs),
(553,650,l),
(553,700,l),
(263,700,ls),
(131,700,o),
(40,628,o),
(40,502,cs),
(40,387,o),
(140,341,o),
(203,315,cs),
(320,267,ls),
(388,240,o),
(416,200,o),
(416,150,cs),
(416,80,o),
(365,50,o),
(305,50,cs),
(45,50,l),
(45,0,l)
);
}
);
userData = {
com.hugojourdan.ColorFlow = {
"0" = 0;
"1" = 0;
"10" = 0;
"11" = 0;
"2" = 0;
"3" = 0;
"4" = 0;
"5" = 0;
"6" = 0;
"7" = 0;
"8" = 0;
"9" = 0;
};
};
width = 598;
},
{
layerId = m007;
shapes = (
{
closed = 1;
nodes = (
(1373,0,l),
(1485,0,o),
(1560,69,o),
(1560,172,cs),
(1560,274,o),
(1486,334,o),
(1375,338,cs),
(210,383,ls),
(104,387,o),
(32,441,o),
(32,538,cs),
(32,635,o),
(103,690,o),
(210,690,cs),
(1552,690,l),
(1552,700,l),
(210,700,l),
(97,700,o),
(22,640,o),
(22,538,cs),
(22,435,o),
(97,377,o),
(210,373,cs),
(1373,328,ls),
(1479,324,o),
(1550,269,o),
(1550,172,cs),
(1550,75,o),
(1480,10,o),
(1373,10,cs),
(20,10,l),
(20,0,l)
);
}
);
userData = {
com.hugojourdan.ColorFlow = {
"0" = 0;
"1" = 0;
"10" = 0;
"11" = 0;
"2" = 0;
"3" = 0;
"4" = 0;
"5" = 0;
"6" = 0;
"7" = 0;
"8" = 0;
"9" = 0;
};
};
width = 1580;
},
{
layerId = m008;
name = Bold_CONDENSED;
shapes = (
{
closed = 1;
nodes = (
(1357,0,ls),
(1489,0,o),
(1580,77,o),
(1580,204,cs),
(1580,320,o),
(1506,392,o),
(1369,399,cs),
(223,457,ls),
(191,459,o),
(172,479,o),
(172,507,cs),
(172,536,o),
(191,556,o),
(232,556,cs),
(1575,556,l),
(1575,700,l),
(243,700,ls),
(111,700,o),
(20,628,o),
(20,502,cs),
(20,377,o),
(96,318,o),
(223,312,cs),
(1370,258,ls),
(1408,256,o),
(1428,238,o),
(1428,202,cs),
(1428,165,o),
(1407,144,o),
(1367,144,cs),
(25,144,l),
(25,0,l)
);
}
);
userData = {
com.hugojourdan.ColorFlow = {
"0" = 0;
"1" = 0;
"10" = 0;
"11" = 0;
"2" = 0;
"3" = 0;
"4" = 0;
"5" = 0;
"6" = 0;
"7" = 0;
"8" = 0;
"9" = 0;
};
};
width = 1600;
},
{
layerId = m009;
name = "EXTRA-BOLD";
shapes = (
{
closed = 1;
nodes = (
(1427,0,ls),
(1569,0,o),
(1660,97,o),
(1660,224,cs),
(1660,350,o),
(1587,443,o),
(1447,445,cs),
(285,463,ls),
(271,463,o),
(262,471,o),
(262,480,cs),
(262,491,o),
(271,496,o),
(285,496,cs),
(1650,496,l),
(1650,700,l),
(253,700,ls),
(111,700,o),
(20,604,o),
(20,478,cs),
(20,353,o),
(93,261,o),
(233,259,cs),
(1385,241,ls),
(1401,241,o),
(1408,232,o),
(1408,222,cs),
(1408,209,o),
(1399,204,o),
(1385,204,cs),
(35,204,l),
(35,0,l)
);
}
);
userData = {
com.hugojourdan.ColorFlow = {
"0" = 0;
"1" = 0;
"10" = 0;
"11" = 0;
"2" = 0;
"3" = 0;
"4" = 0;
"5" = 0;
"6" = 0;
"7" = 0;
"8" = 0;
"9" = 0;
};
};
width = 1680;
},
{
layerId = m011;
shapes = (
{
closed = 1;
nodes = (
(1355,0,ls),
(1487,0,o),
(1578,77,o),
(1578,204,cs),
(1578,320,o),
(1484,393,o),
(1367,399,cs),
(242,453,ls),
(186,456,o),
(142,490,o),
(142,555,cs),
(142,616,o),
(201,650,o),
(262,650,cs),
(1573,650,l),
(1573,700,l),
(243,700,ls),
(111,700,o),
(20,628,o),
(20,502,cs),
(20,387,o),
(115,318,o),
(233,312,cs),
(1280,262,ls),
(1412,256,o),
(1436,200,o),
(1436,150,cs),
(1436,80,o),
(1385,50,o),
(1325,50,cs),
(25,50,l),
(25,0,l)
);
}
);
userData = {
com.hugojourdan.ColorFlow = {
"0" = 0;
"1" = 0;
"10" = 0;
"11" = 0;
"2" = 0;
"3" = 0;
"4" = 0;
"5" = 0;
"6" = 0;
"7" = 0;
"8" = 0;
"9" = 0;
};
};
width = 1598;
},
{
layerId = m012;
shapes = (
{
closed = 1;
nodes = (
(1425,0,ls),
(1567,0,o),
(1658,97,o),
(1658,224,cs),
(1658,350,o),
(1585,441,o),
(1445,444,cs),
(276,465,ls),
(223,466,o),
(162,492,o),
(162,558,cs),
(162,618,o),
(221,650,o),
(275,650,cs),
(1629,650,l),
(1629,700,l),
(253,700,ls),
(111,700,o),
(20,604,o),
(20,478,cs),
(20,353,o),
(100,261,o),
(250,259,cs),
(1383,241,ls),
(1439,240,o),
(1496,216,o),
(1496,148,cs),
(1496,76,o),
(1445,50,o),
(1381,50,cs),
(54,50,l),
(54,0,l)
);
}
);
userData = {
com.hugojourdan.ColorFlow = {
"0" = 0;
"1" = 0;
"10" = 0;
"11" = 0;
"2" = 0;
"3" = 0;
"4" = 0;
"5" = 0;
"6" = 0;
"7" = 0;
"8" = 0;
"9" = 0;
};
};
width = 1678;
},
{
layerId = "1A3F9239-4760-4FF7-8D33-C20C038CC734";
shapes = (
{
closed = 1;
nodes = (
(1293,0,l),
(1405,0,o),
(1480,69,o),
(1480,172,cs),
(1480,274,o),
(1406,333,o),
(1295,338,cs),
(230,383,ls),
(124,387,o),
(52,441,o),
(52,538,cs),
(52,635,o),
(123,690,o),
(230,690,cs),
(1472,690,l),
(1472,700,l),
(230,700,l),
(117,700,o),
(42,640,o),
(42,538,cs),
(42,435,o),
(117,378,o),
(230,373,cs),
(1293,328,ls),
(1399,324,o),
(1470,269,o),
(1470,172,cs),
(1470,75,o),
(1400,10,o),
(1293,10,cs),
(40,10,l),
(40,0,l)
);
}
);
userData = {
com.hugojourdan.ColorFlow = {
"0" = 0;
"1" = 0;
"10" = 0;
"11" = 0;
"2" = 0;
"3" = 0;
"4" = 0;
"5" = 0;
"6" = 0;
"7" = 0;
"8" = 0;
"9" = 0;
};
};
width = 1520;
}
);
unicode = 83;
},
{
glyphname = T;
kernLeft = T;
kernRight = T;
lastChange = "2026-02-21 02:14:47 +0000";
layers = (
{
layerId = "53F0F7F5-7E63-41B5-8940-5CAB53A0CB52";
shapes = (
{
closed = 1;
nodes = (
(10,700,l),
(10,690,l),
(273,690,l),
(273,0,l),
(283,0,l),
(283,690,l),
(546,690,l),
(546,700,l)
);
}
);
userData = {
com.hugojourdan.ColorFlow = {
"0" = 0;
"1" = 0;
"10" = 0;
"11" = 0;
"2" = 0;
"3" = 0;
"4" = 0;
"5" = 0;
"6" = 0;
"7" = 0;
"8" = 0;
"9" = 0;
};
};
width = 556;
},
{
layerId = "EC5FEA86-72D2-42C8-BC19-2BD75AB225BC";
shapes = (
{
closed = 1;
nodes = (
(10,700,l),
(10,556,l),
(220,556,l),
(220,0,l),
(370,0,l),
(370,556,l),
(580,556,l),
(580,700,l)
);
}
);
userData = {
com.hugojourdan.ColorFlow = {
"0" = 0;
"1" = 0;
"10" = 0;
"11" = 0;
"2" = 0;
"3" = 0;
"4" = 0;
"5" = 0;
"6" = 0;
"7" = 0;
"8" = 0;
"9" = 0;
};
};
width = 590;
},
{
associatedMasterId = "EC5FEA86-72D2-42C8-BC19-2BD75AB225BC";
layerId = "0691D508-64AF-4E9B-8B2B-B8BF01CF0E0D";
name = T.ss01;
shapes = (
{
closed = 1;
nodes = (
(238,112,o),
(335,0,o),
(533,0,cs),
(622,0,l),
(622,144,l),
(517,144,ls),
(427,144,o),
(388,200,o),
(388,290,cs),
(388,701,l),
(238,701,l),
(238,300,l)
);
},
{
closed = 1;
nodes = (
(30,557,l),
(622,557,l),
(622,701,l),
(30,701,l)
);
}
);
userData = {
com.hugojourdan.ColorFlow = {
"0" = 0;
"1" = 0;
"10" = 0;
"11" = 0;
"2" = 0;
"3" = 0;
"4" = 0;
"5" = 0;
"6" = 0;
"7" = 0;
"8" = 0;
"9" = 0;
};
};
width = 652;
},
{
associatedMasterId = "EC5FEA86-72D2-42C8-BC19-2BD75AB225BC";
layerId = "290A0880-11AA-42CB-9D16-78C0A707388B";
name = T.ss02;
shapes = (
{
closed = 1;
nodes = (
(60,112,o),
(157,0,o),
(355,0,cs),
(514,0,l),
(514,144,l),
(339,144,ls),
(249,144,o),
(212,200,o),
(212,290,cs),
(212,557,l),
(514,557,l),
(514,701,l),
(60,701,l),
(60,300,ls)
);
}
);
userData = {
com.hugojourdan.ColorFlow = {
"0" = 0;
"1" = 0;
"10" = 0;
"11" = 0;
"2" = 0;
"3" = 0;
"4" = 0;
"5" = 0;
"6" = 0;
"7" = 0;
"8" = 0;
"9" = 0;
};
};
width = 554;
},
{
layerId = m003;
shapes = (
{
closed = 1;
nodes = (
(10,700,l),
(10,496,l),
(194,496,l),
(194,0,l),
(434,0,l),
(434,496,l),
(618,496,l),
(618,700,l)
);
}
);
userData = {
com.hugojourdan.ColorFlow = {
"0" = 0;
"1" = 0;
"10" = 0;
"11" = 0;
"2" = 0;
"3" = 0;
"4" = 0;
"5" = 0;
"6" = 0;
"7" = 0;
"8" = 0;
"9" = 0;
};
};
width = 628;
},
{
layerId = m004;
shapes = (
{
closed = 1;
nodes = (
(10,700,l),
(10,690,l),
(273,690,l),
(273,0,l),
(283,0,l),
(283,690,l),
(546,690,l),
(546,700,l)
);
}
);
userData = {
com.hugojourdan.ColorFlow = {
"0" = 0;
"1" = 0;
"10" = 0;
"11" = 0;
"2" = 0;
"3" = 0;
"4" = 0;
"5" = 0;
"6" = 0;
"7" = 0;
"8" = 0;
"9" = 0;
};
};
width = 556;
},
{
layerId = m005;
shapes = (
{
closed = 1;
nodes = (
(10,700,l),
(10,650,l),
(220,650,l),
(220,0,l),
(370,0,l),
(370,650,l),
(580,650,l),
(580,700,l)
);
}
);
userData = {
com.hugojourdan.ColorFlow = {
"0" = 0;
"1" = 0;
"10" = 0;
"11" = 0;
"2" = 0;
"3" = 0;
"4" = 0;
"5" = 0;
"6" = 0;
"7" = 0;
"8" = 0;
"9" = 0;
};
};
width = 590;
},
{
associatedMasterId = m005;
layerId = "206ABCEC-B9CE-4382-9FE4-4C3AFBBBCB18";
name = T.ss01;
shapes = (
{
closed = 1;
nodes = (
(218,112,o),
(315,0,o),
(513,0,cs),
(602,0,l),
(602,144,l),
(497,144,ls),
(407,144,o),
(368,200,o),
(368,290,cs),
(368,701,l),
(218,701,l),
(218,300,l)
);
},
{
closed = 1;
nodes = (
(10,557,l),
(602,557,l),
(602,701,l),
(10,701,l)
);
}
);
userData = {
com.hugojourdan.ColorFlow = {
"0" = 0;
"1" = 0;
"10" = 0;
"11" = 0;
"2" = 0;
"3" = 0;
"4" = 0;
"5" = 0;
"6" = 0;
"7" = 0;
"8" = 0;
"9" = 0;
};
};
width = 632;
},
{
associatedMasterId = m005;
layerId = "A1345C2D-8CB4-482D-99BD-BB0296C6955D";
name = T.ss02;
shapes = (
{
closed = 1;
nodes = (
(60,112,o),
(157,0,o),
(355,0,cs),
(514,0,l),
(514,144,l),
(339,144,ls),
(249,144,o),
(212,200,o),
(212,290,cs),
(212,557,l),
(514,557,l),
(514,701,l),
(60,701,l),
(60,300,ls)
);
}
);
width = 554;
},
{
layerId = m006;
shapes = (
{
closed = 1;
nodes = (
(10,700,l),
(10,650,l),
(194,650,l),
(194,0,l),
(434,0,l),
(434,650,l),
(618,650,l),
(618,700,l)
);
}
);
userData = {
com.hugojourdan.ColorFlow = {
"0" = 0;
"1" = 0;
"10" = 0;
"11" = 0;
"2" = 0;
"3" = 0;
"4" = 0;
"5" = 0;
"6" = 0;
"7" = 0;
"8" = 0;
"9" = 0;
};
};
width = 628;
},
{
layerId = m007;
shapes = (
{
closed = 1;
nodes = (
(10,700,l),
(10,690,l),
(773,690,l),
(773,0,l),
(783,0,l),
(783,690,l),
(1510,690,l),
(1510,700,l)
);
}
);
userData = {
com.hugojourdan.ColorFlow = {
"0" = 0;
"1" = 0;
"10" = 0;
"11" = 0;
"2" = 0;
"3" = 0;
"4" = 0;
"5" = 0;
"6" = 0;
"7" = 0;
"8" = 0;
"9" = 0;
};
};
width = 1520;
},
{
layerId = m008;
shapes = (
{
closed = 1;
nodes = (
(10,700,l),
(10,556,l),
(685,556,l),
(685,0,l),
(835,0,l),
(835,556,l),
(1510,556,l),
(1510,700,l)
);
}
);
userData = {
com.hugojourdan.ColorFlow = {
"0" = 0;
"1" = 0;
"10" = 0;
"11" = 0;
"2" = 0;
"3" = 0;
"4" = 0;
"5" = 0;
"6" = 0;
"7" = 0;
"8" = 0;
"9" = 0;
};
};
width = 1520;
},
{
layerId = m009;
shapes = (
{
closed = 1;
nodes = (
(10,700,l),
(10,496,l),
(690,496,l),
(690,0,l),
(930,0,l),
(930,496,l),
(1610,496,l),
(1610,700,l)
);
}
);
userData = {
com.hugojourdan.ColorFlow = {
"0" = 0;
"1" = 0;
"10" = 0;
"11" = 0;
"2" = 0;
"3" = 0;
"4" = 0;
"5" = 0;
"6" = 0;
"7" = 0;
"8" = 0;
"9" = 0;
};
};
width = 1620;
},
{
layerId = m011;
shapes = (
{
closed = 1;
nodes = (
(10,700,l),
(10,650,l),
(685,650,l),
(685,0,l),
(835,0,l),
(835,650,l),
(1510,650,l),
(1510,700,l)
);
}
);
userData = {
com.hugojourdan.ColorFlow = {
"0" = 0;
"1" = 0;
"10" = 0;
"11" = 0;
"2" = 0;
"3" = 0;
"4" = 0;
"5" = 0;
"6" = 0;
"7" = 0;
"8" = 0;
"9" = 0;
};
};
width = 1520;
},
{
layerId = m012;
shapes = (
{
closed = 1;
nodes = (
(10,700,l),
(10,650,l),
(690,650,l),
(690,0,l),
(930,0,l),
(930,650,l),
(1610,650,l),
(1610,700,l)
);
}
);
userData = {
com.hugojourdan.ColorFlow = {
"0" = 0;
"1" = 0;
"10" = 0;
"11" = 0;
"2" = 0;
"3" = 0;
"4" = 0;
"5" = 0;
"6" = 0;
"7" = 0;
"8" = 0;
"9" = 0;
};
};
width = 1620;
},
{
layerId = "1A3F9239-4760-4FF7-8D33-C20C038CC734";
shapes = (
{
closed = 1;
nodes = (
(10,700,l),
(10,690,l),
(773,690,l),
(773,0,l),
(783,0,l),
(783,690,l),
(1510,690,l),
(1510,700,l)
);
}
);
userData = {
com.hugojourdan.ColorFlow = {
"0" = 0;
"1" = 0;
"10" = 0;
"11" = 0;
"2" = 0;
"3" = 0;
"4" = 0;
"5" = 0;
"6" = 0;
"7" = 0;
"8" = 0;
"9" = 0;
};
};
width = 1520;
}
);
unicode = 84;
},
{
glyphname = U;
kernLeft = U;
kernRight = U;
lastChange = "2026-02-21 02:14:50 +0000";
layers = (
{
layerId = "53F0F7F5-7E63-41B5-8940-5CAB53A0CB52";
shapes = (
{
pos = (0,700);
ref = N;
scale = (1,-1);
}
);
userData = {
com.hugojourdan.ColorFlow = {
"0" = 0;
"1" = 0;
"10" = 0;
"11" = 0;
"2" = 0;
"3" = 0;
"4" = 0;
"5" = 0;
"6" = 0;
"7" = 0;
"8" = 0;
"9" = 0;
};
};
width = 592;
},
{
layerId = "EC5FEA86-72D2-42C8-BC19-2BD75AB225BC";
shapes = (
{
pos = (0,700);
ref = N;
scale = (1,-1);
}
);
userData = {
com.hugojourdan.ColorFlow = {
"0" = 0;
"1" = 0;
"10" = 0;
"11" = 0;
"2" = 0;
"3" = 0;
"4" = 0;
"5" = 0;
"6" = 0;
"7" = 0;
"8" = 0;
"9" = 0;
};
};
width = 652;
},
{
associatedMasterId = "EC5FEA86-72D2-42C8-BC19-2BD75AB225BC";
layerId = "040659A8-C319-4555-B194-B0B34414EDF4";
name = U.ss01;
shapes = (
{
closed = 1;
nodes = (
(40,700,l),
(40,0,l),
(602,0,l),
(602,700,l),
(452,700,l),
(452,271,l),
(452,190,o),
(399,134,o),
(321,134,cs),
(321,134,l),
(243,134,o),
(190,190,o),
(190,271,c),
(190,700,l)
);
}
);
width = 642;
},
{
associatedMasterId = "EC5FEA86-72D2-42C8-BC19-2BD75AB225BC";
layerId = "038D24E2-8332-47DE-9BBF-08D1A9FF5626";
name = U.ss02;
shapes = (
{
closed = 1;
nodes = (
(452,144,l),
(321,144,l),
(239,144,o),
(190,199,o),
(190,281,c),
(190,700,l),
(40,700,l),
(40,283,ls),
(40,111,o),
(148,0,o),
(321,0,cs),
(602,0,l),
(602,700,l),
(452,700,l)
);
}
);
width = 642;
},
{
associatedMasterId = "EC5FEA86-72D2-42C8-BC19-2BD75AB225BC";
layerId = "5B675A98-733C-40C1-B316-647695FFF4A9";
name = U.ss03;
shapes = (
{
closed = 1;
nodes = (
(505,144,l),
(420,144,l),
(338,144,o),
(309,200,o),
(290,281,cs),
(193,700,l),
(40,700,l),
(137,283,ls),
(176,115,o),
(240,0,o),
(419,0,cs),
(655,0,l),
(655,700,l),
(505,700,l)
);
}
);
width = 675;
},
{
layerId = m003;
shapes = (
{
pos = (0,700);
ref = N;
scale = (1,-1);
}
);
userData = {
com.hugojourdan.ColorFlow = {
"0" = 0;
"1" = 0;
"10" = 0;
"11" = 0;
"2" = 0;
"3" = 0;
"4" = 0;
"5" = 0;
"6" = 0;
"7" = 0;
"8" = 0;
"9" = 0;
};
};
width = 676;
},
{
layerId = m004;
shapes = (
{
pos = (0,700);
ref = N;
scale = (1,-1);
}
);
userData = {
com.hugojourdan.ColorFlow = {
"0" = 0;
"1" = 0;
"10" = 0;
"11" = 0;
"2" = 0;
"3" = 0;
"4" = 0;
"5" = 0;
"6" = 0;
"7" = 0;
"8" = 0;
"9" = 0;
};
};
width = 592;
},
{
layerId = m005;
shapes = (
{
pos = (0,700);
ref = N;
scale = (1,-1);
}
);
userData = {
com.hugojourdan.ColorFlow = {
"0" = 0;
"1" = 0;
"10" = 0;
"11" = 0;
"2" = 0;
"3" = 0;
"4" = 0;
"5" = 0;
"6" = 0;
"7" = 0;
"8" = 0;
"9" = 0;
};
};
width = 632;
},
{
layerId = m006;
shapes = (
{
pos = (0,700);
ref = N;
scale = (1,-1);
}
);
userData = {
com.hugojourdan.ColorFlow = {
"0" = 0;
"1" = 0;
"10" = 0;
"11" = 0;
"2" = 0;
"3" = 0;
"4" = 0;
"5" = 0;
"6" = 0;
"7" = 0;
"8" = 0;
"9" = 0;
};
};
width = 676;
},
{
layerId = m007;
shapes = (
{
pos = (0,700);
ref = N;
scale = (1,-1);
}
);
userData = {
com.hugojourdan.ColorFlow = {
"0" = 0;
"1" = 0;
"10" = 0;
"11" = 0;
"2" = 0;
"3" = 0;
"4" = 0;
"5" = 0;
"6" = 0;
"7" = 0;
"8" = 0;
"9" = 0;
};
};
width = 1560;
},
{
layerId = m008;
shapes = (
{
pos = (0,700);
ref = N;
scale = (1,-1);
}
);
userData = {
com.hugojourdan.ColorFlow = {
"0" = 0;
"1" = 0;
"10" = 0;
"11" = 0;
"2" = 0;
"3" = 0;
"4" = 0;
"5" = 0;
"6" = 0;
"7" = 0;
"8" = 0;
"9" = 0;
};
};
width = 1590;
},
{
layerId = m009;
shapes = (
{
pos = (0,700);
ref = N;
scale = (1,-1);
}
);
userData = {
com.hugojourdan.ColorFlow = {
"0" = 0;
"1" = 0;
"10" = 0;
"11" = 0;
"2" = 0;
"3" = 0;
"4" = 0;
"5" = 0;
"6" = 0;
"7" = 0;
"8" = 0;
"9" = 0;
};
};
width = 1600;
},
{
layerId = m011;
shapes = (
{
pos = (0,700);
ref = N;
scale = (1,-1);
}
);
userData = {
com.hugojourdan.ColorFlow = {
"0" = 0;
"1" = 0;
"10" = 0;
"11" = 0;
"2" = 0;
"3" = 0;
"4" = 0;
"5" = 0;
"6" = 0;
"7" = 0;
"8" = 0;
"9" = 0;
};
};
width = 1570;
},
{
layerId = m012;
shapes = (
{
pos = (0,700);
ref = N;
scale = (1,-1);
}
);
userData = {
com.hugojourdan.ColorFlow = {
"0" = 0;
"1" = 0;
"10" = 0;
"11" = 0;
"2" = 0;
"3" = 0;
"4" = 0;
"5" = 0;
"6" = 0;
"7" = 0;
"8" = 0;
"9" = 0;
};
};
width = 1578;
},
{
layerId = "1A3F9239-4760-4FF7-8D33-C20C038CC734";
shapes = (
{
pos = (0,700);
ref = N;
scale = (1,-1);
}
);
userData = {
com.hugojourdan.ColorFlow = {
"0" = 0;
"1" = 0;
"10" = 0;
"11" = 0;
"2" = 0;
"3" = 0;
"4" = 0;
"5" = 0;
"6" = 0;
"7" = 0;
"8" = 0;
"9" = 0;
};
};
width = 1560;
}
);
metricLeft = A;
metricRight = A;
unicode = 85;
},
{
glyphname = V;
kernLeft = V;
kernRight = V;
lastChange = "2026-02-21 01:53:22 +0000";
layers = (
{
associatedMasterId = "EC5FEA86-72D2-42C8-BC19-2BD75AB225BC";
layerId = "40F4FD8E-43F0-4706-A7E1-08CA08DF8F77";
name = V.ss01;
shapes = (
{
closed = 1;
nodes = (
(10,700,l),
(99,213,ls),
(125,67,o),
(181,-10,o),
(321,-10,cs),
(321,-10,ls),
(460,-10,o),
(516,67,o),
(542,213,cs),
(629,700,l),
(480,700,l),
(399,241,ls),
(387,172,o),
(379,136,o),
(321,136,cs),
(321,136,l),
(264,136,o),
(256,172,o),
(243,241,cs),
(159,700,l)
);
}
);
width = 643;
},
{
associatedMasterId = "EC5FEA86-72D2-42C8-BC19-2BD75AB225BC";
layerId = "4951DE60-EE79-466A-82E9-202AF28264D9";
name = V1;
shapes = (
{
closed = 1;
nodes = (
(189,154,ls),
(218,66,o),
(243,-10,o),
(343,-10,cs),
(343,-10,l),
(444,-10,o),
(469,65,o),
(498,154,cs),
(675,700,l),
(519,700,l),
(343,154,l),
(343,154,l),
(166,700,l),
(10,700,l)
);
}
);
width = 685;
},
{
layerId = "EC5FEA86-72D2-42C8-BC19-2BD75AB225BC";
name = REGULAR;
shapes = (
{
closed = 1;
nodes = (
(432,-10,o),
(505,42,o),
(534,174,cs),
(649,700,l),
(500,700,l),
(391,192,ls),
(383,153,o),
(368,126,o),
(331,126,cs),
(331,126,l),
(295,126,o),
(279,153,o),
(271,191,cs),
(159,700,l),
(10,700,l),
(126,178,ls),
(157,40,o),
(229,-10,o),
(331,-10,cs),
(331,-10,ls)
);
}
);
userData = {
com.hugojourdan.ColorFlow = {
"0" = 0;
"1" = 0;
"10" = 0;
"11" = 0;
"2" = 0;
"3" = 0;
"4" = 0;
"5" = 0;
"6" = 0;
"7" = 0;
"8" = 0;
"9" = 0;
};
};
width = 659;
},
{
associatedMasterId = "53F0F7F5-7E63-41B5-8940-5CAB53A0CB52";
layerId = "DB22B2DD-E26A-4806-A2BE-B121F80EA672";
name = "11 Jan 25 at 20:41";
shapes = (
{
closed = 1;
nodes = (
(317,-1,ls),
(320,-8,o),
(323,-10,o),
(328,-10,cs),
(328,-10,l),
(333,-10,o),
(336,-8,o),
(339,-1,cs),
(632,700,l),
(621,700,l),
(328,-1,l),
(328,-1,l),
(34,700,l),
(23,700,l)
);
}
);
width = 655;
},
{
layerId = "53F0F7F5-7E63-41B5-8940-5CAB53A0CB52";
name = THIN;
shapes = (
{
closed = 1;
nodes = (
(403,-10,o),
(427,55,o),
(456,144,cs),
(636,700,l),
(625,700,l),
(442,134,ls),
(415,51,o),
(391,0,o),
(323,0,cs),
(323,0,ls),
(255,0,o),
(232,51,o),
(205,134,cs),
(21,700,l),
(10,700,l),
(191,144,ls),
(220,55,o),
(243,-10,o),
(323,-10,cs),
(323,-10,l)
);
}
);
userData = {
com.hugojourdan.ColorFlow = {
"0" = 0;
"1" = 0;
"10" = 0;
"11" = 0;
"2" = 0;
"3" = 0;
"4" = 0;
"5" = 0;
"6" = 0;
"7" = 0;
"8" = 0;
"9" = 0;
};
};
visible = 1;
width = 646;
},
{
layerId = m003;
name = REGULAR;
shapes = (
{
closed = 1;
nodes = (
(484,-10,o),
(566,58,o),
(594,205,cs),
(689,700,l),
(446,700,l),
(370,230,ls),
(369,223,o),
(366,210,o),
(351,210,cs),
(351,210,l),
(336,210,o),
(333,222,o),
(332,229,cs),
(253,700,l),
(10,700,l),
(107,205,ls),
(136,56,o),
(218,-10,o),
(351,-10,cs),
(351,-10,ls)
);
}
);
userData = {
com.hugojourdan.ColorFlow = {
"0" = 0;
"1" = 0;
"10" = 0;
"11" = 0;
"2" = 0;
"3" = 0;
"4" = 0;
"5" = 0;
"6" = 0;
"7" = 0;
"8" = 0;
"9" = 0;
};
};
width = 699;
},
{
associatedMasterId = m004;
layerId = "A2645180-8C6D-428E-BB94-A1F93DB950B0";
name = "11 Jan 25 at 20:41";
shapes = (
{
closed = 1;
nodes = (
(317,-1,ls),
(320,-8,o),
(323,-10,o),
(328,-10,cs),
(328,-10,l),
(333,-10,o),
(336,-8,o),
(339,-1,cs),
(632,700,l),
(621,700,l),
(328,-1,l),
(328,-1,l),
(34,700,l),
(23,700,l)
);
}
);
userData = {
com.hugojourdan.ColorFlow = {
"0" = 0;
"1" = 0;
"10" = 0;
"11" = 0;
"2" = 0;
"3" = 0;
"4" = 0;
"5" = 0;
"6" = 0;
"7" = 0;
"8" = 0;
"9" = 0;
};
};
width = 655;
},
{
layerId = m004;
name = THIN;
shapes = (
{
closed = 1;
nodes = (
(403,-10,o),
(427,55,o),
(456,144,cs),
(636,700,l),
(625,700,l),
(442,134,ls),
(415,51,o),
(391,0,o),
(323,0,cs),
(323,0,ls),
(255,0,o),
(232,51,o),
(205,134,cs),
(21,700,l),
(10,700,l),
(191,144,ls),
(220,55,o),
(243,-10,o),
(323,-10,cs),
(323,-10,l)
);
}
);
userData = {
com.hugojourdan.ColorFlow = {
"0" = 0;
"1" = 0;
"10" = 0;
"11" = 0;
"2" = 0;
"3" = 0;
"4" = 0;
"5" = 0;
"6" = 0;
"7" = 0;
"8" = 0;
"9" = 0;
};
};
width = 646;
},
{
layerId = m005;
name = REGULAR;
shapes = (
{
closed = 1;
nodes = (
(432,-10,o),
(505,42,o),
(534,174,cs),
(649,700,l),
(597,700,l),
(488,195,ls),
(473,122,o),
(433,89,o),
(381,89,cs),
(381,89,l),
(329,89,o),
(286,122,o),
(270,195,cs),
(159,700,l),
(10,700,l),
(126,178,ls),
(157,40,o),
(229,-10,o),
(331,-10,cs),
(331,-10,ls)
);
}
);
userData = {
com.hugojourdan.ColorFlow = {
"0" = 0;
"1" = 0;
"10" = 0;
"11" = 0;
"2" = 0;
"3" = 0;
"4" = 0;
"5" = 0;
"6" = 0;
"7" = 0;
"8" = 0;
"9" = 0;
};
};
width = 659;
},
{
layerId = m006;
name = REGULAR;
shapes = (
{
closed = 1;
nodes = (
(484,-10,o),
(572,58,o),
(599,205,cs),
(689,700,l),
(638,700,l),
(553,230,ls),
(537,143,o),
(505,89,o),
(450,89,c),
(450,89,l),
(392,89,o),
(357,130,o),
(336,245,cs),
(253,700,l),
(10,700,l),
(100,215,ls),
(130,56,o),
(218,-10,o),
(351,-10,cs),
(351,-10,ls)
);
}
);
userData = {
com.hugojourdan.ColorFlow = {
"0" = 0;
"1" = 0;
"10" = 0;
"11" = 0;
"2" = 0;
"3" = 0;
"4" = 0;
"5" = 0;
"6" = 0;
"7" = 0;
"8" = 0;
"9" = 0;
};
};
width = 699;
},
{
layerId = m009;
shapes = (
{
closed = 1;
nodes = (
(1385,0,o),
(1417,87,o),
(1495,215,cs),
(1790,700,l),
(1537,700,l),
(1246,224,ls),
(1237,209,o),
(1222,204,o),
(1207,204,cs),
(595,204,l),
(580,204,o),
(564,209,o),
(556,223,cs),
(264,700,l),
(10,700,l),
(307,215,ls),
(386,86,o),
(418,0,o),
(551,0,cs),
(1252,0,ls)
);
}
);
userData = {
com.hugojourdan.ColorFlow = {
"0" = 0;
"1" = 0;
"10" = 0;
"11" = 0;
"2" = 0;
"3" = 0;
"4" = 0;
"5" = 0;
"6" = 0;
"7" = 0;
"8" = 0;
"9" = 0;
};
};
width = 1800;
},
{
layerId = m007;
shapes = (
{
closed = 1;
nodes = (
(1203,0,o),
(1233,71,o),
(1276,154,cs),
(1556,700,l),
(1545,700,l),
(1260,144,ls),
(1220,66,o),
(1191,10,o),
(1123,10,cs),
(443,10,ls),
(375,10,o),
(347,66,o),
(307,144,cs),
(21,700,l),
(10,700,l),
(291,154,ls),
(334,71,o),
(363,0,o),
(443,0,cs),
(1123,0,l)
);
}
);
userData = {
com.hugojourdan.ColorFlow = {
"0" = 0;
"1" = 0;
"10" = 0;
"11" = 0;
"2" = 0;
"3" = 0;
"4" = 0;
"5" = 0;
"6" = 0;
"7" = 0;
"8" = 0;
"9" = 0;
};
};
width = 1566;
},
{
layerId = m008;
shapes = (
{
closed = 1;
nodes = (
(1282,0,o),
(1322,64,o),
(1384,184,cs),
(1649,700,l),
(1500,700,l),
(1241,202,ls),
(1222,165,o),
(1218,136,o),
(1181,136,cs),
(481,136,l),
(445,136,o),
(440,165,o),
(421,201,cs),
(159,700,l),
(10,700,l),
(276,188,ls),
(341,63,o),
(379,0,o),
(481,0,cs),
(1181,0,ls)
);
}
);
userData = {
com.hugojourdan.ColorFlow = {
"0" = 0;
"1" = 0;
"10" = 0;
"11" = 0;
"2" = 0;
"3" = 0;
"4" = 0;
"5" = 0;
"6" = 0;
"7" = 0;
"8" = 0;
"9" = 0;
};
};
width = 1659;
},
{
layerId = m011;
shapes = (
{
closed = 1;
nodes = (
(1212,0,o),
(1258,61,o),
(1314,184,cs),
(1549,700,l),
(1497,700,l),
(1268,205,ls),
(1237,138,o),
(1213,99,o),
(1161,99,cs),
(501,99,l),
(449,99,o),
(422,137,o),
(390,205,cs),
(159,700,l),
(10,700,l),
(246,188,ls),
(305,60,o),
(349,0,o),
(451,0,cs),
(1111,0,ls)
);
}
);
userData = {
com.hugojourdan.ColorFlow = {
"0" = 0;
"1" = 0;
"10" = 0;
"11" = 0;
"2" = 0;
"3" = 0;
"4" = 0;
"5" = 0;
"6" = 0;
"7" = 0;
"8" = 0;
"9" = 0;
};
};
width = 1559;
},
{
layerId = m012;
shapes = (
{
closed = 1;
nodes = (
(1264,-10,o),
(1321,71,o),
(1389,205,cs),
(1639,700,l),
(1588,700,l),
(1343,230,ls),
(1302,151,o),
(1275,89,o),
(1220,89,c),
(640,89,l),
(582,89,o),
(551,143,o),
(496,245,cs),
(253,700,l),
(10,700,l),
(260,215,ls),
(335,70,o),
(408,-10,o),
(541,-10,cs),
(1121,-10,ls)
);
}
);
userData = {
com.hugojourdan.ColorFlow = {
"0" = 0;
"1" = 0;
"10" = 0;
"11" = 0;
"2" = 0;
"3" = 0;
"4" = 0;
"5" = 0;
"6" = 0;
"7" = 0;
"8" = 0;
"9" = 0;
};
};
width = 1649;
},
{
layerId = "1A3F9239-4760-4FF7-8D33-C20C038CC734";
shapes = (
{
closed = 1;
nodes = (
(1203,0,o),
(1233,71,o),
(1276,154,cs),
(1556,700,l),
(1545,700,l),
(1260,144,ls),
(1220,66,o),
(1191,10,o),
(1123,10,cs),
(443,10,ls),
(375,10,o),
(347,66,o),
(307,144,cs),
(21,700,l),
(10,700,l),
(291,154,ls),
(334,71,o),
(363,0,o),
(443,0,cs),
(1123,0,l)
);
}
);
userData = {
com.hugojourdan.ColorFlow = {
"0" = 0;
"1" = 0;
"10" = 0;
"11" = 0;
"2" = 0;
"3" = 0;
"4" = 0;
"5" = 0;
"6" = 0;
"7" = 0;
"8" = 0;
"9" = 0;
};
};
width = 1566;
}
);
unicode = 86;
},
{
glyphname = W;
lastChange = "2026-02-21 02:08:07 +0000";
layers = (
{
layerId = "53F0F7F5-7E63-41B5-8940-5CAB53A0CB52";
shapes = (
{
pos = (0,700);
ref = M;
scale = (1,-1);
}
);
userData = {
com.hugojourdan.ColorFlow = {
"0" = 0;
"1" = 0;
"10" = 0;
"11" = 0;
"2" = 0;
"3" = 0;
"4" = 0;
"5" = 0;
"6" = 0;
"7" = 0;
"8" = 0;
"9" = 0;
};
};
width = 856;
},
{
layerId = "EC5FEA86-72D2-42C8-BC19-2BD75AB225BC";
shapes = (
{
pos = (0,700);
ref = M;
scale = (1,-1);
}
);
userData = {
com.hugojourdan.ColorFlow = {
"0" = 0;
"1" = 0;
"10" = 0;
"11" = 0;
"2" = 0;
"3" = 0;
"4" = 0;
"5" = 0;
"6" = 0;
"7" = 0;
"8" = 0;
"9" = 0;
};
};
width = 916;
},
{
associatedMasterId = "EC5FEA86-72D2-42C8-BC19-2BD75AB225BC";
layerId = "3D12A44A-3AF1-4BA6-8D89-E0EC33C5D5EC";
name = W.ss01;
shapes = (
{
closed = 1;
nodes = (
(56,30,o),
(110,-9,o),
(183,-9,cs),
(256,-9,o),
(311,28,o),
(341,127,cs),
(458,515,l),
(372,515,l),
(490,127,ls),
(521,26,o),
(574,-9,o),
(647,-9,cs),
(720,-9,o),
(774,30,o),
(780,143,cs),
(810,700,l),
(660,700,l),
(629,211,l),
(483,652,ls),
(457,730,o),
(374,730,o),
(347,652,cs),
(197,211,l),
(170,700,l),
(20,700,l),
(50,143,ls)
);
}
);
width = 830;
},
{
associatedMasterId = "EC5FEA86-72D2-42C8-BC19-2BD75AB225BC";
layerId = "45823F5F-0214-4186-9775-E1F13F6DAE7E";
name = W.ss02;
shapes = (
{
closed = 1;
nodes = (
(20,0,l),
(856,0,l),
(856,700,l),
(706,700,l),
(706,241,ls),
(706,175,o),
(667,134,o),
(609,134,c),
(609,134,l),
(551,134,o),
(513,175,o),
(513,241,cs),
(513,700,l),
(363,700,l),
(363,241,ls),
(363,175,o),
(325,134,o),
(267,134,c),
(267,134,ls),
(209,134,o),
(170,175,o),
(170,241,cs),
(170,700,l),
(20,700,l)
);
}
);
width = 876;
},
{
layerId = m003;
shapes = (
{
pos = (0,700);
ref = M;
scale = (1,-1);
}
);
userData = {
com.hugojourdan.ColorFlow = {
"0" = 0;
"1" = 0;
"10" = 0;
"11" = 0;
"2" = 0;
"3" = 0;
"4" = 0;
"5" = 0;
"6" = 0;
"7" = 0;
"8" = 0;
"9" = 0;
};
};
width = 974;
},
{
layerId = m004;
shapes = (
{
pos = (0,700);
ref = M;
scale = (1,-1);
}
);
userData = {
com.hugojourdan.ColorFlow = {
"0" = 0;
"1" = 0;
"10" = 0;
"11" = 0;
"2" = 0;
"3" = 0;
"4" = 0;
"5" = 0;
"6" = 0;
"7" = 0;
"8" = 0;
"9" = 0;
};
};
width = 856;
},
{
layerId = m005;
shapes = (
{
pos = (0,700);
ref = M;
scale = (1,-1);
}
);
userData = {
com.hugojourdan.ColorFlow = {
"0" = 0;
"1" = 0;
"10" = 0;
"11" = 0;
"2" = 0;
"3" = 0;
"4" = 0;
"5" = 0;
"6" = 0;
"7" = 0;
"8" = 0;
"9" = 0;
};
};
width = 906;
},
{
layerId = m006;
shapes = (
{
pos = (0,700);
ref = M;
scale = (1,-1);
}
);
userData = {
com.hugojourdan.ColorFlow = {
"0" = 0;
"1" = 0;
"10" = 0;
"11" = 0;
"2" = 0;
"3" = 0;
"4" = 0;
"5" = 0;
"6" = 0;
"7" = 0;
"8" = 0;
"9" = 0;
};
};
width = 974;
},
{
layerId = m007;
shapes = (
{
pos = (0,700);
ref = M;
scale = (1,-1);
}
);
userData = {
com.hugojourdan.ColorFlow = {
"0" = 0;
"1" = 0;
"10" = 0;
"11" = 0;
"2" = 0;
"3" = 0;
"4" = 0;
"5" = 0;
"6" = 0;
"7" = 0;
"8" = 0;
"9" = 0;
};
};
width = 2380;
},
{
layerId = m008;
shapes = (
{
pos = (0,700);
ref = M;
scale = (1,-1);
}
);
userData = {
com.hugojourdan.ColorFlow = {
"0" = 0;
"1" = 0;
"10" = 0;
"11" = 0;
"2" = 0;
"3" = 0;
"4" = 0;
"5" = 0;
"6" = 0;
"7" = 0;
"8" = 0;
"9" = 0;
};
};
width = 2400;
},
{
layerId = m009;
shapes = (
{
pos = (0,700);
ref = M;
scale = (1,-1);
}
);
userData = {
com.hugojourdan.ColorFlow = {
"0" = 0;
"1" = 0;
"10" = 0;
"11" = 0;
"2" = 0;
"3" = 0;
"4" = 0;
"5" = 0;
"6" = 0;
"7" = 0;
"8" = 0;
"9" = 0;
};
};
width = 2340;
},
{
layerId = m011;
shapes = (
{
pos = (0,700);
ref = M;
scale = (1,-1);
}
);
userData = {
com.hugojourdan.ColorFlow = {
"0" = 0;
"1" = 0;
"10" = 0;
"11" = 0;
"2" = 0;
"3" = 0;
"4" = 0;
"5" = 0;
"6" = 0;
"7" = 0;
"8" = 0;
"9" = 0;
};
};
width = 2380;
},
{
layerId = m012;
shapes = (
{
pos = (0,700);
ref = M;
scale = (1,-1);
}
);
userData = {
com.hugojourdan.ColorFlow = {
"0" = 0;
"1" = 0;
"10" = 0;
"11" = 0;
"2" = 0;
"3" = 0;
"4" = 0;
"5" = 0;
"6" = 0;
"7" = 0;
"8" = 0;
"9" = 0;
};
};
width = 2320;
},
{
layerId = "1A3F9239-4760-4FF7-8D33-C20C038CC734";
shapes = (
{
pos = (0,700);
ref = M;
scale = (1,-1);
}
);
userData = {
com.hugojourdan.ColorFlow = {
"0" = 0;
"1" = 0;
"10" = 0;
"11" = 0;
"2" = 0;
"3" = 0;
"4" = 0;
"5" = 0;
"6" = 0;
"7" = 0;
"8" = 0;
"9" = 0;
};
};
width = 2380;
}
);
unicode = 87;
},
{
glyphname = X;
kernLeft = X;
kernRight = X;
lastChange = "2026-02-21 02:08:13 +0000";
layers = (
{
layerId = "53F0F7F5-7E63-41B5-8940-5CAB53A0CB52";
shapes = (
{
closed = 1;
nodes = (
(40,0,l),
(40,153,ls),
(40,268,o),
(108,345,o),
(208,345,cs),
(350,345,ls),
(450,345,o),
(518,268,o),
(518,153,cs),
(518,0,l),
(528,0,l),
(528,153,ls),
(528,266,o),
(463,340,o),
(386,350,c),
(463,359,o),
(528,432,o),
(528,547,cs),
(528,700,l),
(518,700,l),
(518,547,ls),
(518,431,o),
(450,355,o),
(350,355,cs),
(208,355,ls),
(108,355,o),
(40,431,o),
(40,547,cs),
(40,700,l),
(30,700,l),
(30,547,ls),
(30,432,o),
(95,359,o),
(172,350,c),
(95,340,o),
(30,266,o),
(30,153,cs),
(30,0,l)
);
}
);
userData = {
com.hugojourdan.ColorFlow = {
"0" = 0;
"1" = 0;
"10" = 0;
"11" = 0;
"2" = 0;
"3" = 0;
"4" = 0;
"5" = 0;
"6" = 0;
"7" = 0;
"8" = 0;
"9" = 0;
};
};
width = 558;
},
{
layerId = "EC5FEA86-72D2-42C8-BC19-2BD75AB225BC";
shapes = (
{
closed = 1;
nodes = (
(180,0,l),
(180,141,ls),
(180,222,o),
(233,278,o),
(311,278,cs),
(311,278,ls),
(389,278,o),
(442,222,o),
(442,141,cs),
(442,0,l),
(592,0,l),
(592,139,ls),
(592,227,o),
(561,300,o),
(497,350,c),
(561,400,o),
(592,473,o),
(592,561,cs),
(592,700,l),
(442,700,l),
(442,559,ls),
(442,478,o),
(389,422,o),
(311,422,cs),
(311,422,ls),
(233,422,o),
(180,478,o),
(180,559,cs),
(180,700,l),
(30,700,l),
(30,561,ls),
(30,473,o),
(61,400,o),
(125,350,c),
(61,300,o),
(30,227,o),
(30,139,cs),
(30,0,l)
);
}
);
userData = {
com.hugojourdan.ColorFlow = {
"0" = 0;
"1" = 0;
"10" = 0;
"11" = 0;
"2" = 0;
"3" = 0;
"4" = 0;
"5" = 0;
"6" = 0;
"7" = 0;
"8" = 0;
"9" = 0;
};
};
width = 622;
},
{
associatedMasterId = "EC5FEA86-72D2-42C8-BC19-2BD75AB225BC";
layerId = "FFD6DE5A-A93E-47A8-8DD2-D86D9650B5B2";
name = X.ss01;
shapes = (
{
closed = 1;
nodes = (
(155,0,o),
(256,40,o),
(320,122,c),
(384,40,o),
(485,0,o),
(605,0,c),
(625,0,l),
(625,144,l),
(605,144,l),
(483,144,o),
(395,224,o),
(395,348,cs),
(395,464,o),
(483,556,o),
(605,556,c),
(625,556,l),
(625,700,l),
(605,700,l),
(485,700,o),
(384,659,o),
(320,577,c),
(256,659,o),
(155,700,o),
(35,700,c),
(15,700,l),
(15,556,l),
(35,556,l),
(157,556,o),
(245,464,o),
(245,348,cs),
(245,224,o),
(157,144,o),
(35,144,c),
(15,144,l),
(15,0,l),
(35,0,l)
);
}
);
width = 640;
},
{
associatedMasterId = "EC5FEA86-72D2-42C8-BC19-2BD75AB225BC";
layerId = "713608E5-0775-4341-ABC8-A423DD8324DB";
name = X.ss02;
shapes = (
{
closed = 1;
nodes = (
(40,0,l),
(229,0,l),
(680,700,l),
(491,700,l)
);
},
{
closed = 1;
nodes = (
(46,700,l),
(497,0,l),
(686,0,l),
(235,700,l)
);
}
);
width = 726;
},
{
associatedMasterId = "EC5FEA86-72D2-42C8-BC19-2BD75AB225BC";
layerId = "5E0CFA4A-EEEC-4513-8F67-9CE5A0CFC142";
name = X.ss03;
shapes = (
{
closed = 1;
nodes = (
(118,336,o),
(92,245,o),
(75,194,cs),
(10,0,l),
(161,0,l),
(236,215,ls),
(254,267,o),
(272,277,o),
(331,277,cs),
(390,277,o),
(408,266,o),
(425,217,cs),
(501,0,l),
(652,0,l),
(586,196,ls),
(570,245,o),
(545,336,o),
(501,350,c),
(545,364,o),
(569,455,o),
(586,504,cs),
(652,700,l),
(501,700,l),
(426,482,ls),
(409,433,o),
(390,422,o),
(331,422,cs),
(272,422,o),
(253,432,o),
(235,484,cs),
(161,700,l),
(10,700,l),
(75,506,ls),
(92,455,o),
(118,364,o),
(162,350,c)
);
}
);
width = 662;
},
{
layerId = m003;
shapes = (
{
closed = 1;
nodes = (
(270,0,l),
(270,185,ls),
(270,225,o),
(295,251,o),
(331,251,cs),
(331,251,ls),
(367,251,o),
(392,225,o),
(392,185,cs),
(392,0,l),
(632,0,l),
(632,139,ls),
(632,227,o),
(601,300,o),
(539,350,c),
(601,400,o),
(632,473,o),
(632,561,cs),
(632,700,l),
(392,700,l),
(392,521,ls),
(392,481,o),
(367,455,o),
(331,455,cs),
(331,455,ls),
(295,455,o),
(270,481,o),
(270,521,cs),
(270,700,l),
(30,700,l),
(30,561,ls),
(30,473,o),
(61,400,o),
(123,350,c),
(61,300,o),
(30,227,o),
(30,139,cs),
(30,0,l)
);
}
);
userData = {
com.hugojourdan.ColorFlow = {
"0" = 0;
"1" = 0;
"10" = 0;
"11" = 0;
"2" = 0;
"3" = 0;
"4" = 0;
"5" = 0;
"6" = 0;
"7" = 0;
"8" = 0;
"9" = 0;
};
};
width = 662;
},
{
layerId = m004;
shapes = (
{
closed = 1;
nodes = (
(40,0,l),
(40,153,ls),
(40,268,o),
(108,345,o),
(208,345,cs),
(350,345,ls),
(450,345,o),
(518,268,o),
(518,153,cs),
(518,0,l),
(528,0,l),
(528,153,ls),
(528,266,o),
(463,340,o),
(386,350,c),
(463,359,o),
(528,432,o),
(528,547,cs),
(528,700,l),
(518,700,l),
(518,547,ls),
(518,431,o),
(450,355,o),
(350,355,cs),
(208,355,ls),
(108,355,o),
(40,431,o),
(40,547,cs),
(40,700,l),
(30,700,l),
(30,547,ls),
(30,432,o),
(95,359,o),
(172,350,c),
(95,340,o),
(30,266,o),
(30,153,cs),
(30,0,l)
);
}
);
userData = {
com.hugojourdan.ColorFlow = {
"0" = 0;
"1" = 0;
"10" = 0;
"11" = 0;
"2" = 0;
"3" = 0;
"4" = 0;
"5" = 0;
"6" = 0;
"7" = 0;
"8" = 0;
"9" = 0;
};
};
width = 558;
},
{
layerId = m005;
shapes = (
{
closed = 1;
nodes = (
(180,0,l),
(180,188,ls),
(180,269,o),
(233,325,o),
(311,325,cs),
(311,325,ls),
(389,325,o),
(442,269,o),
(442,188,cs),
(442,0,l),
(592,0,l),
(592,139,ls),
(592,227,o),
(561,300,o),
(492,350,c),
(561,400,o),
(592,473,o),
(592,561,cs),
(592,700,l),
(442,700,l),
(442,512,ls),
(442,431,o),
(389,375,o),
(311,375,cs),
(311,375,ls),
(233,375,o),
(180,431,o),
(180,512,cs),
(180,700,l),
(30,700,l),
(30,561,ls),
(30,473,o),
(61,400,o),
(130,350,c),
(61,300,o),
(30,227,o),
(30,139,cs),
(30,0,l)
);
}
);
userData = {
com.hugojourdan.ColorFlow = {
"0" = 0;
"1" = 0;
"10" = 0;
"11" = 0;
"2" = 0;
"3" = 0;
"4" = 0;
"5" = 0;
"6" = 0;
"7" = 0;
"8" = 0;
"9" = 0;
};
};
width = 622;
},
{
layerId = m006;
shapes = (
{
closed = 1;
nodes = (
(270,0,l),
(270,262,ls),
(270,302,o),
(295,328,o),
(331,328,cs),
(331,328,ls),
(367,328,o),
(392,302,o),
(392,262,cs),
(392,0,l),
(632,0,l),
(632,139,ls),
(632,227,o),
(601,300,o),
(519,350,c),
(601,400,o),
(632,473,o),
(632,561,cs),
(632,700,l),
(392,700,l),
(392,444,ls),
(392,404,o),
(367,378,o),
(331,378,cs),
(331,378,ls),
(295,378,o),
(270,404,o),
(270,444,cs),
(270,700,l),
(30,700,l),
(30,561,ls),
(30,473,o),
(61,400,o),
(143,350,c),
(61,300,o),
(30,227,o),
(30,139,cs),
(30,0,l)
);
}
);
userData = {
com.hugojourdan.ColorFlow = {
"0" = 0;
"1" = 0;
"10" = 0;
"11" = 0;
"2" = 0;
"3" = 0;
"4" = 0;
"5" = 0;
"6" = 0;
"7" = 0;
"8" = 0;
"9" = 0;
};
};
width = 662;
},
{
layerId = m007;
shapes = (
{
closed = 1;
nodes = (
(40,0,l),
(40,153,ls),
(40,268,o),
(108,345,o),
(208,345,cs),
(1352,345,ls),
(1452,345,o),
(1520,268,o),
(1520,153,cs),
(1520,0,l),
(1530,0,l),
(1530,153,ls),
(1530,266,o),
(1465,340,o),
(1388,350,c),
(1465,359,o),
(1530,432,o),
(1530,547,cs),
(1530,700,l),
(1520,700,l),
(1520,547,ls),
(1520,431,o),
(1452,355,o),
(1352,355,cs),
(208,355,ls),
(108,355,o),
(40,431,o),
(40,547,cs),
(40,700,l),
(30,700,l),
(30,547,ls),
(30,432,o),
(95,359,o),
(172,350,c),
(95,340,o),
(30,266,o),
(30,153,cs),
(30,0,l)
);
}
);
userData = {
com.hugojourdan.ColorFlow = {
"0" = 0;
"1" = 0;
"10" = 0;
"11" = 0;
"2" = 0;
"3" = 0;
"4" = 0;
"5" = 0;
"6" = 0;
"7" = 0;
"8" = 0;
"9" = 0;
};
};
width = 1560;
},
{
layerId = m008;
shapes = (
{
closed = 1;
nodes = (
(180,0,l),
(180,141,ls),
(180,222,o),
(233,278,o),
(311,278,cs),
(1249,278,ls),
(1327,278,o),
(1380,222,o),
(1380,141,cs),
(1380,0,l),
(1530,0,l),
(1530,139,ls),
(1530,227,o),
(1499,300,o),
(1435,350,c),
(1499,400,o),
(1530,473,o),
(1530,561,cs),
(1530,700,l),
(1380,700,l),
(1380,559,ls),
(1380,478,o),
(1327,422,o),
(1249,422,cs),
(311,422,ls),
(233,422,o),
(180,478,o),
(180,559,cs),
(180,700,l),
(30,700,l),
(30,561,ls),
(30,473,o),
(61,400,o),
(125,350,c),
(61,300,o),
(30,227,o),
(30,139,cs),
(30,0,l)
);
}
);
userData = {
com.hugojourdan.ColorFlow = {
"0" = 0;
"1" = 0;
"10" = 0;
"11" = 0;
"2" = 0;
"3" = 0;
"4" = 0;
"5" = 0;
"6" = 0;
"7" = 0;
"8" = 0;
"9" = 0;
};
};
width = 1560;
},
{
layerId = m009;
shapes = (
{
closed = 1;
nodes = (
(270,0,l),
(270,185,ls),
(270,225,o),
(295,251,o),
(331,251,cs),
(1279,251,ls),
(1315,251,o),
(1340,225,o),
(1340,185,cs),
(1340,0,l),
(1580,0,l),
(1580,139,ls),
(1580,227,o),
(1549,300,o),
(1487,350,c),
(1549,400,o),
(1580,473,o),
(1580,561,cs),
(1580,700,l),
(1340,700,l),
(1340,521,ls),
(1340,481,o),
(1315,455,o),
(1279,455,cs),
(331,455,ls),
(295,455,o),
(270,481,o),
(270,521,cs),
(270,700,l),
(30,700,l),
(30,561,ls),
(30,473,o),
(61,400,o),
(123,350,c),
(61,300,o),
(30,227,o),
(30,139,cs),
(30,0,l)
);
}
);
userData = {
com.hugojourdan.ColorFlow = {
"0" = 0;
"1" = 0;
"10" = 0;
"11" = 0;
"2" = 0;
"3" = 0;
"4" = 0;
"5" = 0;
"6" = 0;
"7" = 0;
"8" = 0;
"9" = 0;
};
};
width = 1610;
},
{
layerId = m011;
shapes = (
{
closed = 1;
nodes = (
(175,0,l),
(175,188,ls),
(175,269,o),
(228,325,o),
(306,325,cs),
(1244,325,ls),
(1322,325,o),
(1375,269,o),
(1375,188,cs),
(1375,0,l),
(1525,0,l),
(1525,139,ls),
(1525,227,o),
(1494,300,o),
(1425,350,c),
(1494,400,o),
(1525,473,o),
(1525,561,cs),
(1525,700,l),
(1375,700,l),
(1375,512,ls),
(1375,431,o),
(1322,375,o),
(1244,375,cs),
(306,375,ls),
(228,375,o),
(175,431,o),
(175,512,cs),
(175,700,l),
(25,700,l),
(25,561,ls),
(25,473,o),
(56,400,o),
(125,350,c),
(56,300,o),
(25,227,o),
(25,139,cs),
(25,0,l)
);
}
);
userData = {
com.hugojourdan.ColorFlow = {
"0" = 0;
"1" = 0;
"10" = 0;
"11" = 0;
"2" = 0;
"3" = 0;
"4" = 0;
"5" = 0;
"6" = 0;
"7" = 0;
"8" = 0;
"9" = 0;
};
};
width = 1550;
},
{
layerId = m012;
shapes = (
{
closed = 1;
nodes = (
(260,0,l),
(260,262,ls),
(260,302,o),
(285,328,o),
(321,328,cs),
(1269,328,ls),
(1305,328,o),
(1330,302,o),
(1330,262,cs),
(1330,0,l),
(1570,0,l),
(1570,139,ls),
(1570,227,o),
(1539,300,o),
(1457,350,c),
(1539,400,o),
(1570,473,o),
(1570,561,cs),
(1570,700,l),
(1330,700,l),
(1330,444,ls),
(1330,404,o),
(1305,378,o),
(1269,378,cs),
(321,378,ls),
(285,378,o),
(260,404,o),
(260,444,cs),
(260,700,l),
(20,700,l),
(20,561,ls),
(20,473,o),
(51,400,o),
(133,350,c),
(51,300,o),
(20,227,o),
(20,139,cs),
(20,0,l)
);
}
);
userData = {
com.hugojourdan.ColorFlow = {
"0" = 0;
"1" = 0;
"10" = 0;
"11" = 0;
"2" = 0;
"3" = 0;
"4" = 0;
"5" = 0;
"6" = 0;
"7" = 0;
"8" = 0;
"9" = 0;
};
};
width = 1590;
},
{
layerId = "1A3F9239-4760-4FF7-8D33-C20C038CC734";
shapes = (
{
closed = 1;
nodes = (
(40,0,l),
(40,153,ls),
(40,268,o),
(108,345,o),
(208,345,cs),
(1352,345,ls),
(1452,345,o),
(1520,268,o),
(1520,153,cs),
(1520,0,l),
(1530,0,l),
(1530,153,ls),
(1530,266,o),
(1465,340,o),
(1388,350,c),
(1465,359,o),
(1530,432,o),
(1530,547,cs),
(1530,700,l),
(1520,700,l),
(1520,547,ls),
(1520,431,o),
(1452,355,o),
(1352,355,cs),
(208,355,ls),
(108,355,o),
(40,431,o),
(40,547,cs),
(40,700,l),
(30,700,l),
(30,547,ls),
(30,432,o),
(95,359,o),
(172,350,c),
(95,340,o),
(30,266,o),
(30,153,cs),
(30,0,l)
);
}
);
userData = {
com.hugojourdan.ColorFlow = {
"0" = 0;
"1" = 0;
"10" = 0;
"11" = 0;
"2" = 0;
"3" = 0;
"4" = 0;
"5" = 0;
"6" = 0;
"7" = 0;
"8" = 0;
"9" = 0;
};
};
width = 1560;
}
);
unicode = 88;
},
